{
.appVersion = "983";
copyright = "Copyright © 2018 by Cadson Demak Co.,Ltd.. All rights reserved.";
customParameters = (
{
name = vendorID;
value = CDK;
},
{
name = description;
value = "Copyright (c) 2018, Cadson Demak (info@cadsondemak.com)";
},
{
name = license;

glyphs = (
{
glyphname = A;
lastChange = "2017-12-19 05:22:03 +0000";
layers = (
{
layerId = "0B1DFD06-3317-40CA-B510-4969A0718C16";
paths = (
{
closed = 1;
nodes = (
"200 266 LINE",
"334 641 LINE",
"334 641 LINE",
"468 266 LINE"
);
},
{
closed = 1;
nodes = (
"29 0 LINE",
"107 0 LINE",
"180 203 LINE",
"487 203 LINE",
"560 0 LINE",
"638 0 LINE",
"372 698 LINE",
"297 698 LINE"
);
}
);
width = 667;
}
);
note = A;
unicode = 0041;
},
{
glyphname = B;
lastChange = "2017-12-19 05:22:03 +0000";
layers = (
{
layerId = "0B1DFD06-3317-40CA-B510-4969A0718C16";
paths = (
{
closed = 1;
nodes = (
"497 408 OFFCURVE",
"531 461 OFFCURVE",
"531 537 CURVE SMOOTH",
"531 625 OFFCURVE",
"481 700 OFFCURVE",
"336 700 CURVE SMOOTH",
"86 700 LINE",
"86 0 LINE",
"333 0 LINE SMOOTH",
"508 0 OFFCURVE",
"572 89 OFFCURVE",
"572 216 CURVE SMOOTH",
"572 289 OFFCURVE",
"520 374 OFFCURVE",
"446 390 CURVE"
);
},
{
closed = 1;
nodes = (
"336 635 LINE SMOOTH",
"433 635 OFFCURVE",
"459 593 OFFCURVE",
"459 537 CURVE SMOOTH",
"459 474 OFFCURVE",
"455 416 OFFCURVE",
"307 416 CURVE SMOOTH",
"161 416 LINE",
"161 635 LINE"
);
},
{
closed = 1;
nodes = (
"158 60 LINE",
"158 359 LINE",
"304 359 LINE SMOOTH",
"452 359 OFFCURVE",
"500 310 OFFCURVE",
"500 216 CURVE SMOOTH",
"500 102 OFFCURVE",
"452 60 OFFCURVE",
"318 60 CURVE SMOOTH"
);
}
);
width = 615;
}
);
note = B;
unicode = 0042;
},
{
glyphname = C;
lastChange = "2017-12-19 05:22:03 +0000";
layers = (
{
layerId = "0B1DFD06-3317-40CA-B510-4969A0718C16";
paths = (
{
closed = 1;
nodes = (
"58 95 OFFCURVE",
"121 -10 OFFCURVE",
"323 -10 CURVE SMOOTH",
"386 -10 OFFCURVE",
"465 10 OFFCURVE",
"517 50 CURVE",
"472 105 LINE",
"428 66 OFFCURVE",
"379 53 OFFCURVE",
"321 53 CURVE SMOOTH",
"158 53 OFFCURVE",
"127 138 OFFCURVE",
"127 348 CURVE SMOOTH",
"127 560 OFFCURVE",
"158 644 OFFCURVE",
"321 644 CURVE SMOOTH",
"379 644 OFFCURVE",
"428 631 OFFCURVE",
"472 592 CURVE",
"517 647 LINE",
"465 687 OFFCURVE",
"386 707 OFFCURVE",
"323 707 CURVE SMOOTH",
"121 707 OFFCURVE",
"58 602 OFFCURVE",
"58 348 CURVE SMOOTH"
);
}
);
width = 546;
}
);
note = C;
unicode = 0043;
},
{
glyphname = D;
lastChange = "2017-12-19 05:22:03 +0000";
layers = (
{
layerId = "0B1DFD06-3317-40CA-B510-4969A0718C16";
paths = (
{
closed = 1;
nodes = (
"333 639 LINE SMOOTH",
"495 639 OFFCURVE",
"540 553 OFFCURVE",
"540 340 CURVE SMOOTH",
"540 145 OFFCURVE",
"495 60 OFFCURVE",
"333 60 CURVE SMOOTH",
"158 60 LINE",
"158 639 LINE"
);
},
{
closed = 1;
nodes = (
"333 0 LINE SMOOTH",
"537 0 OFFCURVE",
"615 115 OFFCURVE",
"615 340 CURVE SMOOTH",
"615 579 OFFCURVE",
"537 700 OFFCURVE",
"333 700 CURVE SMOOTH",
"86 700 LINE",
"86 0 LINE"
);
}
);
width = 672;
}
);
note = D;
unicode = 0044;
},
{
glyphname = E;
lastChange = "2017-12-19 05:22:03 +0000";
layers = (
{
layerId = "0B1DFD06-3317-40CA-B510-4969A0718C16";
paths = (
{
closed = 1;
nodes = (
"158 343 LINE",
"455 343 LINE",
"455 403 LINE",
"158 403 LINE",
"158 639 LINE",
"498 639 LINE",
"498 700 LINE",
"86 700 LINE",
"86 0 LINE",
"494 0 LINE",
"494 60 LINE",
"158 60 LINE"
);
}
);
width = 527;
}
);
note = E;
unicode = 0045;
},
{
glyphname = F;
lastChange = "2017-12-19 05:22:03 +0000";
layers = (
{
layerId = "0B1DFD06-3317-40CA-B510-4969A0718C16";
paths = (
{
closed = 1;
nodes = (
"158 343 LINE",
"455 343 LINE",
"455 403 LINE",
"158 403 LINE",
"158 639 LINE",
"498 639 LINE",
"498 700 LINE",
"86 700 LINE",
"86 0 LINE",
"158 0 LINE"
);
}
);
width = 527;
}
);
note = F;
unicode = 0046;
},
{
glyphname = G;
lastChange = "2017-12-19 05:22:03 +0000";
layers = (
{
layerId = "0B1DFD06-3317-40CA-B510-4969A0718C16";
paths = (
{
closed = 1;
nodes = (
"487 105 LINE",
"442 66 OFFCURVE",
"393 53 OFFCURVE",
"336 53 CURVE SMOOTH",
"173 53 OFFCURVE",
"141 138 OFFCURVE",
"141 348 CURVE SMOOTH",
"141 560 OFFCURVE",
"173 644 OFFCURVE",
"336 644 CURVE SMOOTH",
"393 644 OFFCURVE",
"442 631 OFFCURVE",
"487 592 CURVE",
"531 647 LINE",
"480 687 OFFCURVE",
"400 707 OFFCURVE",
"337 707 CURVE SMOOTH",
"135 707 OFFCURVE",
"72 602 OFFCURVE",
"72 348 CURVE SMOOTH",
"72 95 OFFCURVE",
"135 -10 OFFCURVE",
"337 -10 CURVE SMOOTH",
"445 -10 OFFCURVE",
"516 37 OFFCURVE",
"554 78 CURVE",
"554 373 LINE",
"334 373 LINE",
"328 361 OFFCURVE",
"330 333 OFFCURVE",
"340 314 CURVE SMOOTH",
"351 291 OFFCURVE",
"353 311 OFFCURVE",
"428 311 CURVE SMOOTH",
"487 311 LINE"
);
}
);
width = 626;
}
);
note = G;
unicode = 0047;
},
{
glyphname = H;
lastChange = "2017-12-19 05:22:03 +0000";
layers = (
{
layerId = "0B1DFD06-3317-40CA-B510-4969A0718C16";
paths = (
{
closed = 1;
nodes = (
"158 403 LINE",
"158 700 LINE",
"86 700 LINE",
"86 0 LINE",
"158 0 LINE",
"158 343 LINE",
"498 343 LINE",
"498 0 LINE",
"570 0 LINE",
"570 700 LINE",
"498 700 LINE",
"498 403 LINE"
);
}
);
width = 657;
}
);
note = H;
unicode = 0048;
},
{
glyphname = I;
lastChange = "2017-12-19 05:22:03 +0000";
layers = (
{
layerId = "0B1DFD06-3317-40CA-B510-4969A0718C16";
paths = (
{
closed = 1;
nodes = (
"232 639 LINE",
"369 639 LINE",
"369 700 LINE",
"33 700 LINE",
"33 639 LINE",
"161 639 LINE",
"161 60 LINE",
"29 60 LINE",
"29 0 LINE",
"364 0 LINE",
"364 60 LINE",
"232 60 LINE"
);
}
);
width = 397;
}
);
note = I;
unicode = 0049;
},
{
glyphname = J;
lastChange = "2017-12-19 05:22:03 +0000";
layers = (
{
layerId = "0B1DFD06-3317-40CA-B510-4969A0718C16";
paths = (
{
closed = 1;
nodes = (
"390 700 LINE",
"318 700 LINE",
"318 344 LINE SMOOTH",
"318 132 OFFCURVE",
"315 53 OFFCURVE",
"196 53 CURVE SMOOTH",
"138 53 OFFCURVE",
"104 66 OFFCURVE",
"59 105 CURVE",
"14 50 LINE",
"66 10 OFFCURVE",
"131 -10 OFFCURVE",
"194 -10 CURVE SMOOTH",
"367 -10 OFFCURVE",
"390 91 OFFCURVE",
"390 344 CURVE SMOOTH"
);
}
);
width = 477;
}
);
note = J;
unicode = 004A;
},
{
glyphname = K;
lastChange = "2017-12-19 05:22:03 +0000";
layers = (
{
layerId = "0B1DFD06-3317-40CA-B510-4969A0718C16";
paths = (
{
closed = 1;
nodes = (
"158 0 LINE",
"158 288 LINE",
"226 354 LINE",
"494 0 LINE",
"572 0 LINE",
"271 400 LINE",
"569 700 LINE",
"484 700 LINE",
"158 374 LINE",
"158 700 LINE",
"86 700 LINE",
"86 0 LINE"
);
}
);
width = 629;
}
);
note = K;
unicode = 004B;
},
{
glyphname = L;
lastChange = "2017-12-19 05:22:03 +0000";
layers = (
{
layerId = "0B1DFD06-3317-40CA-B510-4969A0718C16";
paths = (
{
closed = 1;
nodes = (
"158 700 LINE",
"86 700 LINE",
"86 0 LINE",
"498 0 LINE",
"498 60 LINE",
"158 60 LINE"
);
}
);
width = 513;
}
);
note = L;
unicode = 004C;
},
{
glyphname = M;
lastChange = "2017-12-19 05:22:03 +0000";
layers = (
{
layerId = "0B1DFD06-3317-40CA-B510-4969A0718C16";
paths = (
{
closed = 1;
nodes = (
"405 72 LINE",
"206 700 LINE",
"86 700 LINE",
"86 0 LINE",
"158 0 LINE",
"158 639 LINE",
"369 0 LINE",
"441 0 LINE",
"651 639 LINE",
"651 0 LINE",
"723 0 LINE",
"723 700 LINE",
"603 700 LINE"
);
}
);
width = 809;
}
);
note = M;
unicode = 004D;
},
{
glyphname = N;
lastChange = "2017-12-19 05:22:03 +0000";
layers = (
{
layerId = "0B1DFD06-3317-40CA-B510-4969A0718C16";
paths = (
{
closed = 1;
nodes = (
"158 0 LINE",
"158 639 LINE",
"527 0 LINE",
"599 0 LINE",
"599 700 LINE",
"527 700 LINE",
"527 130 LINE",
"206 700 LINE",
"86 700 LINE",
"86 0 LINE"
);
}
);
width = 685;
}
);
note = N;
unicode = 004E;
},
{
glyphname = O;
lastChange = "2017-12-19 05:22:03 +0000";
layers = (
{
layerId = "0B1DFD06-3317-40CA-B510-4969A0718C16";
paths = (
{
closed = 1;
nodes = (
"176 59 OFFCURVE",
"132 145 OFFCURVE",
"132 341 CURVE SMOOTH",
"132 554 OFFCURVE",
"176 639 OFFCURVE",
"340 639 CURVE SMOOTH",
"503 639 OFFCURVE",
"547 554 OFFCURVE",
"547 341 CURVE SMOOTH",
"547 145 OFFCURVE",
"503 59 OFFCURVE",
"340 59 CURVE SMOOTH"
);
},
{
closed = 1;
nodes = (
"544 -9 OFFCURVE",
"622 117 OFFCURVE",
"622 341 CURVE SMOOTH",
"622 580 OFFCURVE",
"544 704 OFFCURVE",
"340 704 CURVE SMOOTH",
"134 704 OFFCURVE",
"58 582 OFFCURVE",
"58 341 CURVE SMOOTH",
"58 117 OFFCURVE",
"137 -9 OFFCURVE",
"340 -9 CURVE SMOOTH"
);
}
);
width = 680;
}
);
note = O;
unicode = 004F;
},
{
glyphname = P;
lastChange = "2017-12-19 05:22:03 +0000";
layers = (
{
layerId = "0B1DFD06-3317-40CA-B510-4969A0718C16";
paths = (
{
closed = 1;
nodes = (
"318 639 LINE SMOOTH",
"452 639 OFFCURVE",
"500 603 OFFCURVE",
"500 477 CURVE SMOOTH",
"500 369 OFFCURVE",
"452 320 OFFCURVE",
"304 320 CURVE SMOOTH",
"158 320 LINE",
"158 639 LINE"
);
},
{
closed = 1;
nodes = (
"289 259 LINE SMOOTH",
"494 259 OFFCURVE",
"572 338 OFFCURVE",
"572 477 CURVE SMOOTH",
"572 629 OFFCURVE",
"508 700 OFFCURVE",
"318 700 CURVE SMOOTH",
"86 700 LINE",
"86 0 LINE",
"158 0 LINE",
"158 259 LINE"
);
}
);
width = 615;
}
);
note = P;
unicode = 0050;
},
{
glyphname = Q;
lastChange = "2017-12-19 05:22:03 +0000";
layers = (
{
layerId = "0B1DFD06-3317-40CA-B510-4969A0718C16";
paths = (
{
closed = 1;
nodes = (
"204 59 OFFCURVE",
"161 145 OFFCURVE",
"161 341 CURVE SMOOTH",
"161 554 OFFCURVE",
"204 639 OFFCURVE",
"369 639 CURVE SMOOTH",
"531 639 OFFCURVE",
"576 554 OFFCURVE",
"576 341 CURVE SMOOTH",
"576 145 OFFCURVE",
"531 59 OFFCURVE",
"369 59 CURVE SMOOTH"
);
},
{
closed = 1;
nodes = (
"573 -9 OFFCURVE",
"651 117 OFFCURVE",
"651 341 CURVE SMOOTH",
"651 580 OFFCURVE",
"573 704 OFFCURVE",
"369 704 CURVE SMOOTH",
"163 704 OFFCURVE",
"86 582 OFFCURVE",
"86 341 CURVE SMOOTH",
"86 117 OFFCURVE",
"166 -9 OFFCURVE",
"369 -9 CURVE SMOOTH"
);
},
{
closed = 1;
nodes = (
"374 189 LINE",
"579 -75 LINE",
"651 -52 LINE",
"435 210 LINE"
);
}
);
width = 737;
}
);
note = Q;
unicode = 0051;
},
{
glyphname = R;
lastChange = "2017-12-19 05:22:03 +0000";
layers = (
{
layerId = "0B1DFD06-3317-40CA-B510-4969A0718C16";
paths = (
{
closed = 1;
nodes = (
"86 700 LINE",
"86 0 LINE",
"158 0 LINE",
"158 317 LINE",
"351 317 LINE",
"487 0 LINE",
"569 0 LINE",
"418 321 LINE",
"504 333 OFFCURVE",
"572 395 OFFCURVE",
"572 498 CURVE SMOOTH",
"572 629 OFFCURVE",
"508 700 OFFCURVE",
"318 700 CURVE SMOOTH"
);
},
{
closed = 1;
nodes = (
"158 639 LINE",
"318 639 LINE SMOOTH",
"419 639 OFFCURVE",
"497 609 OFFCURVE",
"497 498 CURVE SMOOTH",
"497 405 OFFCURVE",
"408 377 OFFCURVE",
"333 377 CURVE SMOOTH",
"158 377 LINE"
);
}
);
width = 629;
}
);
note = R;
unicode = 0052;
},
{
glyphname = S;
lastChange = "2017-12-19 05:22:03 +0000";
layers = (
{
layerId = "0B1DFD06-3317-40CA-B510-4969A0718C16";
paths = (
{
closed = 1;
nodes = (
"58 207 LINE",
"102 58 OFFCURVE",
"189 -9 OFFCURVE",
"351 -9 CURVE SMOOTH",
"501 -9 OFFCURVE",
"585 59 OFFCURVE",
"585 197 CURVE SMOOTH",
"585 433 OFFCURVE",
"151 343 OFFCURVE",
"151 533 CURVE SMOOTH",
"151 606 OFFCURVE",
"204 644 OFFCURVE",
"310 644 CURVE SMOOTH",
"413 644 OFFCURVE",
"474 583 OFFCURVE",
"503 492 CURVE",
"566 511 LINE",
"527 636 OFFCURVE",
"436 703 OFFCURVE",
"310 703 CURVE SMOOTH",
"160 703 OFFCURVE",
"79 642 OFFCURVE",
"79 533 CURVE SMOOTH",
"79 281 OFFCURVE",
"513 377 OFFCURVE",
"513 187 CURVE SMOOTH",
"513 91 OFFCURVE",
"452 52 OFFCURVE",
"353 52 CURVE SMOOTH",
"226 52 OFFCURVE",
"156 105 OFFCURVE",
"125 228 CURVE"
);
}
);
width = 642;
}
);
note = S;
unicode = 0053;
},
{
glyphname = T;
lastChange = "2017-12-19 05:22:03 +0000";
layers = (
{
layerId = "0B1DFD06-3317-40CA-B510-4969A0718C16";
paths = (
{
closed = 1;
nodes = (
"302 639 LINE",
"518 639 LINE",
"518 700 LINE",
"14 700 LINE",
"14 639 LINE",
"230 639 LINE",
"230 0 LINE",
"302 0 LINE"
);
}
);
width = 533;
}
);
note = T;
unicode = 0054;
},
{
glyphname = U;
lastChange = "2017-12-19 05:22:03 +0000";
layers = (
{
layerId = "0B1DFD06-3317-40CA-B510-4969A0718C16";
paths = (
{
closed = 1;
nodes = (
"86 232 LINE SMOOTH",
"86 141 OFFCURVE",
"91 98 OFFCURVE",
"124 62 CURVE SMOOTH",
"179 -1 OFFCURVE",
"289 -9 OFFCURVE",
"351 -9 CURVE SMOOTH",
"415 -9 OFFCURVE",
"527 1 OFFCURVE",
"585 62 CURVE",
"615 101 OFFCURVE",
"622 141 OFFCURVE",
"622 232 CURVE SMOOTH",
"622 700 LINE",
"550 700 LINE",
"550 344 LINE SMOOTH",
"550 287 OFFCURVE",
"553 240 OFFCURVE",
"553 202 CURVE SMOOTH",
"553 157 OFFCURVE",
"550 121 OFFCURVE",
"528 99 CURVE",
"500 66 OFFCURVE",
"422 52 OFFCURVE",
"351 52 CURVE SMOOTH",
"278 52 OFFCURVE",
"210 66 OFFCURVE",
"180 99 CURVE",
"158 121 OFFCURVE",
"156 157 OFFCURVE",
"156 202 CURVE SMOOTH",
"156 240 OFFCURVE",
"158 287 OFFCURVE",
"158 344 CURVE SMOOTH",
"158 700 LINE",
"86 700 LINE"
);
}
);
width = 708;
}
);
note = U;
unicode = 0055;
},
{
glyphname = V;
lastChange = "2017-12-19 05:22:03 +0000";
layers = (
{
layerId = "0B1DFD06-3317-40CA-B510-4969A0718C16";
paths = (
{
closed = 1;
nodes = (
"320 59 LINE",
"107 700 LINE",
"29 700 LINE",
"282 0 LINE",
"357 0 LINE",
"609 700 LINE",
"531 700 LINE"
);
}
);
width = 638;
}
);
note = V;
unicode = 0056;
},
{
glyphname = W;
lastChange = "2017-12-19 05:22:03 +0000";
layers = (
{
layerId = "0B1DFD06-3317-40CA-B510-4969A0718C16";
paths = (
{
closed = 1;
nodes = (
"373 700 LINE",
"219 73 LINE",
"219 73 LINE",
"107 700 LINE",
"29 700 LINE",
"174 0 LINE",
"256 0 LINE",
"408 628 LINE",
"559 0 LINE",
"641 0 LINE",
"786 700 LINE",
"708 700 LINE",
"596 73 LINE",
"596 73 LINE",
"442 700 LINE"
);
}
);
width = 815;
}
);
note = W;
unicode = 0057;
},
{
glyphname = X;
lastChange = "2017-12-19 05:22:03 +0000";
layers = (
{
layerId = "0B1DFD06-3317-40CA-B510-4969A0718C16";
paths = (
{
closed = 1;
nodes = (
"248 347 LINE",
"14 0 LINE",
"99 0 LINE",
"291 300 LINE",
"487 0 LINE",
"575 0 LINE",
"336 347 LINE",
"552 700 LINE",
"465 700 LINE",
"291 387 LINE",
"115 700 LINE",
"29 700 LINE"
);
}
);
width = 589;
}
);
note = X;
unicode = 0058;
},
{
glyphname = Y;
lastChange = "2017-12-19 05:22:03 +0000";
layers = (
{
layerId = "0B1DFD06-3317-40CA-B510-4969A0718C16";
paths = (
{
closed = 1;
nodes = (
"340 274 LINE",
"580 700 LINE",
"503 700 LINE",
"305 333 LINE",
"107 700 LINE",
"29 700 LINE",
"268 274 LINE",
"268 0 LINE",
"340 0 LINE"
);
}
);
width = 609;
}
);
note = Y;
unicode = 0059;
},
{
glyphname = Z;
lastChange = "2017-12-19 05:22:03 +0000";
layers = (
{
layerId = "0B1DFD06-3317-40CA-B510-4969A0718C16";
paths = (
{
closed = 1;
nodes = (
"60 60 LINE",
"60 0 LINE",
"513 0 LINE",
"513 60 LINE",
"144 60 LINE",
"505 634 LINE",
"505 700 LINE",
"58 700 LINE",
"58 638 LINE",
"426 638 LINE"
);
}
);
width = 570;
}
);
note = Z;
unicode = 005A;
},
{
glyphname = a;
lastChange = "2017-12-19 05:22:13 +0000";
layers = (
{
layerId = "0B1DFD06-3317-40CA-B510-4969A0718C16";
paths = (
{
closed = 1;
nodes = (
"393 60 OFFCURVE",
"393 52 OFFCURVE",
"395 45 CURVE",
"396 30 OFFCURVE",
"399 19 OFFCURVE",
"402 12 CURVE",
"406 4 OFFCURVE",
"413 0 OFFCURVE",
"422 0 CURVE SMOOTH",
"436 0 OFFCURVE",
"452 4 OFFCURVE",
"469 12 CURVE",
"464 27 OFFCURVE",
"455 59 OFFCURVE",
"455 104 CURVE SMOOTH",
"455 402 LINE SMOOTH",
"455 528 OFFCURVE",
"396 580 OFFCURVE",
"265 580 CURVE SMOOTH",
"186 580 OFFCURVE",
"109 549 OFFCURVE",
"30 456 CURVE",
"37 446 OFFCURVE",
"46 439 OFFCURVE",
"53 433 CURVE SMOOTH",
"66 423 OFFCURVE",
"82 415 OFFCURVE",
"89 425 CURVE",
"140 488 OFFCURVE",
"192 528 OFFCURVE",
"262 528 CURVE SMOOTH",
"360 528 OFFCURVE",
"393 490 OFFCURVE",
"393 413 CURVE SMOOTH",
"393 346 LINE",
"157 334 OFFCURVE",
"29 308 OFFCURVE",
"29 153 CURVE SMOOTH",
"29 56 OFFCURVE",
"96 -12 OFFCURVE",
"184 -12 CURVE SMOOTH",
"272 -12 OFFCURVE",
"325 13 OFFCURVE",
"393 69 CURVE"
);
},
{
closed = 1;
nodes = (
"390 135 LINE",
"333 78 OFFCURVE",
"258 42 OFFCURVE",
"196 42 CURVE SMOOTH",
"137 42 OFFCURVE",
"89 91 OFFCURVE",
"89 154 CURVE SMOOTH",
"89 223 OFFCURVE",
"137 288 OFFCURVE",
"390 292 CURVE"
);
}
);
width = 547;
}
);
note = a;
unicode = 0061;
},
{
glyphname = b;
lastChange = "2017-12-19 05:22:13 +0000";
layers = (
{
layerId = "0B1DFD06-3317-40CA-B510-4969A0718C16";
paths = (
{
closed = 1;
nodes = (
"101 791 LINE",
"101 132 LINE SMOOTH",
"101 62 OFFCURVE",
"88 33 OFFCURVE",
"82 12 CURVE",
"99 4 OFFCURVE",
"115 0 OFFCURVE",
"130 0 CURVE SMOOTH",
"138 0 OFFCURVE",
"145 4 OFFCURVE",
"150 12 CURVE SMOOTH",
"154 19 OFFCURVE",
"157 32 OFFCURVE",
"158 48 CURVE SMOOTH",
"161 73 LINE",
"219 14 OFFCURVE",
"271 -12 OFFCURVE",
"351 -12 CURVE SMOOTH",
"484 -12 OFFCURVE",
"557 79 OFFCURVE",
"557 288 CURVE SMOOTH",
"557 471 OFFCURVE",
"495 580 OFFCURVE",
"361 580 CURVE SMOOTH",
"285 580 OFFCURVE",
"230 550 OFFCURVE",
"163 510 CURVE",
"163 791 LINE"
);
},
{
closed = 1;
nodes = (
"163 439 LINE",
"209 478 OFFCURVE",
"281 528 OFFCURVE",
"344 528 CURVE SMOOTH",
"464 528 OFFCURVE",
"492 439 OFFCURVE",
"492 276 CURVE SMOOTH",
"492 132 OFFCURVE",
"462 42 OFFCURVE",
"347 42 CURVE SMOOTH",
"266 42 OFFCURVE",
"204 86 OFFCURVE",
"163 145 CURVE"
);
}
);
width = 598;
}
);
note = b;
unicode = 0062;
},
{
glyphname = c;
lastChange = "2017-12-19 05:22:13 +0000";
layers = (
{
layerId = "0B1DFD06-3317-40CA-B510-4969A0718C16";
paths = (
{
closed = 1;
nodes = (
"477 458 LINE",
"431 539 OFFCURVE",
"376 580 OFFCURVE",
"278 580 CURVE SMOOTH",
"104 580 OFFCURVE",
"40 480 OFFCURVE",
"40 285 CURVE SMOOTH",
"40 112 OFFCURVE",
"86 -12 OFFCURVE",
"276 -12 CURVE SMOOTH",
"383 -12 OFFCURVE",
"442 46 OFFCURVE",
"477 107 CURVE",
"426 135 LINE",
"402 91 OFFCURVE",
"357 42 OFFCURVE",
"276 42 CURVE SMOOTH",
"132 42 OFFCURVE",
"105 140 OFFCURVE",
"105 285 CURVE SMOOTH",
"105 462 OFFCURVE",
"143 528 OFFCURVE",
"278 528 CURVE SMOOTH",
"353 528 OFFCURVE",
"390 490 OFFCURVE",
"420 438 CURVE"
);
}
);
width = 547;
}
);
note = c;
unicode = 0063;
},
{
glyphname = d;
lastChange = "2017-12-19 05:22:13 +0000";
layers = (
{
layerId = "0B1DFD06-3317-40CA-B510-4969A0718C16";
paths = (
{
closed = 1;
nodes = (
"435 145 LINE",
"393 86 OFFCURVE",
"331 42 OFFCURVE",
"251 42 CURVE SMOOTH",
"135 42 OFFCURVE",
"105 132 OFFCURVE",
"105 276 CURVE SMOOTH",
"105 439 OFFCURVE",
"161 528 OFFCURVE",
"282 528 CURVE SMOOTH",
"347 528 OFFCURVE",
"410 485 OFFCURVE",
"435 454 CURVE"
);
},
{
closed = 1;
nodes = (
"497 791 LINE",
"435 791 LINE",
"435 524 LINE",
"396 547 OFFCURVE",
"341 580 OFFCURVE",
"265 580 CURVE SMOOTH",
"131 580 OFFCURVE",
"40 471 OFFCURVE",
"40 288 CURVE SMOOTH",
"40 79 OFFCURVE",
"114 -12 OFFCURVE",
"246 -12 CURVE SMOOTH",
"327 -12 OFFCURVE",
"379 14 OFFCURVE",
"436 73 CURVE",
"436 65 OFFCURVE",
"436 56 OFFCURVE",
"438 48 CURVE",
"439 32 OFFCURVE",
"442 19 OFFCURVE",
"445 12 CURVE",
"449 4 OFFCURVE",
"456 0 OFFCURVE",
"465 0 CURVE SMOOTH",
"478 0 OFFCURVE",
"494 4 OFFCURVE",
"511 12 CURVE",
"505 33 OFFCURVE",
"497 73 OFFCURVE",
"497 118 CURVE SMOOTH"
);
}
);
width = 598;
}
);
note = d;
unicode = 0064;
},
{
glyphname = e;
lastChange = "2017-12-19 05:22:13 +0000";
layers = (
{
layerId = "0B1DFD06-3317-40CA-B510-4969A0718C16";
paths = (
{
closed = 1;
nodes = (
"501 282 LINE",
"501 459 OFFCURVE",
"435 580 OFFCURVE",
"281 580 CURVE SMOOTH",
"150 580 OFFCURVE",
"40 504 OFFCURVE",
"40 285 CURVE SMOOTH",
"40 84 OFFCURVE",
"132 -12 OFFCURVE",
"282 -12 CURVE SMOOTH",
"393 -12 OFFCURVE",
"445 29 OFFCURVE",
"507 128 CURVE",
"454 156 LINE",
"397 69 OFFCURVE",
"361 42 OFFCURVE",
"288 42 CURVE SMOOTH",
"157 42 OFFCURVE",
"105 153 OFFCURVE",
"105 282 CURVE"
);
},
{
closed = 1;
nodes = (
"105 336 LINE",
"105 439 OFFCURVE",
"163 528 OFFCURVE",
"278 528 CURVE SMOOTH",
"377 528 OFFCURVE",
"431 461 OFFCURVE",
"435 336 CURVE"
);
}
);
width = 547;
}
);
note = e;
unicode = 0065;
},
{
glyphname = f;
lastChange = "2017-12-19 05:22:13 +0000";
layers = (
{
layerId = "0B1DFD06-3317-40CA-B510-4969A0718C16";
paths = (
{
closed = 1;
nodes = (
"287 517 LINE",
"287 569 LINE",
"170 569 LINE",
"170 658 LINE SMOOTH",
"170 726 OFFCURVE",
"196 744 OFFCURVE",
"248 744 CURVE SMOOTH",
"271 744 OFFCURVE",
"289 737 OFFCURVE",
"308 727 CURVE",
"318 727 OFFCURVE",
"325 766 OFFCURVE",
"312 793 CURVE",
"291 801 OFFCURVE",
"264 802 OFFCURVE",
"240 802 CURVE SMOOTH",
"143 802 OFFCURVE",
"105 749 OFFCURVE",
"105 649 CURVE SMOOTH",
"105 569 LINE",
"12 569 LINE",
"12 517 LINE",
"105 517 LINE",
"105 0 LINE",
"170 0 LINE",
"170 517 LINE"
);
}
);
width = 305;
}
);
note = f;
unicode = 0066;
},
{
glyphname = g;
lastChange = "2017-12-19 05:22:13 +0000";
layers = (
{
layerId = "0B1DFD06-3317-40CA-B510-4969A0718C16";
paths = (
{
closed = 1;
nodes = (
"464 533 OFFCURVE",
"497 533 OFFCURVE",
"527 533 CURVE",
"539 559 OFFCURVE",
"537 602 OFFCURVE",
"518 602 CURVE SMOOTH",
"472 602 OFFCURVE",
"436 580 OFFCURVE",
"403 547 CURVE",
"376 563 OFFCURVE",
"334 580 OFFCURVE",
"275 580 CURVE SMOOTH",
"108 580 OFFCURVE",
"49 508 OFFCURVE",
"49 374 CURVE SMOOTH",
"49 315 OFFCURVE",
"66 258 OFFCURVE",
"118 225 CURVE",
"78 215 OFFCURVE",
"50 189 OFFCURVE",
"50 138 CURVE SMOOTH",
"50 98 OFFCURVE",
"66 66 OFFCURVE",
"122 56 CURVE",
"122 53 LINE",
"42 24 OFFCURVE",
"27 -17 OFFCURVE",
"27 -68 CURVE SMOOTH",
"27 -148 OFFCURVE",
"73 -202 OFFCURVE",
"271 -202 CURVE SMOOTH",
"467 -202 OFFCURVE",
"523 -157 OFFCURVE",
"523 -46 CURVE SMOOTH",
"523 62 OFFCURVE",
"459 101 OFFCURVE",
"288 101 CURVE SMOOTH",
"134 101 OFFCURVE",
"109 114 OFFCURVE",
"109 147 CURVE SMOOTH",
"109 168 OFFCURVE",
"121 183 OFFCURVE",
"157 199 CURVE",
"184 189 OFFCURVE",
"217 184 OFFCURVE",
"256 184 CURVE SMOOTH",
"389 184 OFFCURVE",
"477 225 OFFCURVE",
"477 386 CURVE SMOOTH",
"477 442 OFFCURVE",
"465 478 OFFCURVE",
"441 511 CURVE"
);
},
{
closed = 1;
nodes = (
"426 42 OFFCURVE",
"456 24 OFFCURVE",
"456 -52 CURVE SMOOTH",
"456 -140 OFFCURVE",
"402 -150 OFFCURVE",
"261 -150 CURVE SMOOTH",
"141 -150 OFFCURVE",
"94 -140 OFFCURVE",
"94 -55 CURVE SMOOTH",
"94 -4 OFFCURVE",
"127 42 OFFCURVE",
"256 42 CURVE SMOOTH"
);
},
{
closed = 1;
nodes = (
"115 492 OFFCURVE",
"157 528 OFFCURVE",
"262 528 CURVE SMOOTH",
"370 528 OFFCURVE",
"410 503 OFFCURVE",
"410 382 CURVE SMOOTH",
"410 262 OFFCURVE",
"370 239 OFFCURVE",
"262 239 CURVE SMOOTH",
"170 239 OFFCURVE",
"115 262 OFFCURVE",
"115 382 CURVE SMOOTH"
);
}
);
width = 547;
}
);
note = g;
unicode = 0067;
},
{
glyphname = h;
lastChange = "2017-12-19 05:22:13 +0000";
layers = (
{
layerId = "0B1DFD06-3317-40CA-B510-4969A0718C16";
paths = (
{
closed = 1;
nodes = (
"156 0 LINE",
"156 419 LINE",
"228 484 OFFCURVE",
"266 528 OFFCURVE",
"337 528 CURVE SMOOTH",
"425 528 OFFCURVE",
"452 478 OFFCURVE",
"452 382 CURVE SMOOTH",
"452 0 LINE",
"518 0 LINE",
"518 389 LINE SMOOTH",
"518 511 OFFCURVE",
"469 580 OFFCURVE",
"350 580 CURVE SMOOTH",
"265 580 OFFCURVE",
"217 543 OFFCURVE",
"156 480 CURVE",
"156 791 LINE",
"91 791 LINE",
"91 0 LINE"
);
}
);
width = 609;
}
);
note = h;
unicode = 0068;
},
{
glyphname = i;
lastChange = "2017-12-19 05:22:13 +0000";
layers = (
{
layerId = "0B1DFD06-3317-40CA-B510-4969A0718C16";
paths = (
{
closed = 1;
nodes = (
"154 569 LINE",
"89 569 LINE",
"89 0 LINE",
"154 0 LINE"
);
},
{
closed = 1;
nodes = (
"154 694 LINE",
"154 791 LINE",
"89 791 LINE",
"89 694 LINE"
);
}
);
width = 243;
}
);
note = i;
unicode = 0069;
},
{
glyphname = j;
lastChange = "2017-12-19 05:22:13 +0000";
layers = (
{
layerId = "0B1DFD06-3317-40CA-B510-4969A0718C16";
paths = (
{
closed = 1;
nodes = (
"154 569 LINE",
"89 569 LINE",
"89 -72 LINE SMOOTH",
"89 -137 OFFCURVE",
"63 -144 OFFCURVE",
"12 -144 CURVE SMOOTH",
"-12 -144 OFFCURVE",
"-30 -137 OFFCURVE",
"-49 -127 CURVE",
"-59 -127 OFFCURVE",
"-66 -166 OFFCURVE",
"-53 -193 CURVE",
"-32 -200 OFFCURVE",
"-4 -202 OFFCURVE",
"19 -202 CURVE SMOOTH",
"117 -202 OFFCURVE",
"154 -163 OFFCURVE",
"154 -63 CURVE SMOOTH"
);
},
{
closed = 1;
nodes = (
"154 694 LINE",
"154 791 LINE",
"89 791 LINE",
"89 694 LINE"
);
}
);
width = 243;
}
);
note = j;
unicode = 006A;
},
{
glyphname = k;
lastChange = "2017-12-19 05:22:13 +0000";
layers = (
{
layerId = "0B1DFD06-3317-40CA-B510-4969A0718C16";
paths = (
{
closed = 1;
nodes = (
"156 0 LINE",
"156 204 LINE",
"213 269 LINE",
"436 0 LINE",
"523 0 LINE",
"258 312 LINE",
"495 569 LINE",
"412 569 LINE",
"156 295 LINE",
"156 791 LINE",
"91 791 LINE",
"91 0 LINE"
);
}
);
width = 547;
}
);
note = k;
unicode = 006B;
},
{
glyphname = l;
lastChange = "2017-12-19 05:22:13 +0000";
layers = (
{
layerId = "0B1DFD06-3317-40CA-B510-4969A0718C16";
paths = (
{
closed = 1;
nodes = (
"89 0 LINE",
"154 0 LINE",
"154 791 LINE",
"89 791 LINE"
);
}
);
width = 243;
}
);
note = l;
unicode = 006C;
},
{
glyphname = m;
lastChange = "2017-12-19 05:22:13 +0000";
layers = (
{
layerId = "0B1DFD06-3317-40CA-B510-4969A0718C16";
paths = (
{
closed = 1;
nodes = (
"156 0 LINE",
"156 419 LINE",
"192 474 OFFCURVE",
"274 528 OFFCURVE",
"324 528 CURVE SMOOTH",
"387 528 OFFCURVE",
"423 495 OFFCURVE",
"423 432 CURVE SMOOTH",
"423 0 LINE",
"488 0 LINE",
"488 419 LINE",
"524 474 OFFCURVE",
"606 528 OFFCURVE",
"657 528 CURVE SMOOTH",
"721 528 OFFCURVE",
"755 497 OFFCURVE",
"755 432 CURVE SMOOTH",
"755 0 LINE",
"821 0 LINE",
"821 425 LINE SMOOTH",
"821 527 OFFCURVE",
"770 580 OFFCURVE",
"671 580 CURVE SMOOTH",
"589 580 OFFCURVE",
"534 536 OFFCURVE",
"482 477 CURVE",
"467 539 OFFCURVE",
"408 580 OFFCURVE",
"344 580 CURVE SMOOTH",
"258 580 OFFCURVE",
"213 544 OFFCURVE",
"156 482 CURVE",
"156 569 LINE",
"91 569 LINE",
"91 0 LINE"
);
}
);
width = 912;
}
);
note = m;
unicode = 006D;
},
{
glyphname = n;
lastChange = "2017-12-19 05:22:13 +0000";
layers = (
{
layerId = "0B1DFD06-3317-40CA-B510-4969A0718C16";
paths = (
{
closed = 1;
nodes = (
"156 0 LINE",
"156 419 LINE",
"213 484 OFFCURVE",
"266 528 OFFCURVE",
"337 528 CURVE SMOOTH",
"425 528 OFFCURVE",
"452 478 OFFCURVE",
"452 382 CURVE SMOOTH",
"452 0 LINE",
"518 0 LINE",
"518 389 LINE SMOOTH",
"518 511 OFFCURVE",
"469 580 OFFCURVE",
"350 580 CURVE SMOOTH",
"265 580 OFFCURVE",
"202 544 OFFCURVE",
"156 481 CURVE",
"156 569 LINE",
"91 569 LINE",
"91 0 LINE"
);
}
);
width = 609;
}
);
note = n;
unicode = 006E;
},
{
glyphname = o;
lastChange = "2017-12-19 05:22:13 +0000";
layers = (
{
layerId = "0B1DFD06-3317-40CA-B510-4969A0718C16";
paths = (
{
closed = 1;
nodes = (
"406 528 OFFCURVE",
"442 439 OFFCURVE",
"442 285 CURVE SMOOTH",
"442 130 OFFCURVE",
"406 42 OFFCURVE",
"274 42 CURVE SMOOTH",
"141 42 OFFCURVE",
"105 130 OFFCURVE",
"105 285 CURVE SMOOTH",
"105 439 OFFCURVE",
"141 528 OFFCURVE",
"274 528 CURVE SMOOTH"
);
},
{
closed = 1;
nodes = (
"96 580 OFFCURVE",
"40 469 OFFCURVE",
"40 285 CURVE SMOOTH",
"40 101 OFFCURVE",
"96 -12 OFFCURVE",
"274 -12 CURVE SMOOTH",
"452 -12 OFFCURVE",
"507 101 OFFCURVE",
"507 285 CURVE SMOOTH",
"507 469 OFFCURVE",
"452 580 OFFCURVE",
"274 580 CURVE SMOOTH"
);
}
);
width = 547;
}
);
note = o;
unicode = 006F;
},
{
glyphname = p;
lastChange = "2017-12-19 05:22:13 +0000";
layers = (
{
layerId = "0B1DFD06-3317-40CA-B510-4969A0718C16";
paths = (
{
closed = 1;
nodes = (
"163 409 LINE",
"204 468 OFFCURVE",
"266 527 OFFCURVE",
"347 527 CURVE SMOOTH",
"462 527 OFFCURVE",
"492 452 OFFCURVE",
"492 292 CURVE SMOOTH",
"492 130 OFFCURVE",
"449 40 OFFCURVE",
"315 40 CURVE SMOOTH",
"251 40 OFFCURVE",
"196 76 OFFCURVE",
"163 101 CURVE"
);
},
{
closed = 1;
nodes = (
"125 569 OFFCURVE",
"114 566 OFFCURVE",
"104 562 CURVE",
"89 554 LINE",
"101 523 OFFCURVE",
"101 412 OFFCURVE",
"101 377 CURVE SMOOTH",
"101 -202 LINE",
"163 -202 LINE",
"163 30 LINE",
"216 3 OFFCURVE",
"256 -12 OFFCURVE",
"333 -12 CURVE SMOOTH",
"482 -12 OFFCURVE",
"557 98 OFFCURVE",
"557 281 CURVE SMOOTH",
"557 503 OFFCURVE",
"484 580 OFFCURVE",
"351 580 CURVE SMOOTH",
"276 580 OFFCURVE",
"209 549 OFFCURVE",
"164 481 CURVE",
"163 481 LINE",
"163 511 LINE SMOOTH",
"163 553 OFFCURVE",
"157 569 OFFCURVE",
"140 569 CURVE SMOOTH"
);
}
);
width = 598;
}
);
note = p;
unicode = 0070;
},
{
glyphname = q;
lastChange = "2017-12-19 05:22:13 +0000";
layers = (
{
layerId = "0B1DFD06-3317-40CA-B510-4969A0718C16";
paths = (
{
closed = 1;
nodes = (
"435 101 LINE",
"389 62 OFFCURVE",
"347 40 OFFCURVE",
"282 40 CURVE SMOOTH",
"148 40 OFFCURVE",
"105 130 OFFCURVE",
"105 292 CURVE SMOOTH",
"105 436 OFFCURVE",
"135 527 OFFCURVE",
"251 527 CURVE SMOOTH",
"331 527 OFFCURVE",
"393 482 OFFCURVE",
"435 423 CURVE"
);
},
{
closed = 1;
nodes = (
"501 562 LINE",
"491 566 OFFCURVE",
"480 569 OFFCURVE",
"465 569 CURVE SMOOTH",
"448 569 OFFCURVE",
"442 544 OFFCURVE",
"441 503 CURVE",
"390 554 OFFCURVE",
"325 580 OFFCURVE",
"246 580 CURVE SMOOTH",
"114 580 OFFCURVE",
"40 490 OFFCURVE",
"40 281 CURVE SMOOTH",
"40 98 OFFCURVE",
"115 -12 OFFCURVE",
"265 -12 CURVE SMOOTH",
"341 -12 OFFCURVE",
"373 -4 OFFCURVE",
"435 30 CURVE",
"435 -202 LINE",
"497 -202 LINE",
"497 377 LINE SMOOTH",
"497 426 OFFCURVE",
"504 523 OFFCURVE",
"516 554 CURVE"
);
}
);
width = 598;
}
);
note = q;
unicode = 0071;
},
{
glyphname = r;
lastChange = "2017-12-19 05:22:13 +0000";
layers = (
{
layerId = "0B1DFD06-3317-40CA-B510-4969A0718C16";
paths = (
{
closed = 1;
nodes = (
"312 517 OFFCURVE",
"328 513 OFFCURVE",
"343 504 CURVE",
"353 504 OFFCURVE",
"372 547 OFFCURVE",
"360 573 CURVE",
"348 579 OFFCURVE",
"321 580 OFFCURVE",
"311 580 CURVE SMOOTH",
"238 580 OFFCURVE",
"183 531 OFFCURVE",
"153 461 CURVE",
"151 461 LINE",
"151 569 LINE",
"85 569 LINE",
"85 0 LINE",
"151 0 LINE",
"151 321 LINE SMOOTH",
"151 431 OFFCURVE",
"229 517 OFFCURVE",
"294 517 CURVE SMOOTH"
);
}
);
width = 380;
}
);
note = r;
unicode = 0072;
},
{
glyphname = s;
lastChange = "2017-12-19 05:22:13 +0000";
layers = (
{
layerId = "0B1DFD06-3317-40CA-B510-4969A0718C16";
paths = (
{
closed = 1;
nodes = (
"27 104 LINE",
"81 23 OFFCURVE",
"160 -12 OFFCURVE",
"248 -12 CURVE SMOOTH",
"350 -12 OFFCURVE",
"445 48 OFFCURVE",
"445 151 CURVE SMOOTH",
"445 370 OFFCURVE",
"109 288 OFFCURVE",
"109 428 CURVE SMOOTH",
"109 497 OFFCURVE",
"158 528 OFFCURVE",
"222 528 CURVE SMOOTH",
"285 528 OFFCURVE",
"327 505 OFFCURVE",
"361 461 CURVE",
"372 449 OFFCURVE",
"373 445 OFFCURVE",
"383 449 CURVE",
"396 454 OFFCURVE",
"405 461 OFFCURVE",
"410 467 CURVE",
"420 478 LINE",
"380 543 OFFCURVE",
"305 580 OFFCURVE",
"225 580 CURVE SMOOTH",
"143 580 OFFCURVE",
"43 533 OFFCURVE",
"43 425 CURVE SMOOTH",
"43 223 OFFCURVE",
"379 314 OFFCURVE",
"379 151 CURVE SMOOTH",
"379 89 OFFCURVE",
"325 42 OFFCURVE",
"252 42 CURVE SMOOTH",
"194 42 OFFCURVE",
"140 66 OFFCURVE",
"89 130 CURVE SMOOTH",
"82 138 OFFCURVE",
"73 140 OFFCURVE",
"63 135 CURVE",
"56 131 OFFCURVE",
"48 124 OFFCURVE",
"40 117 CURVE SMOOTH"
);
}
);
width = 485;
}
);
note = s;
unicode = 0073;
},
{
glyphname = t;
lastChange = "2017-12-19 05:22:13 +0000";
layers = (
{
layerId = "0B1DFD06-3317-40CA-B510-4969A0718C16";
paths = (
{
closed = 1;
nodes = (
"12 569 LINE",
"12 517 LINE",
"96 517 LINE",
"96 89 LINE SMOOTH",
"96 19 OFFCURVE",
"127 -12 OFFCURVE",
"220 -12 CURVE SMOOTH",
"242 -12 OFFCURVE",
"269 -7 OFFCURVE",
"292 -1 CURVE",
"310 1 OFFCURVE",
"300 60 OFFCURVE",
"292 65 CURVE",
"271 55 OFFCURVE",
"239 48 OFFCURVE",
"217 48 CURVE SMOOTH",
"176 48 OFFCURVE",
"161 63 OFFCURVE",
"161 102 CURVE SMOOTH",
"161 517 LINE",
"288 517 LINE",
"288 569 LINE",
"161 569 LINE",
"161 755 LINE",
"96 755 LINE",
"96 569 LINE"
);
}
);
width = 304;
}
);
note = t;
unicode = 0074;
},
{
glyphname = u;
lastChange = "2017-12-19 05:22:13 +0000";
layers = (
{
layerId = "0B1DFD06-3317-40CA-B510-4969A0718C16";
paths = (
{
closed = 1;
nodes = (
"455 78 OFFCURVE",
"455 66 OFFCURVE",
"456 56 CURVE",
"458 37 OFFCURVE",
"459 19 OFFCURVE",
"464 12 CURVE SMOOTH",
"469 1 OFFCURVE",
"482 0 OFFCURVE",
"490 0 CURVE SMOOTH",
"505 0 OFFCURVE",
"517 4 OFFCURVE",
"533 12 CURVE",
"527 30 OFFCURVE",
"518 50 OFFCURVE",
"518 118 CURVE SMOOTH",
"518 569 LINE",
"452 569 LINE",
"452 151 LINE",
"408 84 OFFCURVE",
"344 42 OFFCURVE",
"271 42 CURVE SMOOTH",
"183 42 OFFCURVE",
"156 94 OFFCURVE",
"156 187 CURVE SMOOTH",
"156 569 LINE",
"91 569 LINE",
"91 180 LINE SMOOTH",
"91 58 OFFCURVE",
"138 -12 OFFCURVE",
"259 -12 CURVE SMOOTH",
"344 -12 OFFCURVE",
"422 26 OFFCURVE",
"455 91 CURVE"
);
}
);
width = 609;
}
);
note = u;
unicode = 0075;
},
{
glyphname = v;
lastChange = "2017-12-19 05:22:13 +0000";
layers = (
{
layerId = "0B1DFD06-3317-40CA-B510-4969A0718C16";
paths = (
{
closed = 1;
nodes = (
"210 0 LINE",
"275 0 LINE",
"471 569 LINE",
"400 569 LINE",
"243 101 LINE",
"240 101 LINE",
"85 569 LINE",
"14 569 LINE"
);
}
);
width = 485;
}
);
note = v;
unicode = 0076;
},
{
glyphname = w;
lastChange = "2017-12-19 05:22:13 +0000";
layers = (
{
layerId = "0B1DFD06-3317-40CA-B510-4969A0718C16";
paths = (
{
closed = 1;
nodes = (
"167 0 LINE",
"233 0 LINE",
"361 456 LINE",
"364 456 LINE",
"491 0 LINE",
"556 0 LINE",
"721 569 LINE",
"654 569 LINE",
"526 112 LINE",
"523 112 LINE",
"397 569 LINE",
"331 569 LINE",
"202 112 LINE",
"200 112 LINE",
"73 569 LINE",
"9 569 LINE"
);
}
);
width = 730;
}
);
note = w;
unicode = 0077;
},
{
glyphname = x;
lastChange = "2017-12-19 05:22:13 +0000";
layers = (
{
layerId = "0B1DFD06-3317-40CA-B510-4969A0718C16";
paths = (
{
closed = 1;
nodes = (
"243 239 LINE",
"397 0 LINE",
"475 0 LINE",
"282 302 LINE",
"452 569 LINE",
"374 569 LINE",
"243 364 LINE",
"112 569 LINE",
"33 569 LINE",
"204 302 LINE",
"12 0 LINE",
"91 0 LINE"
);
}
);
width = 485;
}
);
note = x;
unicode = 0078;
},
{
glyphname = y;
lastChange = "2017-12-19 05:22:13 +0000";
layers = (
{
layerId = "0B1DFD06-3317-40CA-B510-4969A0718C16";
paths = (
{
closed = 1;
nodes = (
"85 569 LINE",
"14 569 LINE",
"210 9 LINE",
"177 -108 OFFCURVE",
"132 -147 OFFCURVE",
"88 -147 CURVE SMOOTH",
"60 -147 OFFCURVE",
"46 -134 OFFCURVE",
"24 -118 CURVE",
"14 -125 OFFCURVE",
"-6 -183 OFFCURVE",
"17 -190 CURVE",
"33 -196 OFFCURVE",
"50 -202 OFFCURVE",
"79 -202 CURVE SMOOTH",
"181 -202 OFFCURVE",
"222 -151 OFFCURVE",
"261 -42 CURVE SMOOTH",
"474 569 LINE",
"402 569 LINE",
"243 107 LINE",
"242 107 LINE"
);
}
);
width = 485;
}
);
note = y;
unicode = 0079;
},
{
glyphname = z;
lastChange = "2017-12-19 05:22:13 +0000";
layers = (
{
layerId = "0B1DFD06-3317-40CA-B510-4969A0718C16";
paths = (
{
closed = 1;
nodes = (
"53 517 LINE",
"356 517 LINE",
"27 42 LINE",
"27 0 LINE",
"452 0 LINE",
"452 52 LINE",
"115 52 LINE",
"444 528 LINE",
"444 569 LINE",
"53 569 LINE"
);
}
);
width = 485;
}
);
note = z;
unicode = 007A;
},
{
glyphname = AE;
lastChange = "2017-12-19 05:22:23 +0000";
layers = (
{
layerId = "0B1DFD06-3317-40CA-B510-4969A0718C16";
paths = (
{
closed = 1;
nodes = (
"566 343 LINE",
"863 343 LINE",
"863 403 LINE",
"566 403 LINE",
"566 639 LINE",
"906 639 LINE",
"906 700 LINE",
"416 700 LINE",
"29 0 LINE",
"107 0 LINE",
"217 203 LINE",
"501 203 LINE",
"501 0 LINE",
"901 0 LINE",
"901 60 LINE",
"566 60 LINE"
);
},
{
closed = 1;
nodes = (
"246 266 LINE",
"454 641 LINE",
"501 641 LINE",
"501 266 LINE"
);
}
);
width = 935;
}
);
note = AE;
unicode = 00C6;
},
{
glyphname = Eth;
lastChange = "2017-12-19 05:22:32 +0000";
layers = (
{
layerId = "0B1DFD06-3317-40CA-B510-4969A0718C16";
paths = (
{
closed = 1;
nodes = (
"86 327 LINE",
"86 0 LINE",
"347 0 LINE SMOOTH",
"552 0 OFFCURVE",
"615 115 OFFCURVE",
"615 340 CURVE SMOOTH",
"615 579 OFFCURVE",
"552 700 OFFCURVE",
"347 700 CURVE SMOOTH",
"86 700 LINE",
"86 384 LINE",
"-29 384 LINE",
"-29 327 LINE"
);
},
{
closed = 1;
nodes = (
"158 384 LINE",
"158 639 LINE",
"347 639 LINE SMOOTH",
"508 639 OFFCURVE",
"543 553 OFFCURVE",
"543 340 CURVE SMOOTH",
"543 145 OFFCURVE",
"508 60 OFFCURVE",
"347 60 CURVE SMOOTH",
"158 60 LINE",
"158 327 LINE",
"376 327 LINE",
"376 384 LINE"
);
}
);
width = 672;
}
);
note = Eth;
unicode = 00D0;
},
{
glyphname = Dcroat;
lastChange = "2017-12-19 05:22:38 +0000";
layers = (
{
layerId = "0B1DFD06-3317-40CA-B510-4969A0718C16";
paths = (
{
closed = 1;
nodes = (
"86 327 LINE",
"86 0 LINE",
"347 0 LINE SMOOTH",
"552 0 OFFCURVE",
"615 115 OFFCURVE",
"615 340 CURVE SMOOTH",
"615 579 OFFCURVE",
"552 700 OFFCURVE",
"347 700 CURVE SMOOTH",
"86 700 LINE",
"86 384 LINE",
"-29 384 LINE",
"-29 327 LINE"
);
},
{
closed = 1;
nodes = (
"158 384 LINE",
"158 639 LINE",
"347 639 LINE SMOOTH",
"508 639 OFFCURVE",
"543 553 OFFCURVE",
"543 340 CURVE SMOOTH",
"543 145 OFFCURVE",
"508 60 OFFCURVE",
"347 60 CURVE SMOOTH",
"158 60 LINE",
"158 327 LINE",
"376 327 LINE",
"376 384 LINE"
);
}
);
width = 672;
}
);
note = Dcroat;
unicode = 0110;
},
{
glyphname = Eacute;
lastChange = "2017-12-19 05:21:12 +0000";
layers = (
{
background = {
paths = (
{
closed = 1;
nodes = (
"554 0 LINE",
"571 179 LINE",
"544 179 LINE",
"538 124 OFFCURVE",
"520 40 OFFCURVE",
"456 40 CURVE SMOOTH",
"201 40 LINE",
"201 659 LINE",
"441 659 LINE SMOOTH",
"516 659 OFFCURVE",
"525 567 OFFCURVE",
"528 527 CURVE",
"555 527 LINE",
"555 700 LINE",
"16 700 LINE",
"16 673 LINE",
"44 673 LINE SMOOTH",
"83 673 OFFCURVE",
"103 662 OFFCURVE",
"103 637 CURVE SMOOTH",
"103 62 LINE SMOOTH",
"103 37 OFFCURVE",
"83 26 OFFCURVE",
"44 26 CURVE SMOOTH",
"16 26 LINE",
"16 0 LINE"
);
},
{
closed = 1;
nodes = (
"455 251 LINE",
"455 485 LINE",
"431 485 LINE",
"427 436 OFFCURVE",
"424 388 OFFCURVE",
"379 388 CURVE SMOOTH",
"162 388 LINE",
"162 348 LINE",
"379 348 LINE SMOOTH",
"424 348 OFFCURVE",
"427 300 OFFCURVE",
"431 251 CURVE"
);
},
{
closed = 1;
nodes = (
"398 865 LINE SMOOTH",
"420 877 OFFCURVE",
"432 890 OFFCURVE",
"432 907 CURVE SMOOTH",
"432 922 OFFCURVE",
"420 937 OFFCURVE",
"398 937 CURVE SMOOTH",
"377 937 OFFCURVE",
"362 921 OFFCURVE",
"354 914 CURVE SMOOTH",
"239 807 LINE",
"256 782 LINE"
);
}
);
};
components = (
{
name = E;
},
{
name = acute;
transform = "{1, 0, 0, 1, 56, 230}";
}
);
layerId = "0B1DFD06-3317-40CA-B510-4969A0718C16";
width = 607;
}
);
note = Eacute;
unicode = 00C9;
},
{
glyphname = Ebreve;
lastChange = "2017-12-19 05:21:12 +0000";
layers = (
{
background = {
paths = (
{
closed = 1;
nodes = (
"554 0 LINE",
"571 179 LINE",
"544 179 LINE",
"538 124 OFFCURVE",
"520 40 OFFCURVE",
"456 40 CURVE SMOOTH",
"201 40 LINE",
"201 659 LINE",
"441 659 LINE SMOOTH",
"516 659 OFFCURVE",
"525 567 OFFCURVE",
"528 527 CURVE",
"555 527 LINE",
"555 700 LINE",
"16 700 LINE",
"16 673 LINE",
"44 673 LINE SMOOTH",
"83 673 OFFCURVE",
"103 662 OFFCURVE",
"103 637 CURVE SMOOTH",
"103 62 LINE SMOOTH",
"103 37 OFFCURVE",
"83 26 OFFCURVE",
"44 26 CURVE SMOOTH",
"16 26 LINE",
"16 0 LINE"
);
},
{
closed = 1;
nodes = (
"455 251 LINE",
"455 485 LINE",
"431 485 LINE",
"427 436 OFFCURVE",
"424 388 OFFCURVE",
"379 388 CURVE SMOOTH",
"162 388 LINE",
"162 348 LINE",
"379 348 LINE SMOOTH",
"424 348 OFFCURVE",
"427 300 OFFCURVE",
"431 251 CURVE"
);
},
{
closed = 1;
nodes = (
"432 776 OFFCURVE",
"474 832 OFFCURVE",
"478 907 CURVE",
"445 907 LINE",
"439 848 OFFCURVE",
"397 822 OFFCURVE",
"333 822 CURVE SMOOTH",
"269 822 OFFCURVE",
"226 848 OFFCURVE",
"219 907 CURVE",
"186 907 LINE",
"190 829 OFFCURVE",
"232 776 OFFCURVE",
"333 776 CURVE SMOOTH"
);
}
);
};
components = (
{
name = E;
},
{
name = breve;
transform = "{1, 0, 0, 1, 68, 230}";
}
);
layerId = "0B1DFD06-3317-40CA-B510-4969A0718C16";
width = 607;
}
);
note = Ebreve;
unicode = 0114;
},
{
glyphname = Ecaron;
lastChange = "2017-12-19 05:21:12 +0000";
layers = (
{
background = {
paths = (
{
closed = 1;
nodes = (
"554 0 LINE",
"571 179 LINE",
"544 179 LINE",
"538 124 OFFCURVE",
"520 40 OFFCURVE",
"456 40 CURVE SMOOTH",
"201 40 LINE",
"201 659 LINE",
"441 659 LINE SMOOTH",
"516 659 OFFCURVE",
"525 567 OFFCURVE",
"528 527 CURVE",
"555 527 LINE",
"555 700 LINE",
"16 700 LINE",
"16 673 LINE",
"44 673 LINE SMOOTH",
"83 673 OFFCURVE",
"103 662 OFFCURVE",
"103 637 CURVE SMOOTH",
"103 62 LINE SMOOTH",
"103 37 OFFCURVE",
"83 26 OFFCURVE",
"44 26 CURVE SMOOTH",
"16 26 LINE",
"16 0 LINE"
);
},
{
closed = 1;
nodes = (
"455 251 LINE",
"455 485 LINE",
"431 485 LINE",
"427 436 OFFCURVE",
"424 388 OFFCURVE",
"379 388 CURVE SMOOTH",
"162 388 LINE",
"162 348 LINE",
"379 348 LINE SMOOTH",
"424 348 OFFCURVE",
"427 300 OFFCURVE",
"431 251 CURVE"
);
},
{
closed = 1;
nodes = (
"357 782 LINE",
"481 911 LINE",
"462 932 LINE",
"354 847 LINE",
"346 840 OFFCURVE",
"337 836 OFFCURVE",
"331 836 CURVE SMOOTH",
"325 836 OFFCURVE",
"317 840 OFFCURVE",
"307 847 CURVE",
"199 932 LINE",
"180 911 LINE",
"304 782 LINE"
);
}
);
};
components = (
{
name = E;
},
{
name = caron;
transform = "{1, 0, 0, 1, 68, 230}";
}
);
layerId = "0B1DFD06-3317-40CA-B510-4969A0718C16";
width = 607;
}
);
note = Ecaron;
unicode = 011A;
},
{
glyphname = Ecircumflex;
lastChange = "2017-12-19 05:21:12 +0000";
layers = (
{
background = {
paths = (
{
closed = 1;
nodes = (
"554 0 LINE",
"571 179 LINE",
"544 179 LINE",
"538 124 OFFCURVE",
"520 40 OFFCURVE",
"456 40 CURVE SMOOTH",
"201 40 LINE",
"201 659 LINE",
"441 659 LINE SMOOTH",
"516 659 OFFCURVE",
"525 567 OFFCURVE",
"528 527 CURVE",
"555 527 LINE",
"555 700 LINE",
"16 700 LINE",
"16 673 LINE",
"44 673 LINE SMOOTH",
"83 673 OFFCURVE",
"103 662 OFFCURVE",
"103 637 CURVE SMOOTH",
"103 62 LINE SMOOTH",
"103 37 OFFCURVE",
"83 26 OFFCURVE",
"44 26 CURVE SMOOTH",
"16 26 LINE",
"16 0 LINE"
);
},
{
closed = 1;
nodes = (
"455 251 LINE",
"455 485 LINE",
"431 485 LINE",
"427 436 OFFCURVE",
"424 388 OFFCURVE",
"379 388 CURVE SMOOTH",
"162 388 LINE",
"162 348 LINE",
"379 348 LINE SMOOTH",
"424 348 OFFCURVE",
"427 300 OFFCURVE",
"431 251 CURVE"
);
},
{
closed = 1;
nodes = (
"304 868 LINE SMOOTH",
"312 874 OFFCURVE",
"322 879 OFFCURVE",
"328 879 CURVE SMOOTH",
"334 879 OFFCURVE",
"342 874 OFFCURVE",
"351 868 CURVE",
"459 782 LINE",
"478 803 LINE",
"354 932 LINE",
"301 932 LINE",
"177 803 LINE",
"196 782 LINE"
);
}
);
};
components = (
{
name = E;
},
{
name = circumflex;
transform = "{1, 0, 0, 1, 68, 230}";
}
);
layerId = "0B1DFD06-3317-40CA-B510-4969A0718C16";
width = 607;
}
);
note = Ecircumflex;
unicode = 00CA;
},
{
glyphname = Ecircumflexacute;
lastChange = "2017-12-19 05:21:12 +0000";
layers = (
{
background = {
paths = (
{
closed = 1;
nodes = (
"554 0 LINE",
"571 179 LINE",
"544 179 LINE",
"538 124 OFFCURVE",
"520 40 OFFCURVE",
"456 40 CURVE SMOOTH",
"201 40 LINE",
"201 659 LINE",
"441 659 LINE SMOOTH",
"516 659 OFFCURVE",
"525 567 OFFCURVE",
"528 527 CURVE",
"555 527 LINE",
"555 700 LINE",
"16 700 LINE",
"16 673 LINE",
"44 673 LINE SMOOTH",
"83 673 OFFCURVE",
"103 662 OFFCURVE",
"103 637 CURVE SMOOTH",
"103 62 LINE SMOOTH",
"103 37 OFFCURVE",
"83 26 OFFCURVE",
"44 26 CURVE SMOOTH",
"16 26 LINE",
"16 0 LINE"
);
},
{
closed = 1;
nodes = (
"455 251 LINE",
"455 485 LINE",
"431 485 LINE",
"427 436 OFFCURVE",
"424 388 OFFCURVE",
"379 388 CURVE SMOOTH",
"162 388 LINE",
"162 348 LINE",
"379 348 LINE SMOOTH",
"424 348 OFFCURVE",
"427 300 OFFCURVE",
"431 251 CURVE"
);
},
{
closed = 1;
nodes = (
"290 862 LINE SMOOTH",
"300 870 OFFCURVE",
"310 878 OFFCURVE",
"318 878 CURVE SMOOTH",
"324 878 OFFCURVE",
"332 873 OFFCURVE",
"341 867 CURVE",
"447 781 LINE",
"466 803 LINE",
"344 932 LINE",
"293 932 LINE",
"171 803 LINE",
"189 781 LINE"
);
},
{
closed = 1;
nodes = (
"555 960 LINE SMOOTH",
"578 972 OFFCURVE",
"591 988 OFFCURVE",
"591 1003 CURVE SMOOTH",
"591 1017 OFFCURVE",
"580 1034 OFFCURVE",
"557 1034 CURVE SMOOTH",
"538 1034 OFFCURVE",
"521 1018 OFFCURVE",
"511 1008 CURVE SMOOTH",
"415 915 LINE",
"433 893 LINE"
);
}
);
};
components = (
{
name = E;
},
{
name = circumflexacute;
transform = "{1, 0, 0, 1, 564, 230}";
}
);
layerId = "0B1DFD06-3317-40CA-B510-4969A0718C16";
width = 607;
}
);
note = Ecircumflexacute;
unicode = 1EBE;
},
{
glyphname = Ecircumflexdotbelow;
lastChange = "2017-12-19 05:21:12 +0000";
layers = (
{
background = {
paths = (
{
closed = 1;
nodes = (
"554 0 LINE",
"571 179 LINE",
"544 179 LINE",
"538 124 OFFCURVE",
"520 40 OFFCURVE",
"456 40 CURVE SMOOTH",
"201 40 LINE",
"201 659 LINE",
"441 659 LINE SMOOTH",
"516 659 OFFCURVE",
"525 567 OFFCURVE",
"528 527 CURVE",
"555 527 LINE",
"555 700 LINE",
"16 700 LINE",
"16 673 LINE",
"44 673 LINE SMOOTH",
"83 673 OFFCURVE",
"103 662 OFFCURVE",
"103 637 CURVE SMOOTH",
"103 62 LINE SMOOTH",
"103 37 OFFCURVE",
"83 26 OFFCURVE",
"44 26 CURVE SMOOTH",
"16 26 LINE",
"16 0 LINE"
);
},
{
closed = 1;
nodes = (
"350 -159 OFFCURVE",
"368 -140 OFFCURVE",
"368 -112 CURVE SMOOTH",
"368 -84 OFFCURVE",
"350 -64 OFFCURVE",
"322 -64 CURVE SMOOTH",
"294 -64 OFFCURVE",
"275 -84 OFFCURVE",
"275 -112 CURVE SMOOTH",
"275 -140 OFFCURVE",
"294 -159 OFFCURVE",
"322 -159 CURVE SMOOTH"
);
},
{
closed = 1;
nodes = (
"455 251 LINE",
"455 485 LINE",
"431 485 LINE",
"427 436 OFFCURVE",
"424 388 OFFCURVE",
"379 388 CURVE SMOOTH",
"162 388 LINE",
"162 348 LINE",
"379 348 LINE SMOOTH",
"424 348 OFFCURVE",
"427 300 OFFCURVE",
"431 251 CURVE"
);
},
{
closed = 1;
nodes = (
"294 868 LINE SMOOTH",
"302 874 OFFCURVE",
"312 879 OFFCURVE",
"318 879 CURVE SMOOTH",
"324 879 OFFCURVE",
"332 874 OFFCURVE",
"341 868 CURVE",
"449 782 LINE",
"468 803 LINE",
"344 932 LINE",
"291 932 LINE",
"167 803 LINE",
"186 782 LINE"
);
}
);
};
components = (
{
name = E;
},
{
name = dotbelowcomb;
transform = "{1, 0, 0, 1, 565, 0}";
},
{
name = circumflex;
transform = "{1, 0, 0, 1, 68, 230}";
}
);
layerId = "0B1DFD06-3317-40CA-B510-4969A0718C16";
width = 607;
}
);
note = Ecircumflexdotbelow;
unicode = 1EC6;
},
{
glyphname = Ecircumflexgrave;
lastChange = "2017-12-19 05:21:12 +0000";
layers = (
{
background = {
paths = (
{
closed = 1;
nodes = (
"554 0 LINE",
"571 179 LINE",
"544 179 LINE",
"538 124 OFFCURVE",
"520 40 OFFCURVE",
"456 40 CURVE SMOOTH",
"201 40 LINE",
"201 659 LINE",
"441 659 LINE SMOOTH",
"516 659 OFFCURVE",
"525 567 OFFCURVE",
"528 527 CURVE",
"555 527 LINE",
"555 700 LINE",
"16 700 LINE",
"16 673 LINE",
"44 673 LINE SMOOTH",
"83 673 OFFCURVE",
"103 662 OFFCURVE",
"103 637 CURVE SMOOTH",
"103 62 LINE SMOOTH",
"103 37 OFFCURVE",
"83 26 OFFCURVE",
"44 26 CURVE SMOOTH",
"16 26 LINE",
"16 0 LINE"
);
},
{
closed = 1;
nodes = (
"455 251 LINE",
"455 485 LINE",
"431 485 LINE",
"427 436 OFFCURVE",
"424 388 OFFCURVE",
"379 388 CURVE SMOOTH",
"162 388 LINE",
"162 348 LINE",
"379 348 LINE SMOOTH",
"424 348 OFFCURVE",
"427 300 OFFCURVE",
"431 251 CURVE"
);
},
{
closed = 1;
nodes = (
"227 915 LINE",
"132 1008 LINE SMOOTH",
"122 1018 OFFCURVE",
"105 1034 OFFCURVE",
"85 1034 CURVE SMOOTH",
"63 1034 OFFCURVE",
"52 1017 OFFCURVE",
"52 1003 CURVE SMOOTH",
"52 988 OFFCURVE",
"65 972 OFFCURVE",
"88 960 CURVE SMOOTH",
"210 893 LINE"
);
},
{
closed = 1;
nodes = (
"290 862 LINE SMOOTH",
"300 870 OFFCURVE",
"310 878 OFFCURVE",
"318 878 CURVE SMOOTH",
"324 878 OFFCURVE",
"332 873 OFFCURVE",
"341 867 CURVE",
"447 781 LINE",
"466 803 LINE",
"344 932 LINE",
"293 932 LINE",
"171 803 LINE",
"189 781 LINE"
);
}
);
};
components = (
{
name = E;
},
{
name = circumflexgrave;
transform = "{1, 0, 0, 1, 564, 230}";
}
);
layerId = "0B1DFD06-3317-40CA-B510-4969A0718C16";
width = 607;
}
);
note = Ecircumflexgrave;
unicode = 1EC0;
},
{
glyphname = Ecircumflexhookabove;
lastChange = "2017-12-19 05:21:12 +0000";
layers = (
{
background = {
paths = (
{
closed = 1;
nodes = (
"554 0 LINE",
"571 179 LINE",
"544 179 LINE",
"538 124 OFFCURVE",
"520 40 OFFCURVE",
"456 40 CURVE SMOOTH",
"201 40 LINE",
"201 659 LINE",
"441 659 LINE SMOOTH",
"516 659 OFFCURVE",
"525 567 OFFCURVE",
"528 527 CURVE",
"555 527 LINE",
"555 700 LINE",
"16 700 LINE",
"16 673 LINE",
"44 673 LINE SMOOTH",
"83 673 OFFCURVE",
"103 662 OFFCURVE",
"103 637 CURVE SMOOTH",
"103 62 LINE SMOOTH",
"103 37 OFFCURVE",
"83 26 OFFCURVE",
"44 26 CURVE SMOOTH",
"16 26 LINE",
"16 0 LINE"
);
},
{
closed = 1;
nodes = (
"455 251 LINE",
"455 485 LINE",
"431 485 LINE",
"427 436 OFFCURVE",
"424 388 OFFCURVE",
"379 388 CURVE SMOOTH",
"162 388 LINE",
"162 348 LINE",
"379 348 LINE SMOOTH",
"424 348 OFFCURVE",
"427 300 OFFCURVE",
"431 251 CURVE"
);
},
{
closed = 1;
nodes = (
"286 858 LINE",
"297 868 OFFCURVE",
"309 878 OFFCURVE",
"318 878 CURVE SMOOTH",
"324 878 OFFCURVE",
"332 873 OFFCURVE",
"341 867 CURVE",
"447 781 LINE",
"466 803 LINE",
"344 932 LINE",
"293 932 LINE",
"171 803 LINE",
"189 781 LINE"
);
},
{
closed = 1;
nodes = (
"493 898 LINE",
"474 905 OFFCURVE",
"464 912 OFFCURVE",
"464 926 CURVE SMOOTH",
"464 954 OFFCURVE",
"544 965 OFFCURVE",
"544 1010 CURVE SMOOTH",
"544 1047 OFFCURVE",
"502 1063 OFFCURVE",
"460 1063 CURVE SMOOTH",
"429 1063 OFFCURVE",
"384 1053 OFFCURVE",
"384 1022 CURVE SMOOTH",
"384 1010 OFFCURVE",
"395 1001 OFFCURVE",
"405 1001 CURVE SMOOTH",
"434 1001 OFFCURVE",
"421 1040 OFFCURVE",
"464 1040 CURVE SMOOTH",
"483 1040 OFFCURVE",
"494 1028 OFFCURVE",
"494 1013 CURVE SMOOTH",
"494 973 OFFCURVE",
"421 965 OFFCURVE",
"421 925 CURVE SMOOTH",
"421 901 OFFCURVE",
"437 880 OFFCURVE",
"484 880 CURVE"
);
}
);
};
components = (
{
name = E;
},
{
name = circumflexhookabove;
transform = "{1, 0, 0, 1, 564, 230}";
}
);
layerId = "0B1DFD06-3317-40CA-B510-4969A0718C16";
width = 607;
}
);
note = Ecircumflexhookabove;
unicode = 1EC2;
},
{
glyphname = Ecircumflextilde;
lastChange = "2017-12-19 05:21:12 +0000";
layers = (
{
background = {
paths = (
{
closed = 1;
nodes = (
"554 0 LINE",
"571 179 LINE",
"544 179 LINE",
"538 124 OFFCURVE",
"520 40 OFFCURVE",
"456 40 CURVE SMOOTH",
"201 40 LINE",
"201 659 LINE",
"441 659 LINE SMOOTH",
"516 659 OFFCURVE",
"525 567 OFFCURVE",
"528 527 CURVE",
"555 527 LINE",
"555 700 LINE",
"16 700 LINE",
"16 673 LINE",
"44 673 LINE SMOOTH",
"83 673 OFFCURVE",
"103 662 OFFCURVE",
"103 637 CURVE SMOOTH",
"103 62 LINE SMOOTH",
"103 37 OFFCURVE",
"83 26 OFFCURVE",
"44 26 CURVE SMOOTH",
"16 26 LINE",
"16 0 LINE"
);
},
{
closed = 1;
nodes = (
"455 251 LINE",
"455 485 LINE",
"431 485 LINE",
"427 436 OFFCURVE",
"424 388 OFFCURVE",
"379 388 CURVE SMOOTH",
"162 388 LINE",
"162 348 LINE",
"379 348 LINE SMOOTH",
"424 348 OFFCURVE",
"427 300 OFFCURVE",
"431 251 CURVE"
);
},
{
closed = 1;
nodes = (
"290 862 LINE SMOOTH",
"300 870 OFFCURVE",
"310 878 OFFCURVE",
"318 878 CURVE SMOOTH",
"324 878 OFFCURVE",
"332 873 OFFCURVE",
"341 867 CURVE",
"447 781 LINE",
"466 803 LINE",
"344 932 LINE",
"293 932 LINE",
"171 803 LINE",
"189 781 LINE"
);
},
{
closed = 1;
nodes = (
"193 997 OFFCURVE",
"211 1018 OFFCURVE",
"242 1018 CURVE SMOOTH",
"291 1018 OFFCURVE",
"338 964 OFFCURVE",
"387 964 CURVE SMOOTH",
"440 964 OFFCURVE",
"469 1012 OFFCURVE",
"481 1063 CURVE",
"460 1075 LINE",
"447 1035 OFFCURVE",
"431 1012 OFFCURVE",
"398 1012 CURVE SMOOTH",
"351 1012 OFFCURVE",
"302 1065 OFFCURVE",
"253 1065 CURVE SMOOTH",
"202 1065 OFFCURVE",
"170 1021 OFFCURVE",
"160 970 CURVE",
"180 958 LINE"
);
}
);
};
components = (
{
name = E;
},
{
name = circumflextilde;
transform = "{1, 0, 0, 1, 564, 230}";
}
);
layerId = "0B1DFD06-3317-40CA-B510-4969A0718C16";
width = 607;
}
);
note = Ecircumflextilde;
unicode = 1EC4;
},
{
glyphname = Edieresis;
lastChange = "2017-12-19 05:21:12 +0000";
layers = (
{
background = {
paths = (
{
closed = 1;
nodes = (
"554 0 LINE",
"571 179 LINE",
"544 179 LINE",
"538 124 OFFCURVE",
"520 40 OFFCURVE",
"456 40 CURVE SMOOTH",
"201 40 LINE",
"201 659 LINE",
"441 659 LINE SMOOTH",
"516 659 OFFCURVE",
"525 567 OFFCURVE",
"528 527 CURVE",
"555 527 LINE",
"555 700 LINE",
"16 700 LINE",
"16 673 LINE",
"44 673 LINE SMOOTH",
"83 673 OFFCURVE",
"103 662 OFFCURVE",
"103 637 CURVE SMOOTH",
"103 62 LINE SMOOTH",
"103 37 OFFCURVE",
"83 26 OFFCURVE",
"44 26 CURVE SMOOTH",
"16 26 LINE",
"16 0 LINE"
);
},
{
closed = 1;
nodes = (
"455 251 LINE",
"455 485 LINE",
"431 485 LINE",
"427 436 OFFCURVE",
"424 388 OFFCURVE",
"379 388 CURVE SMOOTH",
"162 388 LINE",
"162 348 LINE",
"379 348 LINE SMOOTH",
"424 348 OFFCURVE",
"427 300 OFFCURVE",
"431 251 CURVE"
);
},
{
closed = 1;
nodes = (
"254 781 OFFCURVE",
"272 800 OFFCURVE",
"272 827 CURVE SMOOTH",
"272 855 OFFCURVE",
"254 875 OFFCURVE",
"225 875 CURVE SMOOTH",
"197 875 OFFCURVE",
"179 855 OFFCURVE",
"179 827 CURVE SMOOTH",
"179 800 OFFCURVE",
"197 781 OFFCURVE",
"225 781 CURVE SMOOTH"
);
},
{
closed = 1;
nodes = (
"470 781 OFFCURVE",
"488 800 OFFCURVE",
"488 827 CURVE SMOOTH",
"488 855 OFFCURVE",
"470 875 OFFCURVE",
"441 875 CURVE SMOOTH",
"412 875 OFFCURVE",
"394 855 OFFCURVE",
"394 827 CURVE SMOOTH",
"394 800 OFFCURVE",
"412 781 OFFCURVE",
"441 781 CURVE SMOOTH"
);
}
);
};
components = (
{
name = E;
},
{
name = dieresis;
transform = "{1, 0, 0, 1, 68, 230}";
}
);
layerId = "0B1DFD06-3317-40CA-B510-4969A0718C16";
width = 607;
}
);
note = Edieresis;
unicode = 00CB;
},
{
glyphname = Edotaccent;
lastChange = "2017-12-19 05:21:12 +0000";
layers = (
{
background = {
paths = (
{
closed = 1;
nodes = (
"554 0 LINE",
"571 179 LINE",
"544 179 LINE",
"538 124 OFFCURVE",
"520 40 OFFCURVE",
"456 40 CURVE SMOOTH",
"201 40 LINE",
"201 659 LINE",
"441 659 LINE SMOOTH",
"516 659 OFFCURVE",
"525 567 OFFCURVE",
"528 527 CURVE",
"555 527 LINE",
"555 700 LINE",
"16 700 LINE",
"16 673 LINE",
"44 673 LINE SMOOTH",
"83 673 OFFCURVE",
"103 662 OFFCURVE",
"103 637 CURVE SMOOTH",
"103 62 LINE SMOOTH",
"103 37 OFFCURVE",
"83 26 OFFCURVE",
"44 26 CURVE SMOOTH",
"16 26 LINE",
"16 0 LINE"
);
},
{
closed = 1;
nodes = (
"455 251 LINE",
"455 485 LINE",
"431 485 LINE",
"427 436 OFFCURVE",
"424 388 OFFCURVE",
"379 388 CURVE SMOOTH",
"162 388 LINE",
"162 348 LINE",
"379 348 LINE SMOOTH",
"424 348 OFFCURVE",
"427 300 OFFCURVE",
"431 251 CURVE"
);
},
{
closed = 1;
nodes = (
"362 765 OFFCURVE",
"380 784 OFFCURVE",
"380 811 CURVE SMOOTH",
"380 839 OFFCURVE",
"362 858 OFFCURVE",
"334 858 CURVE SMOOTH",
"305 858 OFFCURVE",
"287 839 OFFCURVE",
"287 811 CURVE SMOOTH",
"287 784 OFFCURVE",
"305 765 OFFCURVE",
"334 765 CURVE SMOOTH"
);
}
);
};
components = (
{
name = E;
},
{
name = dotaccent;
transform = "{1, 0, 0, 1, 68, 230}";
}
);
layerId = "0B1DFD06-3317-40CA-B510-4969A0718C16";
width = 607;
}
);
note = Edotaccent;
unicode = 0116;
},
{
glyphname = Edotbelow;
lastChange = "2017-12-19 05:21:12 +0000";
layers = (
{
background = {
paths = (
{
closed = 1;
nodes = (
"554 0 LINE",
"571 179 LINE",
"544 179 LINE",
"538 124 OFFCURVE",
"520 40 OFFCURVE",
"456 40 CURVE SMOOTH",
"201 40 LINE",
"201 659 LINE",
"441 659 LINE SMOOTH",
"516 659 OFFCURVE",
"525 567 OFFCURVE",
"528 527 CURVE",
"555 527 LINE",
"555 700 LINE",
"16 700 LINE",
"16 673 LINE",
"44 673 LINE SMOOTH",
"83 673 OFFCURVE",
"103 662 OFFCURVE",
"103 637 CURVE SMOOTH",
"103 62 LINE SMOOTH",
"103 37 OFFCURVE",
"83 26 OFFCURVE",
"44 26 CURVE SMOOTH",
"16 26 LINE",
"16 0 LINE"
);
},
{
closed = 1;
nodes = (
"343 -159 OFFCURVE",
"361 -140 OFFCURVE",
"361 -112 CURVE SMOOTH",
"361 -84 OFFCURVE",
"343 -64 OFFCURVE",
"315 -64 CURVE SMOOTH",
"287 -64 OFFCURVE",
"268 -84 OFFCURVE",
"268 -112 CURVE SMOOTH",
"268 -140 OFFCURVE",
"287 -159 OFFCURVE",
"315 -159 CURVE SMOOTH"
);
},
{
closed = 1;
nodes = (
"455 251 LINE",
"455 485 LINE",
"431 485 LINE",
"427 436 OFFCURVE",
"424 388 OFFCURVE",
"379 388 CURVE SMOOTH",
"162 388 LINE",
"162 348 LINE",
"379 348 LINE SMOOTH",
"424 348 OFFCURVE",
"427 300 OFFCURVE",
"431 251 CURVE"
);
}
);
};
components = (
{
name = E;
},
{
name = dotbelowcomb;
transform = "{1, 0, 0, 1, 565, 0}";
}
);
layerId = "0B1DFD06-3317-40CA-B510-4969A0718C16";
width = 607;
}
);
note = Edotbelow;
unicode = 1EB8;
},
{
glyphname = Egrave;
lastChange = "2017-12-19 05:21:12 +0000";
layers = (
{
background = {
paths = (
{
closed = 1;
nodes = (
"554 0 LINE",
"571 179 LINE",
"544 179 LINE",
"538 124 OFFCURVE",
"520 40 OFFCURVE",
"456 40 CURVE SMOOTH",
"201 40 LINE",
"201 659 LINE",
"441 659 LINE SMOOTH",
"516 659 OFFCURVE",
"525 567 OFFCURVE",
"528 527 CURVE",
"555 527 LINE",
"555 700 LINE",
"16 700 LINE",
"16 673 LINE",
"44 673 LINE SMOOTH",
"83 673 OFFCURVE",
"103 662 OFFCURVE",
"103 637 CURVE SMOOTH",
"103 62 LINE SMOOTH",
"103 37 OFFCURVE",
"83 26 OFFCURVE",
"44 26 CURVE SMOOTH",
"16 26 LINE",
"16 0 LINE"
);
},
{
closed = 1;
nodes = (
"455 251 LINE",
"455 485 LINE",
"431 485 LINE",
"427 436 OFFCURVE",
"424 388 OFFCURVE",
"379 388 CURVE SMOOTH",
"162 388 LINE",
"162 348 LINE",
"379 348 LINE SMOOTH",
"424 348 OFFCURVE",
"427 300 OFFCURVE",
"431 251 CURVE"
);
},
{
closed = 1;
nodes = (
"425 807 LINE",
"310 913 LINE",
"301 922 OFFCURVE",
"285 937 OFFCURVE",
"265 937 CURVE SMOOTH",
"245 937 OFFCURVE",
"233 924 OFFCURVE",
"233 908 CURVE SMOOTH",
"233 890 OFFCURVE",
"245 876 OFFCURVE",
"264 865 CURVE SMOOTH",
"407 782 LINE"
);
}
);
};
components = (
{
name = E;
},
{
name = grave;
transform = "{1, 0, 0, 1, 68, 230}";
}
);
layerId = "0B1DFD06-3317-40CA-B510-4969A0718C16";
width = 607;
}
);
note = Egrave;
unicode = 00C8;
},
{
glyphname = Ehookabove;
lastChange = "2017-12-19 05:21:12 +0000";
layers = (
{
background = {
paths = (
{
closed = 1;
nodes = (
"554 0 LINE",
"571 179 LINE",
"544 179 LINE",
"538 124 OFFCURVE",
"520 40 OFFCURVE",
"456 40 CURVE SMOOTH",
"201 40 LINE",
"201 659 LINE",
"441 659 LINE SMOOTH",
"516 659 OFFCURVE",
"525 567 OFFCURVE",
"528 527 CURVE",
"555 527 LINE",
"555 700 LINE",
"16 700 LINE",
"16 673 LINE",
"44 673 LINE SMOOTH",
"83 673 OFFCURVE",
"103 662 OFFCURVE",
"103 637 CURVE SMOOTH",
"103 62 LINE SMOOTH",
"103 37 OFFCURVE",
"83 26 OFFCURVE",
"44 26 CURVE SMOOTH",
"16 26 LINE",
"16 0 LINE"
);
},
{
closed = 1;
nodes = (
"455 251 LINE",
"455 485 LINE",
"431 485 LINE",
"427 436 OFFCURVE",
"424 388 OFFCURVE",
"379 388 CURVE SMOOTH",
"162 388 LINE",
"162 348 LINE",
"379 348 LINE SMOOTH",
"424 348 OFFCURVE",
"427 300 OFFCURVE",
"431 251 CURVE"
);
},
{
closed = 1;
nodes = (
"367 798 LINE",
"348 805 OFFCURVE",
"336 811 OFFCURVE",
"336 828 CURVE SMOOTH",
"336 861 OFFCURVE",
"425 876 OFFCURVE",
"425 927 CURVE SMOOTH",
"425 969 OFFCURVE",
"389 991 OFFCURVE",
"336 991 CURVE SMOOTH",
"289 991 OFFCURVE",
"248 974 OFFCURVE",
"248 940 CURVE SMOOTH",
"248 923 OFFCURVE",
"256 915 OFFCURVE",
"271 915 CURVE SMOOTH",
"294 915 OFFCURVE",
"296 934 OFFCURVE",
"299 942 CURVE SMOOTH",
"304 956 OFFCURVE",
"321 962 OFFCURVE",
"337 962 CURVE SMOOTH",
"358 962 OFFCURVE",
"371 947 OFFCURVE",
"371 930 CURVE SMOOTH",
"371 885 OFFCURVE",
"289 874 OFFCURVE",
"289 828 CURVE SMOOTH",
"289 801 OFFCURVE",
"307 778 OFFCURVE",
"358 778 CURVE"
);
}
);
};
components = (
{
name = E;
},
{
name = hookabovecomb;
transform = "{1, 0, 0, 1, 565, 230}";
}
);
layerId = "0B1DFD06-3317-40CA-B510-4969A0718C16";
width = 607;
}
);
note = Ehookabove;
unicode = 1EBA;
},
{
glyphname = Emacron;
lastChange = "2017-12-19 05:21:12 +0000";
layers = (
{
background = {
paths = (
{
closed = 1;
nodes = (
"554 0 LINE",
"571 179 LINE",
"544 179 LINE",
"538 124 OFFCURVE",
"520 40 OFFCURVE",
"456 40 CURVE SMOOTH",
"201 40 LINE",
"201 659 LINE",
"441 659 LINE SMOOTH",
"516 659 OFFCURVE",
"525 567 OFFCURVE",
"528 527 CURVE",
"555 527 LINE",
"555 700 LINE",
"16 700 LINE",
"16 673 LINE",
"44 673 LINE SMOOTH",
"83 673 OFFCURVE",
"103 662 OFFCURVE",
"103 637 CURVE SMOOTH",
"103 62 LINE SMOOTH",
"103 37 OFFCURVE",
"83 26 OFFCURVE",
"44 26 CURVE SMOOTH",
"16 26 LINE",
"16 0 LINE"
);
},
{
closed = 1;
nodes = (
"455 251 LINE",
"455 485 LINE",
"431 485 LINE",
"427 436 OFFCURVE",
"424 388 OFFCURVE",
"379 388 CURVE SMOOTH",
"162 388 LINE",
"162 348 LINE",
"379 348 LINE SMOOTH",
"424 348 OFFCURVE",
"427 300 OFFCURVE",
"431 251 CURVE"
);
},
{
closed = 1;
nodes = (
"495 782 LINE",
"495 824 LINE",
"162 824 LINE",
"162 782 LINE"
);
}
);
};
components = (
{
name = E;
},
{
name = macron;
transform = "{1, 0, 0, 1, 68, 230}";
}
);
layerId = "0B1DFD06-3317-40CA-B510-4969A0718C16";
width = 607;
}
);
note = Emacron;
unicode = 0112;
},
{
glyphname = Eogonek;
lastChange = "2017-12-19 05:21:12 +0000";
layers = (
{
background = {
paths = (
{
closed = 1;
nodes = (
"554 0 LINE",
"571 179 LINE",
"544 179 LINE",
"538 124 OFFCURVE",
"520 40 OFFCURVE",
"456 40 CURVE SMOOTH",
"201 40 LINE",
"201 659 LINE",
"441 659 LINE SMOOTH",
"516 659 OFFCURVE",
"525 567 OFFCURVE",
"528 527 CURVE",
"555 527 LINE",
"555 700 LINE",
"16 700 LINE",
"16 673 LINE",
"44 673 LINE SMOOTH",
"83 673 OFFCURVE",
"103 662 OFFCURVE",
"103 637 CURVE SMOOTH",
"103 62 LINE SMOOTH",
"103 37 OFFCURVE",
"83 26 OFFCURVE",
"44 26 CURVE SMOOTH",
"16 26 LINE",
"16 0 LINE"
);
},
{
closed = 1;
nodes = (
"496 -196 OFFCURVE",
"524 -189 OFFCURVE",
"549 -172 CURVE",
"543 -152 LINE",
"527 -158 OFFCURVE",
"510 -162 OFFCURVE",
"497 -162 CURVE SMOOTH",
"464 -162 OFFCURVE",
"437 -146 OFFCURVE",
"437 -106 CURVE SMOOTH",
"437 -66 OFFCURVE",
"464 -26 OFFCURVE",
"510 4 CURVE",
"469 4 LINE",
"416 -22 OFFCURVE",
"376 -64 OFFCURVE",
"376 -114 CURVE SMOOTH",
"376 -147 OFFCURVE",
"395 -196 OFFCURVE",
"470 -196 CURVE SMOOTH"
);
},
{
closed = 1;
nodes = (
"455 251 LINE",
"455 485 LINE",
"431 485 LINE",
"427 436 OFFCURVE",
"424 388 OFFCURVE",
"379 388 CURVE SMOOTH",
"162 388 LINE",
"162 348 LINE",
"379 348 LINE SMOOTH",
"424 348 OFFCURVE",
"427 300 OFFCURVE",
"431 251 CURVE"
);
}
);
};
components = (
{
name = E;
},
{
name = ogonek;
transform = "{1, 0, 0, 1, 256, 0}";
}
);
layerId = "0B1DFD06-3317-40CA-B510-4969A0718C16";
width = 607;
}
);
note = Eogonek;
unicode = 0118;
},
{
glyphname = Etilde;
lastChange = "2017-12-19 05:21:12 +0000";
layers = (
{
background = {
paths = (
{
closed = 1;
nodes = (
"554 0 LINE",
"571 179 LINE",
"544 179 LINE",
"538 124 OFFCURVE",
"520 40 OFFCURVE",
"456 40 CURVE SMOOTH",
"201 40 LINE",
"201 659 LINE",
"441 659 LINE SMOOTH",
"516 659 OFFCURVE",
"525 567 OFFCURVE",
"528 527 CURVE",
"555 527 LINE",
"555 700 LINE",
"16 700 LINE",
"16 673 LINE",
"44 673 LINE SMOOTH",
"83 673 OFFCURVE",
"103 662 OFFCURVE",
"103 637 CURVE SMOOTH",
"103 62 LINE SMOOTH",
"103 37 OFFCURVE",
"83 26 OFFCURVE",
"44 26 CURVE SMOOTH",
"16 26 LINE",
"16 0 LINE"
);
},
{
closed = 1;
nodes = (
"455 251 LINE",
"455 485 LINE",
"431 485 LINE",
"427 436 OFFCURVE",
"424 388 OFFCURVE",
"379 388 CURVE SMOOTH",
"162 388 LINE",
"162 348 LINE",
"379 348 LINE SMOOTH",
"424 348 OFFCURVE",
"427 300 OFFCURVE",
"431 251 CURVE"
);
},
{
closed = 1;
nodes = (
"190 817 OFFCURVE",
"208 838 OFFCURVE",
"241 838 CURVE SMOOTH",
"292 838 OFFCURVE",
"341 784 OFFCURVE",
"392 784 CURVE SMOOTH",
"450 784 OFFCURVE",
"480 832 OFFCURVE",
"492 884 CURVE",
"471 895 LINE",
"455 855 OFFCURVE",
"439 833 OFFCURVE",
"405 833 CURVE SMOOTH",
"356 833 OFFCURVE",
"304 886 OFFCURVE",
"253 886 CURVE SMOOTH",
"199 886 OFFCURVE",
"166 842 OFFCURVE",
"154 790 CURVE",
"176 779 LINE"
);
}
);
};
components = (
{
name = E;
},
{
name = tilde;
transform = "{1, 0, 0, 1, 68, 230}";
}
);
layerId = "0B1DFD06-3317-40CA-B510-4969A0718C16";
width = 607;
}
);
note = Etilde;
unicode = 1EBC;
},
{
glyphname = Hbar;
lastChange = "2017-12-19 05:21:12 +0000";
layers = (
{
components = (
{
name = H;
}
);
layerId = "0B1DFD06-3317-40CA-B510-4969A0718C16";
paths = (
{
closed = 1;
nodes = (
"719 504 LINE",
"719 544 LINE",
"43 544 LINE",
"43 504 LINE"
);
}
);
width = 773;
}
);
note = Hbar;
unicode = 0126;
},
{
color = 0;
glyphname = IJ;
lastChange = "2017-12-19 05:22:42 +0000";
layers = (
{
layerId = "0B1DFD06-3317-40CA-B510-4969A0718C16";
paths = (
{
closed = 1;
nodes = (
"472 -114 OFFCURVE",
"561 -45 OFFCURVE",
"561 89 CURVE SMOOTH",
"561 637 LINE SMOOTH",
"561 662 OFFCURVE",
"581 673 OFFCURVE",
"619 673 CURVE SMOOTH",
"649 673 LINE",
"649 700 LINE",
"376 700 LINE",
"376 673 LINE",
"405 673 LINE SMOOTH",
"444 673 OFFCURVE",
"463 662 OFFCURVE",
"463 637 CURVE SMOOTH",
"463 90 LINE SMOOTH",
"463 -8 OFFCURVE",
"424 -75 OFFCURVE",
"339 -93 CURVE",
"343 -114 LINE"
);
},
{
closed = 1;
nodes = (
"298 0 LINE",
"298 26 LINE",
"270 26 LINE SMOOTH",
"231 26 OFFCURVE",
"211 37 OFFCURVE",
"211 62 CURVE SMOOTH",
"211 637 LINE SMOOTH",
"211 662 OFFCURVE",
"231 673 OFFCURVE",
"270 673 CURVE SMOOTH",
"298 673 LINE",
"298 700 LINE",
"26 700 LINE",
"26 673 LINE",
"55 673 LINE SMOOTH",
"93 673 OFFCURVE",
"113 662 OFFCURVE",
"113 637 CURVE SMOOTH",
"113 62 LINE SMOOTH",
"113 37 OFFCURVE",
"93 26 OFFCURVE",
"55 26 CURVE SMOOTH",
"26 26 LINE",
"26 0 LINE"
);
}
);
width = 675;
}
);
note = IJ;
rightKerningGroup = J;
unicode = 0132;
},
{
glyphname = Lslash;
lastChange = "2017-12-19 05:22:51 +0000";
layers = (
{
layerId = "0B1DFD06-3317-40CA-B510-4969A0718C16";
paths = (
{
closed = 1;
nodes = (
"369 458 LINE",
"369 527 LINE",
"181 452 LINE",
"181 791 LINE",
"109 791 LINE",
"109 423 LINE",
"17 386 LINE",
"17 317 LINE",
"109 354 LINE",
"109 0 LINE",
"534 0 LINE",
"534 59 LINE",
"181 59 LINE",
"181 384 LINE"
);
}
);
width = 547;
}
);
note = Lslash;
unicode = 0141;
},
{
glyphname = Nacute;
lastChange = "2017-12-19 05:21:12 +0000";
layers = (
{
background = {
paths = (
{
closed = 1;
nodes = (
"247 0 LINE",
"247 26 LINE",
"217 26 LINE SMOOTH",
"179 26 OFFCURVE",
"159 37 OFFCURVE",
"159 62 CURVE SMOOTH",
"159 642 LINE",
"587 0 LINE",
"645 0 LINE",
"645 637 LINE SMOOTH",
"645 662 OFFCURVE",
"665 673 OFFCURVE",
"703 673 CURVE SMOOTH",
"733 673 LINE",
"733 700 LINE",
"508 700 LINE",
"508 673 LINE",
"537 673 LINE SMOOTH",
"576 673 OFFCURVE",
"595 662 OFFCURVE",
"595 637 CURVE SMOOTH",
"595 126 LINE",
"217 700 LINE",
"22 700 LINE",
"22 673 LINE",
"51 673 LINE SMOOTH",
"90 673 OFFCURVE",
"109 662 OFFCURVE",
"109 637 CURVE SMOOTH",
"109 62 LINE SMOOTH",
"109 37 OFFCURVE",
"90 26 OFFCURVE",
"51 26 CURVE SMOOTH",
"22 26 LINE",
"22 0 LINE"
);
},
{
closed = 1;
nodes = (
"458 865 LINE SMOOTH",
"480 877 OFFCURVE",
"492 890 OFFCURVE",
"492 907 CURVE SMOOTH",
"492 922 OFFCURVE",
"480 937 OFFCURVE",
"458 937 CURVE SMOOTH",
"437 937 OFFCURVE",
"422 921 OFFCURVE",
"414 914 CURVE SMOOTH",
"299 807 LINE",
"316 782 LINE"
);
}
);
};
components = (
{
name = N;
},
{
name = acute;
transform = "{1, 0, 0, 1, 120, 230}";
}
);
layerId = "0B1DFD06-3317-40CA-B510-4969A0718C16";
width = 755;
}
);
note = Nacute;
unicode = 0143;
},
{
glyphname = Ncaron;
lastChange = "2017-12-19 05:21:12 +0000";
layers = (
{
background = {
paths = (
{
closed = 1;
nodes = (
"247 0 LINE",
"247 26 LINE",
"217 26 LINE SMOOTH",
"179 26 OFFCURVE",
"159 37 OFFCURVE",
"159 62 CURVE SMOOTH",
"159 642 LINE",
"587 0 LINE",
"645 0 LINE",
"645 637 LINE SMOOTH",
"645 662 OFFCURVE",
"665 673 OFFCURVE",
"703 673 CURVE SMOOTH",
"733 673 LINE",
"733 700 LINE",
"508 700 LINE",
"508 673 LINE",
"537 673 LINE SMOOTH",
"576 673 OFFCURVE",
"595 662 OFFCURVE",
"595 637 CURVE SMOOTH",
"595 126 LINE",
"217 700 LINE",
"22 700 LINE",
"22 673 LINE",
"51 673 LINE SMOOTH",
"90 673 OFFCURVE",
"109 662 OFFCURVE",
"109 637 CURVE SMOOTH",
"109 62 LINE SMOOTH",
"109 37 OFFCURVE",
"90 26 OFFCURVE",
"51 26 CURVE SMOOTH",
"22 26 LINE",
"22 0 LINE"
);
},
{
closed = 1;
nodes = (
"403 782 LINE",
"527 911 LINE",
"508 932 LINE",
"400 847 LINE",
"392 840 OFFCURVE",
"383 836 OFFCURVE",
"377 836 CURVE SMOOTH",
"371 836 OFFCURVE",
"363 840 OFFCURVE",
"353 847 CURVE",
"245 932 LINE",
"226 911 LINE",
"350 782 LINE"
);
}
);
};
components = (
{
name = N;
},
{
name = caron;
transform = "{1, 0, 0, 1, 132, 230}";
}
);
layerId = "0B1DFD06-3317-40CA-B510-4969A0718C16";
width = 755;
}
);
note = Ncaron;
unicode = 0147;
},
{
glyphname = Ncommaaccent;
lastChange = "2017-12-19 05:21:12 +0000";
layers = (
{
background = {
paths = (
{
closed = 1;
nodes = (
"247 0 LINE",
"247 26 LINE",
"217 26 LINE SMOOTH",
"179 26 OFFCURVE",
"159 37 OFFCURVE",
"159 62 CURVE SMOOTH",
"159 642 LINE",
"587 0 LINE",
"645 0 LINE",
"645 637 LINE SMOOTH",
"645 662 OFFCURVE",
"665 673 OFFCURVE",
"703 673 CURVE SMOOTH",
"733 673 LINE",
"733 700 LINE",
"508 700 LINE",
"508 673 LINE",
"537 673 LINE SMOOTH",
"576 673 OFFCURVE",
"595 662 OFFCURVE",
"595 637 CURVE SMOOTH",
"595 126 LINE",
"217 700 LINE",
"22 700 LINE",
"22 673 LINE",
"51 673 LINE SMOOTH",
"90 673 OFFCURVE",
"109 662 OFFCURVE",
"109 637 CURVE SMOOTH",
"109 62 LINE SMOOTH",
"109 37 OFFCURVE",
"90 26 OFFCURVE",
"51 26 CURVE SMOOTH",
"22 26 LINE",
"22 0 LINE"
);
},
{
closed = 1;
nodes = (
"369 -258 OFFCURVE",
"413 -198 OFFCURVE",
"413 -135 CURVE SMOOTH",
"413 -87 OFFCURVE",
"389 -67 OFFCURVE",
"360 -67 CURVE SMOOTH",
"331 -67 OFFCURVE",
"314 -87 OFFCURVE",
"314 -111 CURVE SMOOTH",
"314 -145 OFFCURVE",
"349 -152 OFFCURVE",
"349 -187 CURVE SMOOTH",
"349 -223 OFFCURVE",
"323 -256 OFFCURVE",
"296 -282 CURVE",
"313 -299 LINE"
);
}
);
};
components = (
{
name = N;
},
{
name = commaaccentcomb;
}
);
layerId = "0B1DFD06-3317-40CA-B510-4969A0718C16";
width = 707;
}
);
note = Ncommaaccent;
unicode = 0145;
},
{
glyphname = Ndotaccent;
lastChange = "2017-12-19 05:21:12 +0000";
layers = (
{
background = {
paths = (
{
closed = 1;
nodes = (
"247 0 LINE",
"247 26 LINE",
"217 26 LINE SMOOTH",
"179 26 OFFCURVE",
"159 37 OFFCURVE",
"159 62 CURVE SMOOTH",
"159 642 LINE",
"587 0 LINE",
"645 0 LINE",
"645 637 LINE SMOOTH",
"645 662 OFFCURVE",
"665 673 OFFCURVE",
"703 673 CURVE SMOOTH",
"733 673 LINE",
"733 700 LINE",
"508 700 LINE",
"508 673 LINE",
"537 673 LINE SMOOTH",
"576 673 OFFCURVE",
"595 662 OFFCURVE",
"595 637 CURVE SMOOTH",
"595 126 LINE",
"217 700 LINE",
"22 700 LINE",
"22 673 LINE",
"51 673 LINE SMOOTH",
"90 673 OFFCURVE",
"109 662 OFFCURVE",
"109 637 CURVE SMOOTH",
"109 62 LINE SMOOTH",
"109 37 OFFCURVE",
"90 26 OFFCURVE",
"51 26 CURVE SMOOTH",
"22 26 LINE",
"22 0 LINE"
);
},
{
closed = 1;
nodes = (
"405 765 OFFCURVE",
"423 784 OFFCURVE",
"423 811 CURVE SMOOTH",
"423 839 OFFCURVE",
"405 858 OFFCURVE",
"377 858 CURVE SMOOTH",
"348 858 OFFCURVE",
"330 839 OFFCURVE",
"330 811 CURVE SMOOTH",
"330 784 OFFCURVE",
"348 765 OFFCURVE",
"377 765 CURVE SMOOTH"
);
}
);
};
components = (
{
name = N;
},
{
name = dotaccent;
transform = "{1, 0, 0, 1, 132, 230}";
}
);
layerId = "0B1DFD06-3317-40CA-B510-4969A0718C16";
width = 755;
}
);
note = Ndotaccent;
unicode = 1E44;
},
{
glyphname = Ndotbelow;
lastChange = "2017-12-19 05:21:12 +0000";
layers = (
{
background = {
paths = (
{
closed = 1;
nodes = (
"247 0 LINE",
"247 26 LINE",
"217 26 LINE SMOOTH",
"179 26 OFFCURVE",
"159 37 OFFCURVE",
"159 62 CURVE SMOOTH",
"159 642 LINE",
"587 0 LINE",
"645 0 LINE",
"645 637 LINE SMOOTH",
"645 662 OFFCURVE",
"665 673 OFFCURVE",
"703 673 CURVE SMOOTH",
"733 673 LINE",
"733 700 LINE",
"508 700 LINE",
"508 673 LINE",
"537 673 LINE SMOOTH",
"576 673 OFFCURVE",
"595 662 OFFCURVE",
"595 637 CURVE SMOOTH",
"595 126 LINE",
"217 700 LINE",
"22 700 LINE",
"22 673 LINE",
"51 673 LINE SMOOTH",
"90 673 OFFCURVE",
"109 662 OFFCURVE",
"109 637 CURVE SMOOTH",
"109 62 LINE SMOOTH",
"109 37 OFFCURVE",
"90 26 OFFCURVE",
"51 26 CURVE SMOOTH",
"22 26 LINE",
"22 0 LINE"
);
},
{
closed = 1;
nodes = (
"415 -159 OFFCURVE",
"433 -140 OFFCURVE",
"433 -112 CURVE SMOOTH",
"433 -84 OFFCURVE",
"415 -64 OFFCURVE",
"387 -64 CURVE SMOOTH",
"359 -64 OFFCURVE",
"340 -84 OFFCURVE",
"340 -112 CURVE SMOOTH",
"340 -140 OFFCURVE",
"359 -159 OFFCURVE",
"387 -159 CURVE SMOOTH"
);
}
);
};
components = (
{
name = N;
},
{
name = dotbelowcomb;
transform = "{1, 0, 0, 1, 629, 0}";
}
);
layerId = "0B1DFD06-3317-40CA-B510-4969A0718C16";
width = 755;
}
);
note = uni1E46;
unicode = 1E46;
},
{
color = 0;
glyphname = Eng;
lastChange = "2017-12-19 05:23:35 +0000";
layers = (
{
background = {
paths = (
{
closed = 1;
nodes = (
"592 -259 OFFCURVE",
"645 -182 OFFCURVE",
"645 -36 CURVE SMOOTH",
"645 637 LINE SMOOTH",
"645 662 OFFCURVE",
"665 673 OFFCURVE",
"703 673 CURVE SMOOTH",
"733 673 LINE",
"733 700 LINE",
"508 700 LINE",
"508 673 LINE",
"537 673 LINE SMOOTH",
"576 673 OFFCURVE",
"595 662 OFFCURVE",
"595 637 CURVE SMOOTH",
"595 125 LINE",
"219 700 LINE",
"22 700 LINE",
"22 673 LINE",
"51 673 LINE SMOOTH",
"90 673 OFFCURVE",
"109 662 OFFCURVE",
"109 637 CURVE SMOOTH",
"109 62 LINE SMOOTH",
"109 37 OFFCURVE",
"93 26 OFFCURVE",
"51 26 CURVE SMOOTH",
"22 26 LINE",
"22 0 LINE",
"247 0 LINE",
"247 26 LINE",
"217 26 LINE SMOOTH",
"179 26 OFFCURVE",
"159 37 OFFCURVE",
"159 62 CURVE SMOOTH",
"159 647 LINE",
"586 0 LINE",
"586 -76 LINE SMOOTH",
"586 -173 OFFCURVE",
"510 -238 OFFCURVE",
"423 -243 CURVE",
"427 -268 LINE"
);
}
);
};
layerId = "0B1DFD06-3317-40CA-B510-4969A0718C16";
paths = (
{
closed = 1;
nodes = (
"592 -259 OFFCURVE",
"645 -182 OFFCURVE",
"645 -36 CURVE SMOOTH",
"645 637 LINE SMOOTH",
"645 662 OFFCURVE",
"665 673 OFFCURVE",
"703 673 CURVE SMOOTH",
"733 673 LINE",
"733 700 LINE",
"508 700 LINE",
"508 673 LINE",
"537 673 LINE SMOOTH",
"576 673 OFFCURVE",
"595 662 OFFCURVE",
"595 637 CURVE SMOOTH",
"595 125 LINE",
"219 700 LINE",
"22 700 LINE",
"22 673 LINE",
"51 673 LINE SMOOTH",
"90 673 OFFCURVE",
"109 662 OFFCURVE",
"109 637 CURVE SMOOTH",
"109 62 LINE SMOOTH",
"109 37 OFFCURVE",
"93 26 OFFCURVE",
"51 26 CURVE SMOOTH",
"22 26 LINE",
"22 0 LINE",
"247 0 LINE",
"247 26 LINE",
"217 26 LINE SMOOTH",
"179 26 OFFCURVE",
"159 37 OFFCURVE",
"159 62 CURVE SMOOTH",
"159 647 LINE",
"586 0 LINE",
"586 -76 LINE SMOOTH",
"586 -173 OFFCURVE",
"510 -238 OFFCURVE",
"423 -243 CURVE",
"427 -268 LINE"
);
}
);
width = 755;
}
);
note = Eng;
unicode = 014A;
},
{
glyphname = Nlinebelow;
lastChange = "2017-12-19 05:21:12 +0000";
layers = (
{
background = {
paths = (
{
closed = 1;
nodes = (
"247 0 LINE",
"247 26 LINE",
"217 26 LINE SMOOTH",
"179 26 OFFCURVE",
"159 37 OFFCURVE",
"159 62 CURVE SMOOTH",
"159 642 LINE",
"587 0 LINE",
"645 0 LINE",
"645 637 LINE SMOOTH",
"645 662 OFFCURVE",
"665 673 OFFCURVE",
"703 673 CURVE SMOOTH",
"733 673 LINE",
"733 700 LINE",
"508 700 LINE",
"508 673 LINE",
"537 673 LINE SMOOTH",
"576 673 OFFCURVE",
"595 662 OFFCURVE",
"595 637 CURVE SMOOTH",
"595 126 LINE",
"217 700 LINE",
"22 700 LINE",
"22 673 LINE",
"51 673 LINE SMOOTH",
"90 673 OFFCURVE",
"109 662 OFFCURVE",
"109 637 CURVE SMOOTH",
"109 62 LINE SMOOTH",
"109 37 OFFCURVE",
"90 26 OFFCURVE",
"51 26 CURVE SMOOTH",
"22 26 LINE",
"22 0 LINE"
);
},
{
closed = 1;
nodes = (
"542 -110 LINE",
"542 -72 LINE",
"210 -72 LINE",
"210 -110 LINE"
);
}
);
};
components = (
{
name = N;
},
{
name = macronbelowcomb;
transform = "{1, 0, 0, 1, 378, 0}";
}
);
layerId = "0B1DFD06-3317-40CA-B510-4969A0718C16";
width = 755;
}
);
note = Nlinebelow;
unicode = 1E48;
},
{
glyphname = Ntilde;
lastChange = "2017-12-19 05:21:12 +0000";
layers = (
{
background = {
paths = (
{
closed = 1;
nodes = (
"247 0 LINE",
"247 26 LINE",
"217 26 LINE SMOOTH",
"179 26 OFFCURVE",
"159 37 OFFCURVE",
"159 62 CURVE SMOOTH",
"159 642 LINE",
"587 0 LINE",
"645 0 LINE",
"645 637 LINE SMOOTH",
"645 662 OFFCURVE",
"665 673 OFFCURVE",
"703 673 CURVE SMOOTH",
"733 673 LINE",
"733 700 LINE",
"508 700 LINE",
"508 673 LINE",
"537 673 LINE SMOOTH",
"576 673 OFFCURVE",
"595 662 OFFCURVE",
"595 637 CURVE SMOOTH",
"595 126 LINE",
"217 700 LINE",
"22 700 LINE",
"22 673 LINE",
"51 673 LINE SMOOTH",
"90 673 OFFCURVE",
"109 662 OFFCURVE",
"109 637 CURVE SMOOTH",
"109 62 LINE SMOOTH",
"109 37 OFFCURVE",
"90 26 OFFCURVE",
"51 26 CURVE SMOOTH",
"22 26 LINE",
"22 0 LINE"
);
},
{
closed = 1;
nodes = (
"254 818 OFFCURVE",
"272 839 OFFCURVE",
"305 839 CURVE SMOOTH",
"356 839 OFFCURVE",
"405 785 OFFCURVE",
"456 785 CURVE SMOOTH",
"514 785 OFFCURVE",
"544 833 OFFCURVE",
"556 885 CURVE",
"535 896 LINE",
"519 856 OFFCURVE",
"503 834 OFFCURVE",
"469 834 CURVE SMOOTH",
"420 834 OFFCURVE",
"368 887 OFFCURVE",
"317 887 CURVE SMOOTH",
"263 887 OFFCURVE",
"230 843 OFFCURVE",
"218 791 CURVE",
"240 780 LINE"
);
}
);
};
components = (
{
name = N;
},
{
name = tilde;
transform = "{1, 0, 0, 1, 132, 230}";
}
);
layerId = "0B1DFD06-3317-40CA-B510-4969A0718C16";
width = 755;
}
);
note = Ntilde;
unicode = 00D1;
},
{
glyphname = Oacute;
lastChange = "2017-12-19 05:21:12 +0000";
layers = (
{
background = {
paths = (
{
closed = 1;
nodes = (
"601 -10 OFFCURVE",
"719 124 OFFCURVE",
"719 350 CURVE SMOOTH",
"719 574 OFFCURVE",
"601 710 OFFCURVE",
"378 710 CURVE SMOOTH",
"154 710 OFFCURVE",
"36 574 OFFCURVE",
"36 350 CURVE SMOOTH",
"36 124 OFFCURVE",
"154 -10 OFFCURVE",
"378 -10 CURVE SMOOTH"
);
},
{
closed = 1;
nodes = (
"215 32 OFFCURVE",
"135 158 OFFCURVE",
"135 350 CURVE SMOOTH",
"135 541 OFFCURVE",
"215 668 OFFCURVE",
"377 668 CURVE SMOOTH",
"541 668 OFFCURVE",
"620 541 OFFCURVE",
"620 350 CURVE SMOOTH",
"620 158 OFFCURVE",
"541 32 OFFCURVE",
"377 32 CURVE SMOOTH"
);
},
{
closed = 1;
nodes = (
"440 865 LINE SMOOTH",
"462 877 OFFCURVE",
"474 890 OFFCURVE",
"474 907 CURVE SMOOTH",
"474 922 OFFCURVE",
"462 937 OFFCURVE",
"440 937 CURVE SMOOTH",
"419 937 OFFCURVE",
"404 921 OFFCURVE",
"396 914 CURVE SMOOTH",
"281 807 LINE",
"298 782 LINE"
);
}
);
};
components = (
{
name = O;
},
{
name = acute;
transform = "{1, 0, 0, 1, 120, 230}";
}
);
layerId = "0B1DFD06-3317-40CA-B510-4969A0718C16";
width = 755;
}
);
leftKerningGroup = O;
note = Oacute;
rightKerningGroup = O;
unicode = 00D3;
},
{
glyphname = Obreve;
lastChange = "2017-12-19 05:21:12 +0000";
layers = (
{
background = {
paths = (
{
closed = 1;
nodes = (
"601 -10 OFFCURVE",
"719 124 OFFCURVE",
"719 350 CURVE SMOOTH",
"719 574 OFFCURVE",
"601 710 OFFCURVE",
"378 710 CURVE SMOOTH",
"154 710 OFFCURVE",
"36 574 OFFCURVE",
"36 350 CURVE SMOOTH",
"36 124 OFFCURVE",
"154 -10 OFFCURVE",
"378 -10 CURVE SMOOTH"
);
},
{
closed = 1;
nodes = (
"215 32 OFFCURVE",
"135 158 OFFCURVE",
"135 350 CURVE SMOOTH",
"135 541 OFFCURVE",
"215 668 OFFCURVE",
"377 668 CURVE SMOOTH",
"541 668 OFFCURVE",
"620 541 OFFCURVE",
"620 350 CURVE SMOOTH",
"620 158 OFFCURVE",
"541 32 OFFCURVE",
"377 32 CURVE SMOOTH"
);
},
{
closed = 1;
nodes = (
"477 774 OFFCURVE",
"519 830 OFFCURVE",
"523 905 CURVE",
"490 905 LINE",
"484 846 OFFCURVE",
"442 820 OFFCURVE",
"378 820 CURVE SMOOTH",
"314 820 OFFCURVE",
"271 846 OFFCURVE",
"264 905 CURVE",
"231 905 LINE",
"235 827 OFFCURVE",
"277 774 OFFCURVE",
"378 774 CURVE SMOOTH"
);
}
);
};
components = (
{
name = O;
},
{
name = breve;
transform = "{1, 0, 0, 1, 132, 230}";
}
);
layerId = "0B1DFD06-3317-40CA-B510-4969A0718C16";
width = 755;
}
);
leftKerningGroup = O;
note = Obreve;
rightKerningGroup = O;
unicode = 014E;
},
{
glyphname = Ocaron;
lastChange = "2017-12-19 05:21:12 +0000";
layers = (
{
background = {
paths = (
{
closed = 1;
nodes = (
"601 -10 OFFCURVE",
"719 124 OFFCURVE",
"719 350 CURVE SMOOTH",
"719 574 OFFCURVE",
"601 710 OFFCURVE",
"378 710 CURVE SMOOTH",
"154 710 OFFCURVE",
"36 574 OFFCURVE",
"36 350 CURVE SMOOTH",
"36 124 OFFCURVE",
"154 -10 OFFCURVE",
"378 -10 CURVE SMOOTH"
);
},
{
closed = 1;
nodes = (
"215 32 OFFCURVE",
"135 158 OFFCURVE",
"135 350 CURVE SMOOTH",
"135 541 OFFCURVE",
"215 668 OFFCURVE",
"377 668 CURVE SMOOTH",
"541 668 OFFCURVE",
"620 541 OFFCURVE",
"620 350 CURVE SMOOTH",
"620 158 OFFCURVE",
"541 32 OFFCURVE",
"377 32 CURVE SMOOTH"
);
},
{
closed = 1;
nodes = (
"404 782 LINE",
"528 911 LINE",
"509 932 LINE",
"401 847 LINE",
"393 840 OFFCURVE",
"384 836 OFFCURVE",
"378 836 CURVE SMOOTH",
"372 836 OFFCURVE",
"364 840 OFFCURVE",
"354 847 CURVE",
"246 932 LINE",
"227 911 LINE",
"351 782 LINE"
);
}
);
};
components = (
{
name = O;
},
{
name = caron;
transform = "{1, 0, 0, 1, 132, 230}";
}
);
layerId = "0B1DFD06-3317-40CA-B510-4969A0718C16";
width = 755;
}
);
leftKerningGroup = O;
note = Ocaron;
rightKerningGroup = O;
unicode = 01D1;
},
{
glyphname = Ocircumflex;
lastChange = "2017-12-19 05:21:12 +0000";
layers = (
{
background = {
paths = (
{
closed = 1;
nodes = (
"601 -10 OFFCURVE",
"719 124 OFFCURVE",
"719 350 CURVE SMOOTH",
"719 574 OFFCURVE",
"601 710 OFFCURVE",
"378 710 CURVE SMOOTH",
"154 710 OFFCURVE",
"36 574 OFFCURVE",
"36 350 CURVE SMOOTH",
"36 124 OFFCURVE",
"154 -10 OFFCURVE",
"378 -10 CURVE SMOOTH"
);
},
{
closed = 1;
nodes = (
"215 32 OFFCURVE",
"135 158 OFFCURVE",
"135 350 CURVE SMOOTH",
"135 541 OFFCURVE",
"215 668 OFFCURVE",
"377 668 CURVE SMOOTH",
"541 668 OFFCURVE",
"620 541 OFFCURVE",
"620 350 CURVE SMOOTH",
"620 158 OFFCURVE",
"541 32 OFFCURVE",
"377 32 CURVE SMOOTH"
);
},
{
closed = 1;
nodes = (
"354 868 LINE SMOOTH",
"362 874 OFFCURVE",
"372 879 OFFCURVE",
"378 879 CURVE SMOOTH",
"384 879 OFFCURVE",
"392 874 OFFCURVE",
"401 868 CURVE",
"509 782 LINE",
"528 803 LINE",
"404 932 LINE",
"351 932 LINE",
"227 803 LINE",
"246 782 LINE"
);
}
);
};
components = (
{
name = O;
},
{
name = circumflex;
transform = "{1, 0, 0, 1, 132, 230}";
}
);
layerId = "0B1DFD06-3317-40CA-B510-4969A0718C16";
width = 755;
}
);
leftKerningGroup = O;
note = Ocircumflex;
rightKerningGroup = O;
unicode = 00D4;
},
{
glyphname = Ocircumflexacute;
lastChange = "2017-12-19 05:21:12 +0000";
layers = (
{
background = {
paths = (
{
closed = 1;
nodes = (
"601 -10 OFFCURVE",
"719 124 OFFCURVE",
"719 350 CURVE SMOOTH",
"719 574 OFFCURVE",
"601 710 OFFCURVE",
"378 710 CURVE SMOOTH",
"154 710 OFFCURVE",
"36 574 OFFCURVE",
"36 350 CURVE SMOOTH",
"36 124 OFFCURVE",
"154 -10 OFFCURVE",
"378 -10 CURVE SMOOTH"
);
},
{
closed = 1;
nodes = (
"215 32 OFFCURVE",
"135 158 OFFCURVE",
"135 350 CURVE SMOOTH",
"135 541 OFFCURVE",
"215 668 OFFCURVE",
"377 668 CURVE SMOOTH",
"541 668 OFFCURVE",
"620 541 OFFCURVE",
"620 350 CURVE SMOOTH",
"620 158 OFFCURVE",
"541 32 OFFCURVE",
"377 32 CURVE SMOOTH"
);
},
{
closed = 1;
nodes = (
"348 861 LINE SMOOTH",
"358 869 OFFCURVE",
"368 877 OFFCURVE",
"376 877 CURVE SMOOTH",
"382 877 OFFCURVE",
"390 872 OFFCURVE",
"399 866 CURVE",
"505 780 LINE",
"524 802 LINE",
"402 931 LINE",
"351 931 LINE",
"229 802 LINE",
"247 780 LINE"
);
},
{
closed = 1;
nodes = (
"613 959 LINE SMOOTH",
"636 971 OFFCURVE",
"649 987 OFFCURVE",
"649 1002 CURVE SMOOTH",
"649 1016 OFFCURVE",
"638 1033 OFFCURVE",
"615 1033 CURVE SMOOTH",
"596 1033 OFFCURVE",
"579 1017 OFFCURVE",
"569 1007 CURVE SMOOTH",
"473 914 LINE",
"491 892 LINE"
);
}
);
};
components = (
{
name = O;
},
{
name = circumflexacute;
transform = "{1, 0, 0, 1, 628, 230}";
}
);
layerId = "0B1DFD06-3317-40CA-B510-4969A0718C16";
width = 755;
}
);
leftKerningGroup = O;
note = Ocircumflexacute;
rightKerningGroup = O;
unicode = 1ED0;
},
{
glyphname = Ocircumflexdotbelow;
lastChange = "2017-12-19 05:21:12 +0000";
layers = (
{
background = {
paths = (
{
closed = 1;
nodes = (
"36 124 OFFCURVE",
"154 -10 OFFCURVE",
"378 -10 CURVE SMOOTH",
"601 -10 OFFCURVE",
"719 124 OFFCURVE",
"719 350 CURVE SMOOTH",
"719 574 OFFCURVE",
"601 710 OFFCURVE",
"378 710 CURVE SMOOTH",
"154 710 OFFCURVE",
"36 574 OFFCURVE",
"36 350 CURVE SMOOTH"
);
},
{
closed = 1;
nodes = (
"135 541 OFFCURVE",
"215 668 OFFCURVE",
"377 668 CURVE SMOOTH",
"541 668 OFFCURVE",
"620 541 OFFCURVE",
"620 350 CURVE SMOOTH",
"620 158 OFFCURVE",
"541 32 OFFCURVE",
"377 32 CURVE SMOOTH",
"215 32 OFFCURVE",
"135 158 OFFCURVE",
"135 350 CURVE SMOOTH"
);
},
{
closed = 1;
nodes = (
"245 782 LINE",
"353 868 LINE SMOOTH",
"361 874 OFFCURVE",
"371 879 OFFCURVE",
"377 879 CURVE SMOOTH",
"383 879 OFFCURVE",
"391 874 OFFCURVE",
"400 868 CURVE",
"508 782 LINE",
"527 803 LINE",
"403 932 LINE",
"350 932 LINE",
"226 803 LINE"
);
},
{
closed = 1;
nodes = (
"330 -140 OFFCURVE",
"349 -159 OFFCURVE",
"377 -159 CURVE SMOOTH",
"405 -159 OFFCURVE",
"423 -140 OFFCURVE",
"423 -112 CURVE SMOOTH",
"423 -84 OFFCURVE",
"405 -64 OFFCURVE",
"377 -64 CURVE SMOOTH",
"349 -64 OFFCURVE",
"330 -84 OFFCURVE",
"330 -112 CURVE SMOOTH"
);
}
);
};
components = (
{
name = O;
},
{
name = dotbelowcomb;
transform = "{1, 0, 0, 1, 629, 0}";
},
{
name = circumflex;
transform = "{1, 0, 0, 1, 132, 230}";
}
);
layerId = "0B1DFD06-3317-40CA-B510-4969A0718C16";
width = 755;
}
);
leftKerningGroup = O;
note = Ocircumflexdotbelow;
rightKerningGroup = O;
unicode = 1ED8;
},
{
glyphname = Ocircumflexgrave;
lastChange = "2017-12-19 05:21:12 +0000";
layers = (
{
background = {
paths = (
{
closed = 1;
nodes = (
"601 -10 OFFCURVE",
"719 124 OFFCURVE",
"719 350 CURVE SMOOTH",
"719 574 OFFCURVE",
"601 710 OFFCURVE",
"378 710 CURVE SMOOTH",
"154 710 OFFCURVE",
"36 574 OFFCURVE",
"36 350 CURVE SMOOTH",
"36 124 OFFCURVE",
"154 -10 OFFCURVE",
"378 -10 CURVE SMOOTH"
);
},
{
closed = 1;
nodes = (
"215 32 OFFCURVE",
"135 158 OFFCURVE",
"135 350 CURVE SMOOTH",
"135 541 OFFCURVE",
"215 668 OFFCURVE",
"377 668 CURVE SMOOTH",
"541 668 OFFCURVE",
"620 541 OFFCURVE",
"620 350 CURVE SMOOTH",
"620 158 OFFCURVE",
"541 32 OFFCURVE",
"377 32 CURVE SMOOTH"
);
},
{
closed = 1;
nodes = (
"285 914 LINE",
"190 1007 LINE SMOOTH",
"180 1017 OFFCURVE",
"163 1033 OFFCURVE",
"143 1033 CURVE SMOOTH",
"121 1033 OFFCURVE",
"110 1016 OFFCURVE",
"110 1002 CURVE SMOOTH",
"110 987 OFFCURVE",
"123 971 OFFCURVE",
"146 959 CURVE SMOOTH",
"268 892 LINE"
);
},
{
closed = 1;
nodes = (
"348 861 LINE SMOOTH",
"358 869 OFFCURVE",
"368 877 OFFCURVE",
"376 877 CURVE SMOOTH",
"382 877 OFFCURVE",
"390 872 OFFCURVE",
"399 866 CURVE",
"505 780 LINE",
"524 802 LINE",
"402 931 LINE",
"351 931 LINE",
"229 802 LINE",
"247 780 LINE"
);
}
);
};
components = (
{
name = O;
},
{
name = circumflexgrave;
transform = "{1, 0, 0, 1, 628, 230}";
}
);
layerId = "0B1DFD06-3317-40CA-B510-4969A0718C16";
width = 755;
}
);
leftKerningGroup = O;
note = Ocircumflexgrave;
rightKerningGroup = O;
unicode = 1ED2;
},
{
glyphname = Ocircumflexhookabove;
lastChange = "2017-12-19 05:21:12 +0000";
layers = (
{
background = {
paths = (
{
closed = 1;
nodes = (
"601 -10 OFFCURVE",
"719 124 OFFCURVE",
"719 350 CURVE SMOOTH",
"719 574 OFFCURVE",
"601 710 OFFCURVE",
"378 710 CURVE SMOOTH",
"154 710 OFFCURVE",
"36 574 OFFCURVE",
"36 350 CURVE SMOOTH",
"36 124 OFFCURVE",
"154 -10 OFFCURVE",
"378 -10 CURVE SMOOTH"
);
},
{
closed = 1;
nodes = (
"215 32 OFFCURVE",
"135 158 OFFCURVE",
"135 350 CURVE SMOOTH",
"135 541 OFFCURVE",
"215 668 OFFCURVE",
"377 668 CURVE SMOOTH",
"541 668 OFFCURVE",
"620 541 OFFCURVE",
"620 350 CURVE SMOOTH",
"620 158 OFFCURVE",
"541 32 OFFCURVE",
"377 32 CURVE SMOOTH"
);
},
{
closed = 1;
nodes = (
"344 858 LINE",
"355 868 OFFCURVE",
"367 878 OFFCURVE",
"376 878 CURVE SMOOTH",
"382 878 OFFCURVE",
"390 873 OFFCURVE",
"399 867 CURVE",
"505 781 LINE",
"524 803 LINE",
"402 932 LINE",
"351 932 LINE",
"229 803 LINE",
"247 781 LINE"
);
},
{
closed = 1;
nodes = (
"551 898 LINE",
"532 905 OFFCURVE",
"522 912 OFFCURVE",
"522 926 CURVE SMOOTH",
"522 954 OFFCURVE",
"602 965 OFFCURVE",
"602 1010 CURVE SMOOTH",
"602 1047 OFFCURVE",
"560 1063 OFFCURVE",
"518 1063 CURVE SMOOTH",
"487 1063 OFFCURVE",
"442 1053 OFFCURVE",
"442 1022 CURVE SMOOTH",
"442 1010 OFFCURVE",
"453 1001 OFFCURVE",
"463 1001 CURVE SMOOTH",
"492 1001 OFFCURVE",
"479 1040 OFFCURVE",
"522 1040 CURVE SMOOTH",
"541 1040 OFFCURVE",
"552 1028 OFFCURVE",
"552 1013 CURVE SMOOTH",
"552 973 OFFCURVE",
"479 965 OFFCURVE",
"479 925 CURVE SMOOTH",
"479 901 OFFCURVE",
"495 880 OFFCURVE",
"542 880 CURVE"
);
}
);
};
components = (
{
name = O;
},
{
name = circumflexhookabove;
transform = "{1, 0, 0, 1, 628, 230}";
}
);
layerId = "0B1DFD06-3317-40CA-B510-4969A0718C16";
width = 755;
}
);
leftKerningGroup = O;
note = Ocircumflexhookabove;
rightKerningGroup = O;
unicode = 1ED4;
},
{
glyphname = Ocircumflextilde;
lastChange = "2017-12-19 05:21:12 +0000";
layers = (
{
background = {
paths = (
{
closed = 1;
nodes = (
"601 -10 OFFCURVE",
"719 124 OFFCURVE",
"719 350 CURVE SMOOTH",
"719 574 OFFCURVE",
"601 710 OFFCURVE",
"378 710 CURVE SMOOTH",
"154 710 OFFCURVE",
"36 574 OFFCURVE",
"36 350 CURVE SMOOTH",
"36 124 OFFCURVE",
"154 -10 OFFCURVE",
"378 -10 CURVE SMOOTH"
);
},
{
closed = 1;
nodes = (
"215 32 OFFCURVE",
"135 158 OFFCURVE",
"135 350 CURVE SMOOTH",
"135 541 OFFCURVE",
"215 668 OFFCURVE",
"377 668 CURVE SMOOTH",
"541 668 OFFCURVE",
"620 541 OFFCURVE",
"620 350 CURVE SMOOTH",
"620 158 OFFCURVE",
"541 32 OFFCURVE",
"377 32 CURVE SMOOTH"
);
},
{
closed = 1;
nodes = (
"348 862 LINE SMOOTH",
"358 870 OFFCURVE",
"368 878 OFFCURVE",
"376 878 CURVE SMOOTH",
"382 878 OFFCURVE",
"390 873 OFFCURVE",
"399 867 CURVE",
"505 781 LINE",
"524 803 LINE",
"402 932 LINE",
"351 932 LINE",
"229 803 LINE",
"247 781 LINE"
);
},
{
closed = 1;
nodes = (
"251 997 OFFCURVE",
"269 1018 OFFCURVE",
"300 1018 CURVE SMOOTH",
"349 1018 OFFCURVE",
"396 964 OFFCURVE",
"445 964 CURVE SMOOTH",
"498 964 OFFCURVE",
"527 1012 OFFCURVE",
"539 1063 CURVE",
"518 1075 LINE",
"505 1035 OFFCURVE",
"489 1012 OFFCURVE",
"456 1012 CURVE SMOOTH",
"409 1012 OFFCURVE",
"360 1065 OFFCURVE",
"311 1065 CURVE SMOOTH",
"260 1065 OFFCURVE",
"228 1021 OFFCURVE",
"218 970 CURVE",
"238 958 LINE"
);
}
);
};
components = (
{
name = O;
},
{
name = circumflextilde;
transform = "{1, 0, 0, 1, 628, 230}";
}
);
layerId = "0B1DFD06-3317-40CA-B510-4969A0718C16";
width = 755;
}
);
leftKerningGroup = O;
note = Ocircumflextilde;
rightKerningGroup = O;
unicode = 1ED6;
},
{
glyphname = Odieresis;
lastChange = "2017-12-19 05:21:12 +0000";
layers = (
{
background = {
paths = (
{
closed = 1;
nodes = (
"601 -10 OFFCURVE",
"719 124 OFFCURVE",
"719 350 CURVE SMOOTH",
"719 574 OFFCURVE",
"601 710 OFFCURVE",
"378 710 CURVE SMOOTH",
"154 710 OFFCURVE",
"36 574 OFFCURVE",
"36 350 CURVE SMOOTH",
"36 124 OFFCURVE",
"154 -10 OFFCURVE",
"378 -10 CURVE SMOOTH"
);
},
{
closed = 1;
nodes = (
"215 32 OFFCURVE",
"135 158 OFFCURVE",
"135 350 CURVE SMOOTH",
"135 541 OFFCURVE",
"215 668 OFFCURVE",
"377 668 CURVE SMOOTH",
"541 668 OFFCURVE",
"620 541 OFFCURVE",
"620 350 CURVE SMOOTH",
"620 158 OFFCURVE",
"541 32 OFFCURVE",
"377 32 CURVE SMOOTH"
);
},
{
closed = 1;
nodes = (
"298 781 OFFCURVE",
"316 800 OFFCURVE",
"316 827 CURVE SMOOTH",
"316 855 OFFCURVE",
"298 875 OFFCURVE",
"269 875 CURVE SMOOTH",
"241 875 OFFCURVE",
"223 855 OFFCURVE",
"223 827 CURVE SMOOTH",
"223 800 OFFCURVE",
"241 781 OFFCURVE",
"269 781 CURVE SMOOTH"
);
},
{
closed = 1;
nodes = (
"514 781 OFFCURVE",
"532 800 OFFCURVE",
"532 827 CURVE SMOOTH",
"532 855 OFFCURVE",
"514 875 OFFCURVE",
"485 875 CURVE SMOOTH",
"456 875 OFFCURVE",
"438 855 OFFCURVE",
"438 827 CURVE SMOOTH",
"438 800 OFFCURVE",
"456 781 OFFCURVE",
"485 781 CURVE SMOOTH"
);
}
);
};
components = (
{
name = O;
},
{
name = dieresis;
transform = "{1, 0, 0, 1, 132, 230}";
}
);
layerId = "0B1DFD06-3317-40CA-B510-4969A0718C16";
width = 755;
}
);
leftKerningGroup = O;
note = Odieresis;
rightKerningGroup = O;
unicode = 00D6;
},
{
glyphname = Odotbelow;
lastChange = "2017-12-19 05:21:12 +0000";
layers = (
{
background = {
paths = (
{
closed = 1;
nodes = (
"36 124 OFFCURVE",
"154 -10 OFFCURVE",
"378 -10 CURVE SMOOTH",
"601 -10 OFFCURVE",
"719 124 OFFCURVE",
"719 350 CURVE SMOOTH",
"719 574 OFFCURVE",
"601 710 OFFCURVE",
"378 710 CURVE SMOOTH",
"154 710 OFFCURVE",
"36 574 OFFCURVE",
"36 350 CURVE SMOOTH"
);
},
{
closed = 1;
nodes = (
"135 541 OFFCURVE",
"215 668 OFFCURVE",
"377 668 CURVE SMOOTH",
"541 668 OFFCURVE",
"620 541 OFFCURVE",
"620 350 CURVE SMOOTH",
"620 158 OFFCURVE",
"541 32 OFFCURVE",
"377 32 CURVE SMOOTH",
"215 32 OFFCURVE",
"135 158 OFFCURVE",
"135 350 CURVE SMOOTH"
);
},
{
closed = 1;
nodes = (
"330 -140 OFFCURVE",
"349 -159 OFFCURVE",
"377 -159 CURVE SMOOTH",
"405 -159 OFFCURVE",
"423 -140 OFFCURVE",
"423 -112 CURVE SMOOTH",
"423 -84 OFFCURVE",
"405 -64 OFFCURVE",
"377 -64 CURVE SMOOTH",
"349 -64 OFFCURVE",
"330 -84 OFFCURVE",
"330 -112 CURVE SMOOTH"
);
}
);
};
components = (
{
name = O;
},
{
name = dotbelowcomb;
transform = "{1, 0, 0, 1, 629, 0}";
}
);
layerId = "0B1DFD06-3317-40CA-B510-4969A0718C16";
width = 755;
}
);
leftKerningGroup = O;
note = Odotbelow;
rightKerningGroup = O;
unicode = 1ECC;
},
{
glyphname = Ograve;
lastChange = "2017-12-19 05:21:12 +0000";
layers = (
{
background = {
paths = (
{
closed = 1;
nodes = (
"601 -10 OFFCURVE",
"719 124 OFFCURVE",
"719 350 CURVE SMOOTH",
"719 574 OFFCURVE",
"601 710 OFFCURVE",
"378 710 CURVE SMOOTH",
"154 710 OFFCURVE",
"36 574 OFFCURVE",
"36 350 CURVE SMOOTH",
"36 124 OFFCURVE",
"154 -10 OFFCURVE",
"378 -10 CURVE SMOOTH"
);
},
{
closed = 1;
nodes = (
"215 32 OFFCURVE",
"135 158 OFFCURVE",
"135 350 CURVE SMOOTH",
"135 541 OFFCURVE",
"215 668 OFFCURVE",
"377 668 CURVE SMOOTH",
"541 668 OFFCURVE",
"620 541 OFFCURVE",
"620 350 CURVE SMOOTH",
"620 158 OFFCURVE",
"541 32 OFFCURVE",
"377 32 CURVE SMOOTH"
);
},
{
closed = 1;
nodes = (
"459 807 LINE",
"344 913 LINE",
"335 922 OFFCURVE",
"319 937 OFFCURVE",
"299 937 CURVE SMOOTH",
"279 937 OFFCURVE",
"267 924 OFFCURVE",
"267 908 CURVE SMOOTH",
"267 890 OFFCURVE",
"279 876 OFFCURVE",
"298 865 CURVE SMOOTH",
"441 782 LINE"
);
}
);
};
components = (
{
name = O;
},
{
name = grave;
transform = "{1, 0, 0, 1, 132, 230}";
}
);
layerId = "0B1DFD06-3317-40CA-B510-4969A0718C16";
width = 755;
}
);
leftKerningGroup = O;
note = Ograve;
rightKerningGroup = O;
unicode = 00D2;
},
{
glyphname = Ohookabove;
lastChange = "2017-12-19 05:21:12 +0000";
layers = (
{
background = {
paths = (
{
closed = 1;
nodes = (
"601 -10 OFFCURVE",
"719 124 OFFCURVE",
"719 350 CURVE SMOOTH",
"719 574 OFFCURVE",
"601 710 OFFCURVE",
"378 710 CURVE SMOOTH",
"154 710 OFFCURVE",
"36 574 OFFCURVE",
"36 350 CURVE SMOOTH",
"36 124 OFFCURVE",
"154 -10 OFFCURVE",
"378 -10 CURVE SMOOTH"
);
},
{
closed = 1;
nodes = (
"215 32 OFFCURVE",
"135 158 OFFCURVE",
"135 350 CURVE SMOOTH",
"135 541 OFFCURVE",
"215 668 OFFCURVE",
"377 668 CURVE SMOOTH",
"541 668 OFFCURVE",
"620 541 OFFCURVE",
"620 350 CURVE SMOOTH",
"620 158 OFFCURVE",
"541 32 OFFCURVE",
"377 32 CURVE SMOOTH"
);
},
{
closed = 1;
nodes = (
"407 798 LINE",
"388 805 OFFCURVE",
"376 811 OFFCURVE",
"376 828 CURVE SMOOTH",
"376 861 OFFCURVE",
"465 876 OFFCURVE",
"465 927 CURVE SMOOTH",
"465 969 OFFCURVE",
"429 991 OFFCURVE",
"376 991 CURVE SMOOTH",
"329 991 OFFCURVE",
"288 974 OFFCURVE",
"288 940 CURVE SMOOTH",
"288 923 OFFCURVE",
"296 915 OFFCURVE",
"311 915 CURVE SMOOTH",
"334 915 OFFCURVE",
"336 934 OFFCURVE",
"339 942 CURVE SMOOTH",
"344 956 OFFCURVE",
"361 962 OFFCURVE",
"377 962 CURVE SMOOTH",
"398 962 OFFCURVE",
"411 947 OFFCURVE",
"411 930 CURVE SMOOTH",
"411 885 OFFCURVE",
"329 874 OFFCURVE",
"329 828 CURVE SMOOTH",
"329 801 OFFCURVE",
"347 778 OFFCURVE",
"398 778 CURVE"
);
}
);
};
components = (
{
name = O;
},
{
name = hookabovecomb;
transform = "{1, 0, 0, 1, 629, 230}";
}
);
layerId = "0B1DFD06-3317-40CA-B510-4969A0718C16";
width = 755;
}
);
leftKerningGroup = O;
note = Ohookabove;
rightKerningGroup = O;
unicode = 1ECE;
},
{
glyphname = Ohorn;
lastChange = "2017-12-19 05:23:14 +0000";
layers = (
{
layerId = "0B1DFD06-3317-40CA-B510-4969A0718C16";
paths = (
{
closed = 1;
nodes = (
"612 747 LINE",
"625 685 OFFCURVE",
"605 649 OFFCURVE",
"543 631 CURVE",
"497 680 OFFCURVE",
"429 704 OFFCURVE",
"340 704 CURVE SMOOTH",
"134 704 OFFCURVE",
"58 582 OFFCURVE",
"58 341 CURVE SMOOTH",
"58 117 OFFCURVE",
"137 -9 OFFCURVE",
"340 -9 CURVE SMOOTH",
"544 -9 OFFCURVE",
"622 117 OFFCURVE",
"622 341 CURVE SMOOTH",
"622 448 OFFCURVE",
"605 530 OFFCURVE",
"572 589 CURVE",
"645 606 OFFCURVE",
"696 681 OFFCURVE",
"680 769 CURVE"
);
},
{
closed = 1;
nodes = (
"176 59 OFFCURVE",
"132 145 OFFCURVE",
"132 341 CURVE SMOOTH",
"132 554 OFFCURVE",
"176 639 OFFCURVE",
"340 639 CURVE SMOOTH",
"503 639 OFFCURVE",
"547 554 OFFCURVE",
"547 341 CURVE SMOOTH",
"547 145 OFFCURVE",
"503 59 OFFCURVE",
"340 59 CURVE SMOOTH"
);
}
);
width = 680;
}
);
note = Ohorn;
unicode = 01A0;
},
{
glyphname = Ohornacute;
lastChange = "2017-12-19 05:21:12 +0000";
layers = (
{
background = {
paths = (
{
closed = 1;
nodes = (
"602 -10 OFFCURVE",
"720 124 OFFCURVE",
"720 350 CURVE SMOOTH",
"720 574 OFFCURVE",
"602 710 OFFCURVE",
"379 710 CURVE SMOOTH",
"155 710 OFFCURVE",
"37 574 OFFCURVE",
"37 350 CURVE SMOOTH",
"37 124 OFFCURVE",
"155 -10 OFFCURVE",
"379 -10 CURVE SMOOTH"
);
},
{
closed = 1;
nodes = (
"216 32 OFFCURVE",
"136 158 OFFCURVE",
"136 350 CURVE SMOOTH",
"136 541 OFFCURVE",
"216 668 OFFCURVE",
"378 668 CURVE SMOOTH",
"542 668 OFFCURVE",
"621 541 OFFCURVE",
"621 350 CURVE SMOOTH",
"621 158 OFFCURVE",
"542 32 OFFCURVE",
"378 32 CURVE SMOOTH"
);
},
{
closed = 1;
nodes = (
"424 864 LINE SMOOTH",
"446 876 OFFCURVE",
"458 889 OFFCURVE",
"458 906 CURVE SMOOTH",
"458 921 OFFCURVE",
"446 936 OFFCURVE",
"424 936 CURVE SMOOTH",
"403 936 OFFCURVE",
"388 920 OFFCURVE",
"380 913 CURVE SMOOTH",
"265 806 LINE",
"282 781 LINE"
);
},
{
closed = 1;
nodes = (
"691 567 OFFCURVE",
"756 632 OFFCURVE",
"756 705 CURVE SMOOTH",
"756 752 OFFCURVE",
"729 772 OFFCURVE",
"701 772 CURVE SMOOTH",
"672 772 OFFCURVE",
"656 752 OFFCURVE",
"656 729 CURVE SMOOTH",
"656 695 OFFCURVE",
"689 688 OFFCURVE",
"689 653 CURVE SMOOTH",
"689 617 OFFCURVE",
"658 588 OFFCURVE",
"623 568 CURVE",
"623 543 LINE"
);
}
);
};
components = (
{
name = acute;
transform = "{1, 0, 0, 1, 120, 230}";
},
{
name = Ohorn;
}
);
layerId = "0B1DFD06-3317-40CA-B510-4969A0718C16";
width = 755;
}
);
leftKerningGroup = O;
note = Ohornacute;
rightKerningGroup = O;
unicode = 1EDA;
},
{
glyphname = Ohorndotbelow;
lastChange = "2017-12-19 05:21:12 +0000";
layers = (
{
background = {
paths = (
{
closed = 1;
nodes = (
"602 -10 OFFCURVE",
"720 124 OFFCURVE",
"720 350 CURVE SMOOTH",
"720 574 OFFCURVE",
"602 710 OFFCURVE",
"379 710 CURVE SMOOTH",
"155 710 OFFCURVE",
"37 574 OFFCURVE",
"37 350 CURVE SMOOTH",
"37 124 OFFCURVE",
"155 -10 OFFCURVE",
"379 -10 CURVE SMOOTH"
);
},
{
closed = 1;
nodes = (
"216 32 OFFCURVE",
"136 158 OFFCURVE",
"136 350 CURVE SMOOTH",
"136 541 OFFCURVE",
"216 668 OFFCURVE",
"378 668 CURVE SMOOTH",
"542 668 OFFCURVE",
"621 541 OFFCURVE",
"621 350 CURVE SMOOTH",
"621 158 OFFCURVE",
"542 32 OFFCURVE",
"378 32 CURVE SMOOTH"
);
},
{
closed = 1;
nodes = (
"691 567 OFFCURVE",
"756 632 OFFCURVE",
"756 705 CURVE SMOOTH",
"756 752 OFFCURVE",
"729 772 OFFCURVE",
"701 772 CURVE SMOOTH",
"672 772 OFFCURVE",
"656 752 OFFCURVE",
"656 729 CURVE SMOOTH",
"656 695 OFFCURVE",
"689 688 OFFCURVE",
"689 653 CURVE SMOOTH",
"689 617 OFFCURVE",
"658 588 OFFCURVE",
"623 568 CURVE",
"623 543 LINE"
);
},
{
closed = 1;
nodes = (
"395 -159 OFFCURVE",
"413 -140 OFFCURVE",
"413 -112 CURVE SMOOTH",
"413 -84 OFFCURVE",
"395 -64 OFFCURVE",
"367 -64 CURVE SMOOTH",
"339 -64 OFFCURVE",
"320 -84 OFFCURVE",
"320 -112 CURVE SMOOTH",
"320 -140 OFFCURVE",
"339 -159 OFFCURVE",
"367 -159 CURVE SMOOTH"
);
}
);
};
components = (
{
name = dotbelowcomb;
transform = "{1, 0, 0, 1, 629, 0}";
},
{
name = Ohorn;
}
);
layerId = "0B1DFD06-3317-40CA-B510-4969A0718C16";
width = 755;
}
);
leftKerningGroup = O;
note = Ohorndotbelow;
rightKerningGroup = O;
unicode = 1EE2;
},
{
glyphname = Ohorngrave;
lastChange = "2017-12-19 05:21:12 +0000";
layers = (
{
background = {
paths = (
{
closed = 1;
nodes = (
"602 -10 OFFCURVE",
"720 124 OFFCURVE",
"720 350 CURVE SMOOTH",
"720 574 OFFCURVE",
"602 710 OFFCURVE",
"379 710 CURVE SMOOTH",
"155 710 OFFCURVE",
"37 574 OFFCURVE",
"37 350 CURVE SMOOTH",
"37 124 OFFCURVE",
"155 -10 OFFCURVE",
"379 -10 CURVE SMOOTH"
);
},
{
closed = 1;
nodes = (
"216 32 OFFCURVE",
"136 158 OFFCURVE",
"136 350 CURVE SMOOTH",
"136 541 OFFCURVE",
"216 668 OFFCURVE",
"378 668 CURVE SMOOTH",
"542 668 OFFCURVE",
"621 541 OFFCURVE",
"621 350 CURVE SMOOTH",
"621 158 OFFCURVE",
"542 32 OFFCURVE",
"378 32 CURVE SMOOTH"
);
},
{
closed = 1;
nodes = (
"464 816 LINE",
"349 922 LINE",
"340 931 OFFCURVE",
"324 946 OFFCURVE",
"304 946 CURVE SMOOTH",
"284 946 OFFCURVE",
"272 933 OFFCURVE",
"272 917 CURVE SMOOTH",
"272 899 OFFCURVE",
"284 885 OFFCURVE",
"303 874 CURVE SMOOTH",
"446 791 LINE"
);
},
{
closed = 1;
nodes = (
"691 567 OFFCURVE",
"756 632 OFFCURVE",
"756 705 CURVE SMOOTH",
"756 752 OFFCURVE",
"729 772 OFFCURVE",
"701 772 CURVE SMOOTH",
"672 772 OFFCURVE",
"656 752 OFFCURVE",
"656 729 CURVE SMOOTH",
"656 695 OFFCURVE",
"689 688 OFFCURVE",
"689 653 CURVE SMOOTH",
"689 617 OFFCURVE",
"658 588 OFFCURVE",
"623 568 CURVE",
"623 543 LINE"
);
}
);
};
components = (
{
name = grave;
transform = "{1, 0, 0, 1, 132, 230}";
},
{
name = Ohorn;
}
);
layerId = "0B1DFD06-3317-40CA-B510-4969A0718C16";
width = 755;
}
);
leftKerningGroup = O;
note = Ohorngrave;
rightKerningGroup = O;
unicode = 1EDC;
},
{
glyphname = Ohornhookabove;
lastChange = "2017-12-19 05:21:12 +0000";
layers = (
{
background = {
paths = (
{
closed = 1;
nodes = (
"602 -10 OFFCURVE",
"720 124 OFFCURVE",
"720 350 CURVE SMOOTH",
"720 574 OFFCURVE",
"602 710 OFFCURVE",
"379 710 CURVE SMOOTH",
"155 710 OFFCURVE",
"37 574 OFFCURVE",
"37 350 CURVE SMOOTH",
"37 124 OFFCURVE",
"155 -10 OFFCURVE",
"379 -10 CURVE SMOOTH"
);
},
{
closed = 1;
nodes = (
"216 32 OFFCURVE",
"136 158 OFFCURVE",
"136 350 CURVE SMOOTH",
"136 541 OFFCURVE",
"216 668 OFFCURVE",
"378 668 CURVE SMOOTH",
"542 668 OFFCURVE",
"621 541 OFFCURVE",
"621 350 CURVE SMOOTH",
"621 158 OFFCURVE",
"542 32 OFFCURVE",
"378 32 CURVE SMOOTH"
);
},
{
closed = 1;
nodes = (
"412 809 LINE",
"393 816 OFFCURVE",
"381 822 OFFCURVE",
"381 839 CURVE SMOOTH",
"381 872 OFFCURVE",
"470 887 OFFCURVE",
"470 938 CURVE SMOOTH",
"470 980 OFFCURVE",
"434 1002 OFFCURVE",
"381 1002 CURVE SMOOTH",
"334 1002 OFFCURVE",
"293 985 OFFCURVE",
"293 951 CURVE SMOOTH",
"293 934 OFFCURVE",
"301 926 OFFCURVE",
"316 926 CURVE SMOOTH",
"339 926 OFFCURVE",
"341 945 OFFCURVE",
"344 953 CURVE SMOOTH",
"349 967 OFFCURVE",
"366 973 OFFCURVE",
"382 973 CURVE SMOOTH",
"403 973 OFFCURVE",
"416 958 OFFCURVE",
"416 941 CURVE SMOOTH",
"416 896 OFFCURVE",
"334 885 OFFCURVE",
"334 839 CURVE SMOOTH",
"334 812 OFFCURVE",
"352 789 OFFCURVE",
"403 789 CURVE"
);
},
{
closed = 1;
nodes = (
"691 567 OFFCURVE",
"756 632 OFFCURVE",
"756 705 CURVE SMOOTH",
"756 752 OFFCURVE",
"729 772 OFFCURVE",
"701 772 CURVE SMOOTH",
"672 772 OFFCURVE",
"656 752 OFFCURVE",
"656 729 CURVE SMOOTH",
"656 695 OFFCURVE",
"689 688 OFFCURVE",
"689 653 CURVE SMOOTH",
"689 617 OFFCURVE",
"658 588 OFFCURVE",
"623 568 CURVE",
"623 543 LINE"
);
}
);
};
components = (
{
name = hookabovecomb;
transform = "{1, 0, 0, 1, 629, 230}";
},
{
name = Ohorn;
}
);
layerId = "0B1DFD06-3317-40CA-B510-4969A0718C16";
width = 755;
}
);
leftKerningGroup = O;
note = Ohornhookabove;
rightKerningGroup = O;
unicode = 1EDE;
},
{
glyphname = Ohorntilde;
lastChange = "2017-12-19 05:21:12 +0000";
layers = (
{
background = {
paths = (
{
closed = 1;
nodes = (
"602 -10 OFFCURVE",
"720 124 OFFCURVE",
"720 350 CURVE SMOOTH",
"720 574 OFFCURVE",
"602 710 OFFCURVE",
"379 710 CURVE SMOOTH",
"155 710 OFFCURVE",
"37 574 OFFCURVE",
"37 350 CURVE SMOOTH",
"37 124 OFFCURVE",
"155 -10 OFFCURVE",
"379 -10 CURVE SMOOTH"
);
},
{
closed = 1;
nodes = (
"216 32 OFFCURVE",
"136 158 OFFCURVE",
"136 350 CURVE SMOOTH",
"136 541 OFFCURVE",
"216 668 OFFCURVE",
"378 668 CURVE SMOOTH",
"542 668 OFFCURVE",
"621 541 OFFCURVE",
"621 350 CURVE SMOOTH",
"621 158 OFFCURVE",
"542 32 OFFCURVE",
"378 32 CURVE SMOOTH"
);
},
{
closed = 1;
nodes = (
"234 828 OFFCURVE",
"252 849 OFFCURVE",
"285 849 CURVE SMOOTH",
"336 849 OFFCURVE",
"385 795 OFFCURVE",
"436 795 CURVE SMOOTH",
"494 795 OFFCURVE",
"524 843 OFFCURVE",
"536 895 CURVE",
"515 906 LINE",
"499 866 OFFCURVE",
"483 844 OFFCURVE",
"449 844 CURVE SMOOTH",
"400 844 OFFCURVE",
"348 897 OFFCURVE",
"297 897 CURVE SMOOTH",
"243 897 OFFCURVE",
"210 853 OFFCURVE",
"198 801 CURVE",
"220 790 LINE"
);
},
{
closed = 1;
nodes = (
"691 567 OFFCURVE",
"756 632 OFFCURVE",
"756 705 CURVE SMOOTH",
"756 752 OFFCURVE",
"729 772 OFFCURVE",
"701 772 CURVE SMOOTH",
"672 772 OFFCURVE",
"656 752 OFFCURVE",
"656 729 CURVE SMOOTH",
"656 695 OFFCURVE",
"689 688 OFFCURVE",
"689 653 CURVE SMOOTH",
"689 617 OFFCURVE",
"658 588 OFFCURVE",
"623 568 CURVE",
"623 543 LINE"
);
}
);
};
components = (
{
name = tilde;
transform = "{1, 0, 0, 1, 132, 230}";
},
{
name = Ohorn;
}
);
layerId = "0B1DFD06-3317-40CA-B510-4969A0718C16";
width = 755;
}
);
leftKerningGroup = O;
note = Ohorntilde;
rightKerningGroup = O;
unicode = 1EE0;
},
{
glyphname = Ohungarumlaut;
lastChange = "2017-12-19 05:21:12 +0000";
layers = (
{
background = {
paths = (
{
closed = 1;
nodes = (
"601 -10 OFFCURVE",
"719 124 OFFCURVE",
"719 350 CURVE SMOOTH",
"719 574 OFFCURVE",
"601 710 OFFCURVE",
"378 710 CURVE SMOOTH",
"154 710 OFFCURVE",
"36 574 OFFCURVE",
"36 350 CURVE SMOOTH",
"36 124 OFFCURVE",
"154 -10 OFFCURVE",
"378 -10 CURVE SMOOTH"
);
},
{
closed = 1;
nodes = (
"215 32 OFFCURVE",
"135 158 OFFCURVE",
"135 350 CURVE SMOOTH",
"135 541 OFFCURVE",
"215 668 OFFCURVE",
"377 668 CURVE SMOOTH",
"541 668 OFFCURVE",
"620 541 OFFCURVE",
"620 350 CURVE SMOOTH",
"620 158 OFFCURVE",
"541 32 OFFCURVE",
"377 32 CURVE SMOOTH"
);
},
{
closed = 1;
nodes = (
"395 864 LINE SMOOTH",
"417 877 OFFCURVE",
"429 891 OFFCURVE",
"429 908 CURVE SMOOTH",
"429 922 OFFCURVE",
"421 937 OFFCURVE",
"399 937 CURVE SMOOTH",
"378 937 OFFCURVE",
"357 919 OFFCURVE",
"350 913 CURVE",
"236 807 LINE",
"253 782 LINE"
);
},
{
closed = 1;
nodes = (
"556 864 LINE SMOOTH",
"577 877 OFFCURVE",
"589 891 OFFCURVE",
"589 908 CURVE SMOOTH",
"589 922 OFFCURVE",
"578 937 OFFCURVE",
"556 937 CURVE SMOOTH",
"534 937 OFFCURVE",
"517 919 OFFCURVE",
"510 913 CURVE",
"396 807 LINE",
"414 782 LINE"
);
}
);
};
components = (
{
name = O;
},
{
name = hungarumlaut;
transform = "{1, 0, 0, 1, 131, 230}";
}
);
layerId = "0B1DFD06-3317-40CA-B510-4969A0718C16";
width = 755;
}
);
leftKerningGroup = O;
note = Ohungarumlaut;
rightKerningGroup = O;
unicode = 0150;
},
{
glyphname = Omacron;
lastChange = "2017-12-19 05:21:12 +0000";
layers = (
{
background = {
paths = (
{
closed = 1;
nodes = (
"601 -10 OFFCURVE",
"719 124 OFFCURVE",
"719 350 CURVE SMOOTH",
"719 574 OFFCURVE",
"601 710 OFFCURVE",
"378 710 CURVE SMOOTH",
"154 710 OFFCURVE",
"36 574 OFFCURVE",
"36 350 CURVE SMOOTH",
"36 124 OFFCURVE",
"154 -10 OFFCURVE",
"378 -10 CURVE SMOOTH"
);
},
{
closed = 1;
nodes = (
"215 32 OFFCURVE",
"135 158 OFFCURVE",
"135 350 CURVE SMOOTH",
"135 541 OFFCURVE",
"215 668 OFFCURVE",
"377 668 CURVE SMOOTH",
"541 668 OFFCURVE",
"620 541 OFFCURVE",
"620 350 CURVE SMOOTH",
"620 158 OFFCURVE",
"541 32 OFFCURVE",
"377 32 CURVE SMOOTH"
);
},
{
closed = 1;
nodes = (
"543 793 LINE",
"543 835 LINE",
"210 835 LINE",
"210 793 LINE"
);
}
);
};
components = (
{
name = O;
},
{
name = macron;
transform = "{1, 0, 0, 1, 132, 230}";
}
);
layerId = "0B1DFD06-3317-40CA-B510-4969A0718C16";
width = 755;
}
);
leftKerningGroup = O;
note = Omacron;
rightKerningGroup = O;
unicode = 014C;
},
{
glyphname = Oslash;
lastChange = "2017-12-19 05:23:21 +0000";
layers = (
{
layerId = "0B1DFD06-3317-40CA-B510-4969A0718C16";
paths = (
{
closed = 1;
nodes = (
"153 49 LINE",
"197 10 OFFCURVE",
"258 -9 OFFCURVE",
"340 -9 CURVE SMOOTH",
"544 -9 OFFCURVE",
"622 117 OFFCURVE",
"622 341 CURVE SMOOTH",
"622 480 OFFCURVE",
"596 577 OFFCURVE",
"534 639 CURVE",
"641 801 LINE",
"569 801 LINE",
"485 674 LINE",
"446 694 OFFCURVE",
"399 704 OFFCURVE",
"340 704 CURVE SMOOTH",
"134 704 OFFCURVE",
"58 582 OFFCURVE",
"58 341 CURVE SMOOTH",
"58 232 OFFCURVE",
"75 150 OFFCURVE",
"115 91 CURVE",
"3 -86 LINE",
"66 -86 LINE"
);
},
{
closed = 1;
nodes = (
"272 59 OFFCURVE",
"222 75 OFFCURVE",
"190 107 CURVE",
"497 580 LINE",
"536 533 OFFCURVE",
"547 456 OFFCURVE",
"547 341 CURVE SMOOTH",
"547 145 OFFCURVE",
"503 59 OFFCURVE",
"340 59 CURVE SMOOTH"
);
},
{
closed = 1;
nodes = (
"384 639 OFFCURVE",
"422 632 OFFCURVE",
"451 618 CURVE",
"158 157 LINE",
"140 202 OFFCURVE",
"132 262 OFFCURVE",
"132 341 CURVE SMOOTH",
"132 554 OFFCURVE",
"176 639 OFFCURVE",
"340 639 CURVE SMOOTH"
);
}
);
width = 680;
}
);
note = Oslash;
unicode = 00D8;
},
{
glyphname = OE;
lastChange = "2017-12-19 05:23:29 +0000";
layers = (
{
layerId = "0B1DFD06-3317-40CA-B510-4969A0718C16";
paths = (
{
closed = 1;
nodes = (
"507 79 LINE",
"474 66 OFFCURVE",
"402 58 OFFCURVE",
"340 58 CURVE SMOOTH",
"176 58 OFFCURVE",
"130 147 OFFCURVE",
"130 341 CURVE SMOOTH",
"130 554 OFFCURVE",
"176 641 OFFCURVE",
"340 641 CURVE SMOOTH",
"402 641 OFFCURVE",
"471 632 OFFCURVE",
"507 625 CURVE"
);
},
{
closed = 1;
nodes = (
"919 700 LINE",
"507 700 LINE SMOOTH",
"468 700 OFFCURVE",
"396 704 OFFCURVE",
"340 704 CURVE SMOOTH",
"134 704 OFFCURVE",
"58 582 OFFCURVE",
"58 341 CURVE SMOOTH",
"58 117 OFFCURVE",
"137 -9 OFFCURVE",
"340 -9 CURVE SMOOTH",
"413 -9 OFFCURVE",
"482 0 OFFCURVE",
"507 0 CURVE SMOOTH",
"914 0 LINE",
"914 60 LINE",
"579 60 LINE",
"579 343 LINE",
"876 343 LINE",
"876 403 LINE",
"579 403 LINE",
"579 639 LINE",
"919 639 LINE"
);
}
);
width = 948;
}
);
note = OE;
unicode = 0152;
},
{
glyphname = Thorn;
lastChange = "2017-12-19 05:23:29 +0000";
layers = (
{
layerId = "0B1DFD06-3317-40CA-B510-4969A0718C16";
paths = (
{
closed = 1;
nodes = (
"181 128 LINE",
"347 128 LINE SMOOTH",
"537 128 OFFCURVE",
"588 230 OFFCURVE",
"588 363 CURVE SMOOTH",
"588 495 OFFCURVE",
"537 598 OFFCURVE",
"347 598 CURVE SMOOTH",
"181 598 LINE",
"181 700 LINE",
"109 700 LINE",
"109 0 LINE",
"181 0 LINE"
);
},
{
closed = 1;
nodes = (
"181 537 LINE",
"347 537 LINE SMOOTH",
"484 537 OFFCURVE",
"514 467 OFFCURVE",
"514 363 CURVE SMOOTH",
"514 259 OFFCURVE",
"484 187 OFFCURVE",
"347 187 CURVE SMOOTH",
"181 187 LINE"
);
}
);
width = 641;
}
);
note = Thorn;
unicode = 00DE;
},
{
color = 0;
glyphname = Germandbls;
lastChange = "2017-12-19 05:23:49 +0000";
layers = (
{
layerId = "0B1DFD06-3317-40CA-B510-4969A0718C16";
paths = (
{
closed = 1;
nodes = (
"606 -10 OFFCURVE",
"674 88 OFFCURVE",
"674 203 CURVE SMOOTH",
"674 313 OFFCURVE",
"592 385 OFFCURVE",
"445 398 CURVE",
"591 553 LINE",
"569 627 OFFCURVE",
"489 710 OFFCURVE",
"354 710 CURVE SMOOTH",
"177 710 OFFCURVE",
"92 616 OFFCURVE",
"92 470 CURVE SMOOTH",
"92 62 LINE SMOOTH",
"92 37 OFFCURVE",
"72 26 OFFCURVE",
"33 26 CURVE SMOOTH",
"5 26 LINE",
"5 0 LINE",
"255 0 LINE",
"255 26 LINE",
"227 26 LINE SMOOTH",
"202 26 OFFCURVE",
"188 44 OFFCURVE",
"188 63 CURVE SMOOTH",
"188 495 LINE SMOOTH",
"188 602 OFFCURVE",
"246 668 OFFCURVE",
"347 668 CURVE SMOOTH",
"431 668 OFFCURVE",
"479 617 OFFCURVE",
"499 555 CURVE",
"344 387 LINE",
"344 361 LINE",
"406 361 LINE SMOOTH",
"520 361 OFFCURVE",
"578 296 OFFCURVE",
"578 203 CURVE SMOOTH",
"578 100 OFFCURVE",
"521 29 OFFCURVE",
"419 29 CURVE SMOOTH",
"374 29 OFFCURVE",
"324 37 OFFCURVE",
"277 56 CURVE",
"277 14 LINE",
"318 -2 OFFCURVE",
"367 -10 OFFCURVE",
"423 -10 CURVE SMOOTH"
);
}
);
width = 703;
}
);
note = uni1E9E;
unicode = 1E9E;
},
{
color = 0;
glyphname = Schwa;
lastChange = "2017-12-19 05:23:49 +0000";
layers = (
{
layerId = "0B1DFD06-3317-40CA-B510-4969A0718C16";
paths = (
{
closed = 1;
nodes = (
"543 -10 OFFCURVE",
"658 120 OFFCURVE",
"658 346 CURVE SMOOTH",
"658 569 OFFCURVE",
"533 710 OFFCURVE",
"323 710 CURVE SMOOTH",
"160 710 OFFCURVE",
"56 618 OFFCURVE",
"41 500 CURVE",
"84 500 LINE",
"111 616 OFFCURVE",
"202 660 OFFCURVE",
"298 660 CURVE SMOOTH",
"479 660 OFFCURVE",
"559 515 OFFCURVE",
"559 341 CURVE SMOOTH",
"559 185 OFFCURVE",
"486 39 OFFCURVE",
"327 39 CURVE SMOOTH",
"181 39 OFFCURVE",
"133 180 OFFCURVE",
"132 283 CURVE",
"573 283 LINE",
"573 333 LINE",
"33 333 LINE",
"33 303 LINE SMOOTH",
"33 132 OFFCURVE",
"119 -10 OFFCURVE",
"330 -10 CURVE SMOOTH"
);
}
);
width = 692;
}
);
note = uni018F;
unicode = 018F;
},
{
glyphname = Tbar;
lastChange = "2017-12-19 05:21:12 +0000";
layers = (
{
components = (
{
name = T;
}
);
layerId = "0B1DFD06-3317-40CA-B510-4969A0718C16";
paths = (
{
closed = 1;
nodes = (
"520 317 LINE",
"520 363 LINE",
"134 363 LINE",
"134 317 LINE"
);
}
);
width = 652;
}
);
leftKerningGroup = T;
note = Tbar;
rightKerningGroup = T;
unicode = 0166;
},
{
glyphname = Uacute;
lastChange = "2017-12-19 05:21:12 +0000";
layers = (
{
background = {
paths = (
{
closed = 1;
nodes = (
"539 -10 OFFCURVE",
"636 51 OFFCURVE",
"636 204 CURVE SMOOTH",
"636 637 LINE SMOOTH",
"636 662 OFFCURVE",
"660 673 OFFCURVE",
"690 673 CURVE SMOOTH",
"713 673 LINE",
"713 700 LINE",
"510 700 LINE",
"510 673 LINE",
"532 673 LINE SMOOTH",
"564 673 OFFCURVE",
"586 662 OFFCURVE",
"586 637 CURVE SMOOTH",
"586 197 LINE SMOOTH",
"586 65 OFFCURVE",
"489 31 OFFCURVE",
"397 31 CURVE SMOOTH",
"290 31 OFFCURVE",
"203 63 OFFCURVE",
"203 197 CURVE SMOOTH",
"203 637 LINE SMOOTH",
"203 662 OFFCURVE",
"226 673 OFFCURVE",
"257 673 CURVE SMOOTH",
"280 673 LINE",
"280 700 LINE",
"28 700 LINE",
"28 673 LINE",
"51 673 LINE SMOOTH",
"82 673 OFFCURVE",
"105 662 OFFCURVE",
"105 637 CURVE SMOOTH",
"105 204 LINE SMOOTH",
"105 46 OFFCURVE",
"208 -10 OFFCURVE",
"375 -10 CURVE SMOOTH"
);
},
{
closed = 1;
nodes = (
"447 865 LINE SMOOTH",
"469 877 OFFCURVE",
"481 890 OFFCURVE",
"481 907 CURVE SMOOTH",
"481 922 OFFCURVE",
"469 937 OFFCURVE",
"447 937 CURVE SMOOTH",
"426 937 OFFCURVE",
"411 921 OFFCURVE",
"403 914 CURVE SMOOTH",
"288 807 LINE",
"305 782 LINE"
);
}
);
};
components = (
{
name = U;
},
{
name = acute;
transform = "{1, 0, 0, 1, 136, 230}";
}
);
layerId = "0B1DFD06-3317-40CA-B510-4969A0718C16";
width = 742;
}
);
leftKerningGroup = U;
note = Uacute;
rightKerningGroup = U;
unicode = 00DA;
},
{
glyphname = Ubreve;
lastChange = "2017-12-19 05:21:12 +0000";
layers = (
{
background = {
paths = (
{
closed = 1;
nodes = (
"539 -10 OFFCURVE",
"636 51 OFFCURVE",
"636 204 CURVE SMOOTH",
"636 637 LINE SMOOTH",
"636 662 OFFCURVE",
"660 673 OFFCURVE",
"690 673 CURVE SMOOTH",
"713 673 LINE",
"713 700 LINE",
"510 700 LINE",
"510 673 LINE",
"532 673 LINE SMOOTH",
"564 673 OFFCURVE",
"586 662 OFFCURVE",
"586 637 CURVE SMOOTH",
"586 197 LINE SMOOTH",
"586 65 OFFCURVE",
"489 31 OFFCURVE",
"397 31 CURVE SMOOTH",
"290 31 OFFCURVE",
"203 63 OFFCURVE",
"203 197 CURVE SMOOTH",
"203 637 LINE SMOOTH",
"203 662 OFFCURVE",
"226 673 OFFCURVE",
"257 673 CURVE SMOOTH",
"280 673 LINE",
"280 700 LINE",
"28 700 LINE",
"28 673 LINE",
"51 673 LINE SMOOTH",
"82 673 OFFCURVE",
"105 662 OFFCURVE",
"105 637 CURVE SMOOTH",
"105 204 LINE SMOOTH",
"105 46 OFFCURVE",
"208 -10 OFFCURVE",
"375 -10 CURVE SMOOTH"
);
},
{
closed = 1;
nodes = (
"483 774 OFFCURVE",
"525 830 OFFCURVE",
"529 905 CURVE",
"496 905 LINE",
"490 846 OFFCURVE",
"448 820 OFFCURVE",
"384 820 CURVE SMOOTH",
"320 820 OFFCURVE",
"277 846 OFFCURVE",
"270 905 CURVE",
"237 905 LINE",
"241 827 OFFCURVE",
"283 774 OFFCURVE",
"384 774 CURVE SMOOTH"
);
}
);
};
components = (
{
name = U;
},
{
name = breve;
transform = "{1, 0, 0, 1, 148, 230}";
}
);
layerId = "0B1DFD06-3317-40CA-B510-4969A0718C16";
width = 742;
}
);
leftKerningGroup = U;
note = Ubreve;
rightKerningGroup = U;
unicode = 016C;
},
{
glyphname = Ucaron;
lastChange = "2017-12-19 05:21:12 +0000";
layers = (
{
background = {
paths = (
{
closed = 1;
nodes = (
"539 -10 OFFCURVE",
"636 51 OFFCURVE",
"636 204 CURVE SMOOTH",
"636 637 LINE SMOOTH",
"636 662 OFFCURVE",
"660 673 OFFCURVE",
"690 673 CURVE SMOOTH",
"713 673 LINE",
"713 700 LINE",
"510 700 LINE",
"510 673 LINE",
"532 673 LINE SMOOTH",
"564 673 OFFCURVE",
"586 662 OFFCURVE",
"586 637 CURVE SMOOTH",
"586 197 LINE SMOOTH",
"586 65 OFFCURVE",
"489 31 OFFCURVE",
"397 31 CURVE SMOOTH",
"290 31 OFFCURVE",
"203 63 OFFCURVE",
"203 197 CURVE SMOOTH",
"203 637 LINE SMOOTH",
"203 662 OFFCURVE",
"226 673 OFFCURVE",
"257 673 CURVE SMOOTH",
"280 673 LINE",
"280 700 LINE",
"28 700 LINE",
"28 673 LINE",
"51 673 LINE SMOOTH",
"82 673 OFFCURVE",
"105 662 OFFCURVE",
"105 637 CURVE SMOOTH",
"105 204 LINE SMOOTH",
"105 46 OFFCURVE",
"208 -10 OFFCURVE",
"375 -10 CURVE SMOOTH"
);
},
{
closed = 1;
nodes = (
"397 782 LINE",
"521 911 LINE",
"502 932 LINE",
"394 847 LINE",
"386 840 OFFCURVE",
"377 836 OFFCURVE",
"371 836 CURVE SMOOTH",
"365 836 OFFCURVE",
"357 840 OFFCURVE",
"347 847 CURVE",
"239 932 LINE",
"220 911 LINE",
"344 782 LINE"
);
}
);
};
components = (
{
name = U;
},
{
name = caron;
transform = "{1, 0, 0, 1, 148, 230}";
}
);
layerId = "0B1DFD06-3317-40CA-B510-4969A0718C16";
width = 742;
}
);
leftKerningGroup = U;
note = Ucaron;
rightKerningGroup = U;
unicode = 01D3;
},
{
glyphname = Ucircumflex;
lastChange = "2017-12-19 05:21:12 +0000";
layers = (
{
background = {
paths = (
{
closed = 1;
nodes = (
"539 -10 OFFCURVE",
"636 51 OFFCURVE",
"636 204 CURVE SMOOTH",
"636 637 LINE SMOOTH",
"636 662 OFFCURVE",
"660 673 OFFCURVE",
"690 673 CURVE SMOOTH",
"713 673 LINE",
"713 700 LINE",
"510 700 LINE",
"510 673 LINE",
"532 673 LINE SMOOTH",
"564 673 OFFCURVE",
"586 662 OFFCURVE",
"586 637 CURVE SMOOTH",
"586 197 LINE SMOOTH",
"586 65 OFFCURVE",
"489 31 OFFCURVE",
"397 31 CURVE SMOOTH",
"290 31 OFFCURVE",
"203 63 OFFCURVE",
"203 197 CURVE SMOOTH",
"203 637 LINE SMOOTH",
"203 662 OFFCURVE",
"226 673 OFFCURVE",
"257 673 CURVE SMOOTH",
"280 673 LINE",
"280 700 LINE",
"28 700 LINE",
"28 673 LINE",
"51 673 LINE SMOOTH",
"82 673 OFFCURVE",
"105 662 OFFCURVE",
"105 637 CURVE SMOOTH",
"105 204 LINE SMOOTH",
"105 46 OFFCURVE",
"208 -10 OFFCURVE",
"375 -10 CURVE SMOOTH"
);
},
{
closed = 1;
nodes = (
"360 868 LINE SMOOTH",
"368 874 OFFCURVE",
"378 879 OFFCURVE",
"384 879 CURVE SMOOTH",
"390 879 OFFCURVE",
"398 874 OFFCURVE",
"407 868 CURVE",
"515 782 LINE",
"534 803 LINE",
"410 932 LINE",
"357 932 LINE",
"233 803 LINE",
"252 782 LINE"
);
}
);
};
components = (
{
name = U;
},
{
name = circumflex;
transform = "{1, 0, 0, 1, 148, 230}";
}
);
layerId = "0B1DFD06-3317-40CA-B510-4969A0718C16";
width = 742;
}
);
leftKerningGroup = U;
note = Ucircumflex;
rightKerningGroup = U;
unicode = 00DB;
},
{
glyphname = Udieresis;
lastChange = "2017-12-19 05:21:12 +0000";
layers = (
{
background = {
paths = (
{
closed = 1;
nodes = (
"539 -10 OFFCURVE",
"636 51 OFFCURVE",
"636 204 CURVE SMOOTH",
"636 637 LINE SMOOTH",
"636 662 OFFCURVE",
"660 673 OFFCURVE",
"690 673 CURVE SMOOTH",
"713 673 LINE",
"713 700 LINE",
"510 700 LINE",
"510 673 LINE",
"532 673 LINE SMOOTH",
"564 673 OFFCURVE",
"586 662 OFFCURVE",
"586 637 CURVE SMOOTH",
"586 197 LINE SMOOTH",
"586 65 OFFCURVE",
"489 31 OFFCURVE",
"397 31 CURVE SMOOTH",
"290 31 OFFCURVE",
"203 63 OFFCURVE",
"203 197 CURVE SMOOTH",
"203 637 LINE SMOOTH",
"203 662 OFFCURVE",
"226 673 OFFCURVE",
"257 673 CURVE SMOOTH",
"280 673 LINE",
"280 700 LINE",
"28 700 LINE",
"28 673 LINE",
"51 673 LINE SMOOTH",
"82 673 OFFCURVE",
"105 662 OFFCURVE",
"105 637 CURVE SMOOTH",
"105 204 LINE SMOOTH",
"105 46 OFFCURVE",
"208 -10 OFFCURVE",
"375 -10 CURVE SMOOTH"
);
},
{
closed = 1;
nodes = (
"304 781 OFFCURVE",
"322 800 OFFCURVE",
"322 827 CURVE SMOOTH",
"322 855 OFFCURVE",
"304 875 OFFCURVE",
"275 875 CURVE SMOOTH",
"247 875 OFFCURVE",
"229 855 OFFCURVE",
"229 827 CURVE SMOOTH",
"229 800 OFFCURVE",
"247 781 OFFCURVE",
"275 781 CURVE SMOOTH"
);
},
{
closed = 1;
nodes = (
"520 781 OFFCURVE",
"538 800 OFFCURVE",
"538 827 CURVE SMOOTH",
"538 855 OFFCURVE",
"520 875 OFFCURVE",
"491 875 CURVE SMOOTH",
"462 875 OFFCURVE",
"444 855 OFFCURVE",
"444 827 CURVE SMOOTH",
"444 800 OFFCURVE",
"462 781 OFFCURVE",
"491 781 CURVE SMOOTH"
);
}
);
};
components = (
{
name = U;
},
{
name = dieresis;
transform = "{1, 0, 0, 1, 148, 230}";
}
);
layerId = "0B1DFD06-3317-40CA-B510-4969A0718C16";
width = 742;
}
);
leftKerningGroup = U;
note = Udieresis;
rightKerningGroup = U;
unicode = 00DC;
},
{
glyphname = Udieresisacute;
lastChange = "2017-12-19 05:21:12 +0000";
layers = (
{
background = {
paths = (
{
closed = 1;
nodes = (
"539 -10 OFFCURVE",
"636 51 OFFCURVE",
"636 204 CURVE SMOOTH",
"636 637 LINE SMOOTH",
"636 662 OFFCURVE",
"660 673 OFFCURVE",
"690 673 CURVE SMOOTH",
"713 673 LINE",
"713 700 LINE",
"510 700 LINE",
"510 673 LINE",
"532 673 LINE SMOOTH",
"564 673 OFFCURVE",
"586 662 OFFCURVE",
"586 637 CURVE SMOOTH",
"586 197 LINE SMOOTH",
"586 65 OFFCURVE",
"489 31 OFFCURVE",
"397 31 CURVE SMOOTH",
"290 31 OFFCURVE",
"203 63 OFFCURVE",
"203 197 CURVE SMOOTH",
"203 637 LINE SMOOTH",
"203 662 OFFCURVE",
"226 673 OFFCURVE",
"257 673 CURVE SMOOTH",
"280 673 LINE",
"280 700 LINE",
"28 700 LINE",
"28 673 LINE",
"51 673 LINE SMOOTH",
"82 673 OFFCURVE",
"105 662 OFFCURVE",
"105 637 CURVE SMOOTH",
"105 204 LINE SMOOTH",
"105 46 OFFCURVE",
"208 -10 OFFCURVE",
"375 -10 CURVE SMOOTH"
);
},
{
closed = 1;
nodes = (
"291 780 OFFCURVE",
"310 799 OFFCURVE",
"310 827 CURVE SMOOTH",
"310 855 OFFCURVE",
"291 875 OFFCURVE",
"262 875 CURVE SMOOTH",
"235 875 OFFCURVE",
"216 855 OFFCURVE",
"216 827 CURVE SMOOTH",
"216 799 OFFCURVE",
"235 780 OFFCURVE",
"262 780 CURVE SMOOTH"
);
},
{
closed = 1;
nodes = (
"507 780 OFFCURVE",
"526 799 OFFCURVE",
"526 827 CURVE SMOOTH",
"526 855 OFFCURVE",
"507 875 OFFCURVE",
"479 875 CURVE SMOOTH",
"451 875 OFFCURVE",
"432 855 OFFCURVE",
"432 827 CURVE SMOOTH",
"432 799 OFFCURVE",
"451 780 OFFCURVE",
"479 780 CURVE SMOOTH"
);
},
{
closed = 1;
nodes = (
"481 969 LINE SMOOTH",
"502 981 OFFCURVE",
"512 993 OFFCURVE",
"512 1009 CURVE SMOOTH",
"512 1024 OFFCURVE",
"503 1037 OFFCURVE",
"481 1037 CURVE SMOOTH",
"460 1037 OFFCURVE",
"442 1020 OFFCURVE",
"435 1013 CURVE SMOOTH",
"344 924 LINE",
"362 899 LINE"
);
}
);
};
components = (
{
name = U;
},
{
name = dieresisacute;
transform = "{1, 0, 0, 1, 149, 230}";
}
);
layerId = "0B1DFD06-3317-40CA-B510-4969A0718C16";
width = 742;
}
);
leftKerningGroup = U;
note = Udieresisacute;
rightKerningGroup = U;
unicode = 01D7;
},
{
glyphname = Udieresiscaron;
lastChange = "2017-12-19 05:21:12 +0000";
layers = (
{
background = {
paths = (
{
closed = 1;
nodes = (
"539 -10 OFFCURVE",
"636 51 OFFCURVE",
"636 204 CURVE SMOOTH",
"636 637 LINE SMOOTH",
"636 662 OFFCURVE",
"660 673 OFFCURVE",
"690 673 CURVE SMOOTH",
"713 673 LINE",
"713 700 LINE",
"510 700 LINE",
"510 673 LINE",
"532 673 LINE SMOOTH",
"564 673 OFFCURVE",
"586 662 OFFCURVE",
"586 637 CURVE SMOOTH",
"586 197 LINE SMOOTH",
"586 65 OFFCURVE",
"489 31 OFFCURVE",
"397 31 CURVE SMOOTH",
"290 31 OFFCURVE",
"203 63 OFFCURVE",
"203 197 CURVE SMOOTH",
"203 637 LINE SMOOTH",
"203 662 OFFCURVE",
"226 673 OFFCURVE",
"257 673 CURVE SMOOTH",
"280 673 LINE",
"280 700 LINE",
"28 700 LINE",
"28 673 LINE",
"51 673 LINE SMOOTH",
"82 673 OFFCURVE",
"105 662 OFFCURVE",
"105 637 CURVE SMOOTH",
"105 204 LINE SMOOTH",
"105 46 OFFCURVE",
"208 -10 OFFCURVE",
"375 -10 CURVE SMOOTH"
);
},
{
closed = 1;
nodes = (
"296 780 OFFCURVE",
"315 799 OFFCURVE",
"315 827 CURVE SMOOTH",
"315 855 OFFCURVE",
"296 875 OFFCURVE",
"267 875 CURVE SMOOTH",
"240 875 OFFCURVE",
"221 855 OFFCURVE",
"221 827 CURVE SMOOTH",
"221 799 OFFCURVE",
"240 780 OFFCURVE",
"267 780 CURVE SMOOTH"
);
},
{
closed = 1;
nodes = (
"512 780 OFFCURVE",
"531 799 OFFCURVE",
"531 827 CURVE SMOOTH",
"531 855 OFFCURVE",
"512 875 OFFCURVE",
"484 875 CURVE SMOOTH",
"456 875 OFFCURVE",
"437 855 OFFCURVE",
"437 827 CURVE SMOOTH",
"437 799 OFFCURVE",
"456 780 OFFCURVE",
"484 780 CURVE SMOOTH"
);
},
{
closed = 1;
nodes = (
"401 911 LINE",
"523 1035 LINE",
"505 1056 LINE",
"404 978 LINE",
"394 971 OFFCURVE",
"385 963 OFFCURVE",
"376 963 CURVE SMOOTH",
"369 963 OFFCURVE",
"357 971 OFFCURVE",
"347 978 CURVE",
"246 1056 LINE",
"228 1035 LINE",
"350 911 LINE"
);
}
);
};
components = (
{
name = U;
},
{
name = dieresiscaron;
transform = "{1, 0, 0, 1, 149, 230}";
}
);
layerId = "0B1DFD06-3317-40CA-B510-4969A0718C16";
width = 742;
}
);
leftKerningGroup = U;
note = Udieresiscaron;
rightKerningGroup = U;
unicode = 01D9;
},
{
glyphname = Udieresisgrave;
lastChange = "2017-12-19 05:21:12 +0000";
layers = (
{
background = {
paths = (
{
closed = 1;
nodes = (
"539 -10 OFFCURVE",
"636 51 OFFCURVE",
"636 204 CURVE SMOOTH",
"636 637 LINE SMOOTH",
"636 662 OFFCURVE",
"660 673 OFFCURVE",
"690 673 CURVE SMOOTH",
"713 673 LINE",
"713 700 LINE",
"510 700 LINE",
"510 673 LINE",
"532 673 LINE SMOOTH",
"564 673 OFFCURVE",
"586 662 OFFCURVE",
"586 637 CURVE SMOOTH",
"586 197 LINE SMOOTH",
"586 65 OFFCURVE",
"489 31 OFFCURVE",
"397 31 CURVE SMOOTH",
"290 31 OFFCURVE",
"203 63 OFFCURVE",
"203 197 CURVE SMOOTH",
"203 637 LINE SMOOTH",
"203 662 OFFCURVE",
"226 673 OFFCURVE",
"257 673 CURVE SMOOTH",
"280 673 LINE",
"280 700 LINE",
"28 700 LINE",
"28 673 LINE",
"51 673 LINE SMOOTH",
"82 673 OFFCURVE",
"105 662 OFFCURVE",
"105 637 CURVE SMOOTH",
"105 204 LINE SMOOTH",
"105 46 OFFCURVE",
"208 -10 OFFCURVE",
"375 -10 CURVE SMOOTH"
);
},
{
closed = 1;
nodes = (
"296 780 OFFCURVE",
"315 799 OFFCURVE",
"315 827 CURVE SMOOTH",
"315 855 OFFCURVE",
"296 875 OFFCURVE",
"267 875 CURVE SMOOTH",
"240 875 OFFCURVE",
"221 855 OFFCURVE",
"221 827 CURVE SMOOTH",
"221 799 OFFCURVE",
"240 780 OFFCURVE",
"267 780 CURVE SMOOTH"
);
},
{
closed = 1;
nodes = (
"403 924 LINE",
"312 1013 LINE SMOOTH",
"305 1020 OFFCURVE",
"288 1036 OFFCURVE",
"267 1036 CURVE SMOOTH",
"245 1036 OFFCURVE",
"235 1024 OFFCURVE",
"235 1009 CURVE SMOOTH",
"235 993 OFFCURVE",
"245 981 OFFCURVE",
"266 969 CURVE SMOOTH",
"385 899 LINE"
);
},
{
closed = 1;
nodes = (
"512 780 OFFCURVE",
"531 799 OFFCURVE",
"531 827 CURVE SMOOTH",
"531 855 OFFCURVE",
"512 875 OFFCURVE",
"484 875 CURVE SMOOTH",
"456 875 OFFCURVE",
"437 855 OFFCURVE",
"437 827 CURVE SMOOTH",
"437 799 OFFCURVE",
"456 780 OFFCURVE",
"484 780 CURVE SMOOTH"
);
}
);
};
components = (
{
name = U;
},
{
name = dieresisgrave;
transform = "{1, 0, 0, 1, 149, 230}";
}
);
layerId = "0B1DFD06-3317-40CA-B510-4969A0718C16";
width = 742;
}
);
leftKerningGroup = U;
note = Udieresisgrave;
rightKerningGroup = U;
unicode = 01DB;
},
{
glyphname = Udieresismacron;
lastChange = "2017-12-19 05:21:12 +0000";
layers = (
{
background = {
paths = (
{
closed = 1;
nodes = (
"539 -10 OFFCURVE",
"636 51 OFFCURVE",
"636 204 CURVE SMOOTH",
"636 637 LINE SMOOTH",
"636 662 OFFCURVE",
"660 673 OFFCURVE",
"690 673 CURVE SMOOTH",
"713 673 LINE",
"713 700 LINE",
"510 700 LINE",
"510 673 LINE",
"532 673 LINE SMOOTH",
"564 673 OFFCURVE",
"586 662 OFFCURVE",
"586 637 CURVE SMOOTH",
"586 197 LINE SMOOTH",
"586 65 OFFCURVE",
"489 31 OFFCURVE",
"397 31 CURVE SMOOTH",
"290 31 OFFCURVE",
"203 63 OFFCURVE",
"203 197 CURVE SMOOTH",
"203 637 LINE SMOOTH",
"203 662 OFFCURVE",
"226 673 OFFCURVE",
"257 673 CURVE SMOOTH",
"280 673 LINE",
"280 700 LINE",
"28 700 LINE",
"28 673 LINE",
"51 673 LINE SMOOTH",
"82 673 OFFCURVE",
"105 662 OFFCURVE",
"105 637 CURVE SMOOTH",
"105 204 LINE SMOOTH",
"105 46 OFFCURVE",
"208 -10 OFFCURVE",
"375 -10 CURVE SMOOTH"
);
},
{
closed = 1;
nodes = (
"291 781 OFFCURVE",
"309 800 OFFCURVE",
"309 827 CURVE SMOOTH",
"309 855 OFFCURVE",
"291 875 OFFCURVE",
"262 875 CURVE SMOOTH",
"234 875 OFFCURVE",
"216 855 OFFCURVE",
"216 827 CURVE SMOOTH",
"216 800 OFFCURVE",
"234 781 OFFCURVE",
"262 781 CURVE SMOOTH"
);
},
{
closed = 1;
nodes = (
"507 781 OFFCURVE",
"525 800 OFFCURVE",
"525 827 CURVE SMOOTH",
"525 855 OFFCURVE",
"507 875 OFFCURVE",
"478 875 CURVE SMOOTH",
"449 875 OFFCURVE",
"431 855 OFFCURVE",
"431 827 CURVE SMOOTH",
"431 800 OFFCURVE",
"449 781 OFFCURVE",
"478 781 CURVE SMOOTH"
);
},
{
closed = 1;
nodes = (
"537 928 LINE",
"537 970 LINE",
"204 970 LINE",
"204 928 LINE"
);
}
);
};
components = (
{
name = U;
},
{
name = dieresis;
transform = "{1, 0, 0, 1, 148, 230}";
},
{
alignment = -1;
name = macron;
transform = "{1, 0, 0, 1, 145, 356}";
}
);
layerId = "0B1DFD06-3317-40CA-B510-4969A0718C16";
width = 742;
}
);
leftKerningGroup = U;
note = Udieresismacron;
rightKerningGroup = U;
unicode = 01D5;
},
{
glyphname = Uhorn;
lastChange = "2017-12-19 05:23:59 +0000";
layers = (
{
layerId = "0B1DFD06-3317-40CA-B510-4969A0718C16";
paths = (
{
closed = 1;
nodes = (
"622 552 LINE",
"723 556 OFFCURVE",
"780 655 OFFCURVE",
"766 769 CURVE",
"698 747 LINE",
"710 690 OFFCURVE",
"697 609 OFFCURVE",
"622 605 CURVE",
"622 700 LINE",
"550 700 LINE",
"550 344 LINE SMOOTH",
"550 287 OFFCURVE",
"553 240 OFFCURVE",
"553 202 CURVE SMOOTH",
"553 157 OFFCURVE",
"550 121 OFFCURVE",
"528 99 CURVE",
"500 66 OFFCURVE",
"422 52 OFFCURVE",
"351 52 CURVE SMOOTH",
"278 52 OFFCURVE",
"210 66 OFFCURVE",
"180 99 CURVE",
"158 121 OFFCURVE",
"156 157 OFFCURVE",
"156 202 CURVE SMOOTH",
"156 240 OFFCURVE",
"158 287 OFFCURVE",
"158 344 CURVE SMOOTH",
"158 700 LINE",
"86 700 LINE",
"86 232 LINE SMOOTH",
"86 141 OFFCURVE",
"91 98 OFFCURVE",
"124 62 CURVE SMOOTH",
"179 -1 OFFCURVE",
"289 -9 OFFCURVE",
"351 -9 CURVE SMOOTH",
"415 -9 OFFCURVE",
"527 1 OFFCURVE",
"585 62 CURVE",
"615 101 OFFCURVE",
"622 141 OFFCURVE",
"622 232 CURVE SMOOTH"
);
}
);
width = 708;
}
);
note = Uhorn;
unicode = 01AF;
},
{
color = 0;
glyphname = "alpha-latin";
lastChange = "2017-12-19 05:24:05 +0000";
layers = (
{
layerId = "0B1DFD06-3317-40CA-B510-4969A0718C16";
paths = (
{
closed = 1;
nodes = (
"304 -10 OFFCURVE",
"357 10 OFFCURVE",
"393 69 CURVE",
"393 37 LINE SMOOTH",
"393 0 OFFCURVE",
"429 -10 OFFCURVE",
"461 -10 CURVE SMOOTH",
"491 -10 OFFCURVE",
"523 -1 OFFCURVE",
"545 17 CURVE",
"545 34 LINE",
"531 29 OFFCURVE",
"519 26 OFFCURVE",
"510 26 CURVE SMOOTH",
"494 26 OFFCURVE",
"486 36 OFFCURVE",
"486 58 CURVE SMOOTH",
"486 403 LINE",
"452 444 OFFCURVE",
"374 480 OFFCURVE",
"279 480 CURVE SMOOTH",
"141 480 OFFCURVE",
"26 405 OFFCURVE",
"26 215 CURVE SMOOTH",
"26 67 OFFCURVE",
"96 -10 OFFCURVE",
"234 -10 CURVE SMOOTH"
);
},
{
closed = 1;
nodes = (
"152 28 OFFCURVE",
"119 116 OFFCURVE",
"119 222 CURVE SMOOTH",
"119 370 OFFCURVE",
"183 441 OFFCURVE",
"279 441 CURVE SMOOTH",
"330 441 OFFCURVE",
"368 421 OFFCURVE",
"392 398 CURVE",
"392 169 LINE SMOOTH",
"392 98 OFFCURVE",
"346 28 OFFCURVE",
"255 28 CURVE SMOOTH"
);
}
);
width = 558;
}
);
leftKerningGroup = a;
note = ascript;
rightKerningGroup = a;
unicode = 0251;
},
{
glyphname = ae;
lastChange = "2017-12-19 05:24:13 +0000";
layers = (
{
layerId = "0B1DFD06-3317-40CA-B510-4969A0718C16";
paths = (
{
closed = 1;
nodes = (
"837 282 LINE",
"837 459 OFFCURVE",
"770 580 OFFCURVE",
"616 580 CURVE SMOOTH",
"530 580 OFFCURVE",
"480 536 OFFCURVE",
"441 478 CURVE",
"416 541 OFFCURVE",
"361 580 OFFCURVE",
"265 580 CURVE SMOOTH",
"186 580 OFFCURVE",
"104 544 OFFCURVE",
"46 452 CURVE",
"96 425 LINE",
"141 490 OFFCURVE",
"194 528 OFFCURVE",
"262 528 CURVE SMOOTH",
"360 528 OFFCURVE",
"393 490 OFFCURVE",
"393 413 CURVE SMOOTH",
"393 338 LINE",
"151 338 OFFCURVE",
"29 305 OFFCURVE",
"29 153 CURVE SMOOTH",
"29 56 OFFCURVE",
"96 -12 OFFCURVE",
"184 -12 CURVE SMOOTH",
"298 -12 OFFCURVE",
"364 23 OFFCURVE",
"433 96 CURVE",
"475 27 OFFCURVE",
"530 -12 OFFCURVE",
"618 -12 CURVE SMOOTH",
"727 -12 OFFCURVE",
"796 26 OFFCURVE",
"842 128 CURVE",
"789 156 LINE",
"747 68 OFFCURVE",
"697 42 OFFCURVE",
"624 42 CURVE SMOOTH",
"492 42 OFFCURVE",
"455 153 OFFCURVE",
"455 282 CURVE"
);
},
{
closed = 1;
nodes = (
"390 135 LINE",
"340 78 OFFCURVE",
"284 42 OFFCURVE",
"196 42 CURVE SMOOTH",
"137 42 OFFCURVE",
"89 91 OFFCURVE",
"89 154 CURVE SMOOTH",
"89 223 OFFCURVE",
"137 285 OFFCURVE",
"390 285 CURVE"
);
},
{
closed = 1;
nodes = (
"455 336 LINE",
"455 425 OFFCURVE",
"498 528 OFFCURVE",
"613 528 CURVE SMOOTH",
"727 528 OFFCURVE",
"759 452 OFFCURVE",
"770 336 CURVE"
);
}
);
width = 897;
}
);
note = ae;
unicode = 00E6;
},
{
glyphname = eth;
lastChange = "2017-12-19 05:24:27 +0000";
layers = (
{
layerId = "0B1DFD06-3317-40CA-B510-4969A0718C16";
paths = (
{
closed = 1;
nodes = (
"393 528 OFFCURVE",
"442 441 OFFCURVE",
"442 285 CURVE SMOOTH",
"442 130 OFFCURVE",
"393 42 OFFCURVE",
"274 42 CURVE SMOOTH",
"154 42 OFFCURVE",
"105 130 OFFCURVE",
"105 285 CURVE SMOOTH",
"105 441 OFFCURVE",
"154 528 OFFCURVE",
"274 528 CURVE SMOOTH"
);
},
{
closed = 1;
nodes = (
"190 762 LINE",
"220 744 OFFCURVE",
"246 726 OFFCURVE",
"269 703 CURVE",
"167 649 LINE",
"199 606 LINE",
"310 665 LINE",
"340 632 OFFCURVE",
"363 595 OFFCURVE",
"384 559 CURVE",
"382 556 LINE",
"351 572 OFFCURVE",
"315 580 OFFCURVE",
"274 580 CURVE SMOOTH",
"96 580 OFFCURVE",
"40 439 OFFCURVE",
"40 285 CURVE SMOOTH",
"40 130 OFFCURVE",
"96 -12 OFFCURVE",
"274 -12 CURVE SMOOTH",
"452 -12 OFFCURVE",
"507 130 OFFCURVE",
"507 285 CURVE SMOOTH",
"507 422 OFFCURVE",
"481 573 OFFCURVE",
"366 693 CURVE",
"468 747 LINE",
"436 791 LINE",
"325 732 LINE",
"302 753 OFFCURVE",
"276 772 OFFCURVE",
"249 791 CURVE"
);
}
);
width = 547;
}
);
note = eth;
unicode = 00F0;
},
{
color = 0;
glyphname = dcaron;
lastChange = "2017-12-19 05:24:30 +0000";
layers = (
{
layerId = "0B1DFD06-3317-40CA-B510-4969A0718C16";
paths = (
{
closed = 1;
nodes = (
"321 -10 OFFCURVE",
"381 14 OFFCURVE",
"417 74 CURVE",
"422 -4 LINE",
"564 11 LINE",
"564 34 LINE",
"541 34 LINE SMOOTH",
"513 34 OFFCURVE",
"499 44 OFFCURVE",
"499 69 CURVE SMOOTH",
"499 717 LINE",
"474 717 LINE",
"349 672 LINE",
"355 649 LINE",
"365 653 OFFCURVE",
"377 657 OFFCURVE",
"385 657 CURVE SMOOTH",
"394 657 OFFCURVE",
"405 654 OFFCURVE",
"405 636 CURVE SMOOTH",
"405 410 LINE",
"363 467 OFFCURVE",
"298 480 OFFCURVE",
"242 480 CURVE SMOOTH",
"123 480 OFFCURVE",
"31 401 OFFCURVE",
"31 245 CURVE SMOOTH",
"31 60 OFFCURVE",
"118 -10 OFFCURVE",
"243 -10 CURVE SMOOTH"
);
},
{
closed = 1;
nodes = (
"160 28 OFFCURVE",
"124 120 OFFCURVE",
"124 242 CURVE SMOOTH",
"124 372 OFFCURVE",
"176 440 OFFCURVE",
"275 440 CURVE SMOOTH",
"337 440 OFFCURVE",
"406 392 OFFCURVE",
"406 320 CURVE SMOOTH",
"406 168 LINE SMOOTH",
"406 97 OFFCURVE",
"357 28 OFFCURVE",
"269 28 CURVE SMOOTH"
);
},
{
closed = 1;
nodes = (
"630 523 OFFCURVE",
"674 583 OFFCURVE",
"674 646 CURVE SMOOTH",
"674 694 OFFCURVE",
"650 714 OFFCURVE",
"621 714 CURVE SMOOTH",
"592 714 OFFCURVE",
"575 694 OFFCURVE",
"575 670 CURVE SMOOTH",
"575 636 OFFCURVE",
"610 629 OFFCURVE",
"610 594 CURVE SMOOTH",
"610 558 OFFCURVE",
"584 525 OFFCURVE",
"557 499 CURVE",
"574 482 LINE"
);
}
);
width = 686;
}
);
leftKerningGroup = d;
note = dcaron;
unicode = 010F;
},
{
glyphname = dcroat;
lastChange = "2017-12-19 05:24:27 +0000";
layers = (
{
layerId = "0B1DFD06-3317-40CA-B510-4969A0718C16";
paths = (
{
closed = 1;
nodes = (
"501 714 LINE",
"501 791 LINE",
"435 791 LINE",
"435 714 LINE",
"291 714 LINE",
"291 664 LINE",
"435 664 LINE",
"435 524 LINE",
"395 549 OFFCURVE",
"312 580 OFFCURVE",
"236 580 CURVE SMOOTH",
"88 580 OFFCURVE",
"40 471 OFFCURVE",
"40 288 CURVE SMOOTH",
"40 79 OFFCURVE",
"114 -12 OFFCURVE",
"246 -12 CURVE SMOOTH",
"327 -12 OFFCURVE",
"387 14 OFFCURVE",
"445 73 CURVE",
"455 0 LINE",
"501 0 LINE",
"501 664 LINE",
"602 664 LINE",
"602 714 LINE"
);
},
{
closed = 1;
nodes = (
"435 145 LINE",
"393 86 OFFCURVE",
"331 42 OFFCURVE",
"251 42 CURVE SMOOTH",
"135 42 OFFCURVE",
"105 132 OFFCURVE",
"105 276 CURVE SMOOTH",
"105 439 OFFCURVE",
"120 528 OFFCURVE",
"253 528 CURVE SMOOTH",
"318 528 OFFCURVE",
"403 485 OFFCURVE",
"435 454 CURVE"
);
}
);
width = 602;
}
);
note = dslash;
unicode = 0111;
},
{
color = 0;
glyphname = schwa;
lastChange = "2017-12-19 05:24:34 +0000";
layers = (
{
layerId = "0B1DFD06-3317-40CA-B510-4969A0718C16";
paths = (
{
closed = 1;
nodes = (
"396 -10 OFFCURVE",
"487 83 OFFCURVE",
"487 236 CURVE SMOOTH",
"487 393 OFFCURVE",
"392 480 OFFCURVE",
"246 480 CURVE SMOOTH",
"112 480 OFFCURVE",
"47 407 OFFCURVE",
"36 303 CURVE",
"65 303 LINE",
"83 407 OFFCURVE",
"154 444 OFFCURVE",
"225 444 CURVE SMOOTH",
"331 444 OFFCURVE",
"392 360 OFFCURVE",
"392 234 CURVE SMOOTH",
"392 121 OFFCURVE",
"343 28 OFFCURVE",
"242 28 CURVE SMOOTH",
"147 28 OFFCURVE",
"117 112 OFFCURVE",
"115 173 CURVE",
"403 173 LINE",
"403 212 LINE",
"32 212 LINE",
"32 189 LINE SMOOTH",
"32 77 OFFCURVE",
"100 -10 OFFCURVE",
"246 -10 CURVE SMOOTH"
);
}
);
width = 521;
}
);
note = schwa;
unicode = 0259;
},
{
color = 0;
glyphname = hbar;
lastChange = "2017-12-19 05:24:39 +0000";
layers = (
{
layerId = "0B1DFD06-3317-40CA-B510-4969A0718C16";
paths = (
{
closed = 1;
nodes = (
"600 0 LINE",
"600 25 LINE",
"582 25 LINE SMOOTH",
"552 25 OFFCURVE",
"528 34 OFFCURVE",
"528 57 CURVE SMOOTH",
"528 344 LINE SMOOTH",
"528 424 OFFCURVE",
"471 480 OFFCURVE",
"357 480 CURVE SMOOTH",
"265 480 OFFCURVE",
"194 424 OFFCURVE",
"178 373 CURVE",
"178 285 LINE",
"188 285 LINE",
"188 389 OFFCURVE",
"264 439 OFFCURVE",
"330 439 CURVE SMOOTH",
"396 439 OFFCURVE",
"434 404 OFFCURVE",
"434 332 CURVE SMOOTH",
"434 57 LINE SMOOTH",
"434 34 OFFCURVE",
"411 25 OFFCURVE",
"383 25 CURVE SMOOTH",
"367 25 LINE",
"367 0 LINE"
);
},
{
closed = 1;
nodes = (
"255 0 LINE",
"255 25 LINE",
"240 25 LINE SMOOTH",
"212 25 OFFCURVE",
"188 34 OFFCURVE",
"188 57 CURVE SMOOTH",
"188 717 LINE",
"163 717 LINE",
"37 672 LINE",
"44 649 LINE",
"54 653 OFFCURVE",
"66 657 OFFCURVE",
"73 657 CURVE SMOOTH",
"83 657 OFFCURVE",
"94 654 OFFCURVE",
"94 636 CURVE SMOOTH",
"94 57 LINE SMOOTH",
"94 34 OFFCURVE",
"71 25 OFFCURVE",
"41 25 CURVE SMOOTH",
"22 25 LINE",
"22 0 LINE"
);
},
{
closed = 1;
nodes = (
"339 559 LINE",
"339 594 LINE",
"40 594 LINE",
"40 559 LINE"
);
}
);
width = 622;
}
);
note = hbar;
rightKerningGroup = h;
unicode = 0127;
},
{
glyphname = idotless;
lastChange = "2017-12-19 05:24:45 +0000";
layers = (
{
layerId = "0B1DFD06-3317-40CA-B510-4969A0718C16";
paths = (
{
closed = 1;
nodes = (
"154 569 LINE",
"89 569 LINE",
"89 0 LINE",
"154 0 LINE"
);
}
);
width = 243;
}
);
note = dotlessi;
unicode = 0131;
},
{
color = 0;
glyphname = ij;
lastChange = "2017-12-19 05:24:49 +0000";
layers = (
{
layerId = "0B1DFD06-3317-40CA-B510-4969A0718C16";
paths = (
{
closed = 1;
nodes = (
"472 -107 OFFCURVE",
"516 -25 OFFCURVE",
"516 102 CURVE SMOOTH",
"516 473 LINE",
"491 473 LINE",
"365 428 LINE",
"372 406 LINE",
"383 410 OFFCURVE",
"394 414 OFFCURVE",
"402 414 CURVE SMOOTH",
"411 414 OFFCURVE",
"423 410 OFFCURVE",
"423 393 CURVE SMOOTH",
"423 97 LINE SMOOTH",
"423 -4 OFFCURVE",
"418 -72 OFFCURVE",
"326 -110 CURVE",
"331 -132 LINE"
);
},
{
closed = 1;
nodes = (
"265 0 LINE",
"265 25 LINE",
"246 25 LINE SMOOTH",
"217 25 OFFCURVE",
"193 34 OFFCURVE",
"193 57 CURVE SMOOTH",
"193 475 LINE",
"168 475 LINE",
"42 431 LINE",
"49 408 LINE",
"59 411 OFFCURVE",
"71 416 OFFCURVE",
"78 416 CURVE SMOOTH",
"88 416 OFFCURVE",
"99 412 OFFCURVE",
"99 394 CURVE SMOOTH",
"99 57 LINE SMOOTH",
"99 34 OFFCURVE",
"76 25 OFFCURVE",
"46 25 CURVE SMOOTH",
"27 25 LINE",
"27 0 LINE"
);
},
{
closed = 1;
nodes = (
"171 561 OFFCURVE",
"194 584 OFFCURVE",
"194 616 CURVE SMOOTH",
"194 649 OFFCURVE",
"171 671 OFFCURVE",
"138 671 CURVE SMOOTH",
"103 671 OFFCURVE",
"81 649 OFFCURVE",
"81 616 CURVE SMOOTH",
"81 584 OFFCURVE",
"103 561 OFFCURVE",
"138 561 CURVE SMOOTH"
);
},
{
closed = 1;
nodes = (
"499 561 OFFCURVE",
"522 584 OFFCURVE",
"522 616 CURVE SMOOTH",
"522 649 OFFCURVE",
"499 671 OFFCURVE",
"465 671 CURVE SMOOTH",
"431 671 OFFCURVE",
"409 649 OFFCURVE",
"409 616 CURVE SMOOTH",
"409 584 OFFCURVE",
"431 561 OFFCURVE",
"465 561 CURVE SMOOTH"
);
}
);
width = 598;
}
);
note = ij;
unicode = 0133;
},
{
color = 0;
glyphname = jdotless;
lastChange = "2017-12-19 05:24:51 +0000";
layers = (
{
anchors = (
{
name = bottom;
position = "{151, 0}";
},
{
name = top;
position = "{151, 470}";
}
);
layerId = "0B1DFD06-3317-40CA-B510-4969A0718C16";
paths = (
{
closed = 1;
nodes = (
"176 -107 OFFCURVE",
"220 -25 OFFCURVE",
"220 102 CURVE SMOOTH",
"220 473 LINE",
"195 473 LINE",
"69 428 LINE",
"76 406 LINE",
"86 410 OFFCURVE",
"98 414 OFFCURVE",
"106 414 CURVE SMOOTH",
"115 414 OFFCURVE",
"126 410 OFFCURVE",
"126 393 CURVE SMOOTH",
"126 97 LINE SMOOTH",
"126 -3 OFFCURVE",
"123 -71 OFFCURVE",
"31 -110 CURVE",
"35 -132 LINE"
);
}
);
width = 302;
}
);
leftKerningGroup = j;
note = dotlessj;
unicode = 0237;
},
{
color = 0;
glyphname = kgreenlandic;
lastChange = "2017-12-19 05:24:51 +0000";
layers = (
{
layerId = "0B1DFD06-3317-40CA-B510-4969A0718C16";
paths = (
{
closed = 1;
nodes = (
"257 0 LINE",
"257 25 LINE",
"240 25 LINE SMOOTH",
"211 25 OFFCURVE",
"187 35 OFFCURVE",
"187 57 CURVE SMOOTH",
"187 487 LINE",
"162 487 LINE",
"36 442 LINE",
"43 419 LINE",
"54 423 OFFCURVE",
"65 427 OFFCURVE",
"73 427 CURVE SMOOTH",
"82 427 OFFCURVE",
"94 424 OFFCURVE",
"94 406 CURVE SMOOTH",
"94 57 LINE SMOOTH",
"94 34 OFFCURVE",
"70 25 OFFCURVE",
"40 25 CURVE SMOOTH",
"21 25 LINE",
"21 0 LINE"
);
},
{
closed = 1;
nodes = (
"577 0 LINE",
"577 25 LINE",
"550 25 LINE SMOOTH",
"530 25 OFFCURVE",
"496 35 OFFCURVE",
"475 55 CURVE SMOOTH",
"247 266 LINE",
"185 217 LINE",
"421 0 LINE"
);
},
{
closed = 1;
nodes = (
"446 417 LINE SMOOTH",
"463 432 OFFCURVE",
"488 444 OFFCURVE",
"506 444 CURVE SMOOTH",
"528 444 LINE",
"528 470 LINE",
"332 470 LINE",
"332 444 LINE",
"354 444 LINE SMOOTH",
"380 444 OFFCURVE",
"401 428 OFFCURVE",
"380 411 CURVE SMOOTH",
"155 225 LINE",
"155 173 LINE"
);
}
);
width = 591;
}
);
note = kgreenlandic;
rightKerningGroup = k;
unicode = 0138;
},
{
glyphname = lslash;
lastChange = "2017-12-19 05:25:03 +0000";
layers = (
{
layerId = "0B1DFD06-3317-40CA-B510-4969A0718C16";
paths = (
{
closed = 1;
nodes = (
"154 399 LINE",
"242 445 LINE",
"242 514 LINE",
"154 469 LINE",
"154 791 LINE",
"89 791 LINE",
"89 435 LINE",
"1 390 LINE",
"1 320 LINE",
"89 366 LINE",
"89 0 LINE",
"154 0 LINE"
);
}
);
width = 243;
}
);
note = lslash;
unicode = 0142;
},
{
color = 0;
glyphname = eng;
lastChange = "2017-12-19 05:24:55 +0000";
layers = (
{
layerId = "0B1DFD06-3317-40CA-B510-4969A0718C16";
paths = (
{
closed = 1;
nodes = (
"478 -215 OFFCURVE",
"529 -140 OFFCURVE",
"529 -17 CURVE SMOOTH",
"529 344 LINE SMOOTH",
"529 424 OFFCURVE",
"472 480 OFFCURVE",
"358 480 CURVE SMOOTH",
"266 480 OFFCURVE",
"195 424 OFFCURVE",
"178 373 CURVE",
"178 285 LINE",
"188 285 LINE",
"188 389 OFFCURVE",
"264 439 OFFCURVE",
"331 439 CURVE SMOOTH",
"395 439 OFFCURVE",
"435 404 OFFCURVE",
"435 332 CURVE SMOOTH",
"435 -58 LINE SMOOTH",
"435 -128 OFFCURVE",
"413 -186 OFFCURVE",
"339 -215 CURVE",
"344 -238 LINE"
);
},
{
closed = 1;
nodes = (
"255 0 LINE",
"255 25 LINE",
"240 25 LINE SMOOTH",
"205 25 OFFCURVE",
"188 37 OFFCURVE",
"188 66 CURVE SMOOTH",
"188 473 LINE",
"166 473 LINE",
"38 428 LINE",
"44 406 LINE",
"54 410 OFFCURVE",
"66 414 OFFCURVE",
"74 414 CURVE SMOOTH",
"83 414 OFFCURVE",
"94 410 OFFCURVE",
"94 393 CURVE SMOOTH",
"94 66 LINE SMOOTH",
"94 37 OFFCURVE",
"77 25 OFFCURVE",
"41 25 CURVE SMOOTH",
"22 25 LINE",
"22 0 LINE"
);
}
);
width = 609;
}
);
leftKerningGroup = m;
note = eng;
rightKerningGroup = m;
unicode = 014B;
},
{
glyphname = ohorn;
lastChange = "2017-12-19 05:25:17 +0000";
layers = (
{
layerId = "0B1DFD06-3317-40CA-B510-4969A0718C16";
paths = (
{
closed = 1;
nodes = (
"96 580 OFFCURVE",
"40 469 OFFCURVE",
"40 285 CURVE SMOOTH",
"40 101 OFFCURVE",
"96 -12 OFFCURVE",
"274 -12 CURVE SMOOTH",
"452 -12 OFFCURVE",
"507 101 OFFCURVE",
"507 285 CURVE SMOOTH",
"507 379 OFFCURVE",
"492 455 OFFCURVE",
"454 505 CURVE",
"521 513 OFFCURVE",
"560 592 OFFCURVE",
"546 667 CURVE",
"485 647 LINE",
"498 589 OFFCURVE",
"481 556 OFFCURVE",
"419 540 CURVE",
"382 567 OFFCURVE",
"333 580 OFFCURVE",
"274 580 CURVE SMOOTH"
);
},
{
closed = 1;
nodes = (
"419 528 OFFCURVE",
"442 439 OFFCURVE",
"442 285 CURVE SMOOTH",
"442 130 OFFCURVE",
"419 42 OFFCURVE",
"274 42 CURVE SMOOTH",
"128 42 OFFCURVE",
"105 130 OFFCURVE",
"105 285 CURVE SMOOTH",
"105 439 OFFCURVE",
"128 528 OFFCURVE",
"274 528 CURVE SMOOTH"
);
}
);
width = 547;
}
);
note = ohorn;
unicode = 01A1;
},
{
glyphname = oslash;
lastChange = "2017-12-19 05:25:26 +0000";
layers = (
{
layerId = "0B1DFD06-3317-40CA-B510-4969A0718C16";
paths = (
{
closed = 1;
nodes = (
"132 117 LINE",
"111 158 OFFCURVE",
"105 215 OFFCURVE",
"105 285 CURVE SMOOTH",
"105 439 OFFCURVE",
"141 528 OFFCURVE",
"274 528 CURVE SMOOTH",
"318 528 OFFCURVE",
"353 518 OFFCURVE",
"377 498 CURVE"
);
},
{
closed = 1;
nodes = (
"410 458 LINE",
"433 418 OFFCURVE",
"442 359 OFFCURVE",
"442 285 CURVE SMOOTH",
"442 130 OFFCURVE",
"406 42 OFFCURVE",
"274 42 CURVE SMOOTH",
"228 42 OFFCURVE",
"192 53 OFFCURVE",
"164 75 CURVE"
);
},
{
closed = 1;
nodes = (
"132 24 LINE",
"167 1 OFFCURVE",
"212 -12 OFFCURVE",
"274 -12 CURVE SMOOTH",
"452 -12 OFFCURVE",
"507 101 OFFCURVE",
"507 285 CURVE SMOOTH",
"507 384 OFFCURVE",
"491 464 OFFCURVE",
"446 514 CURVE",
"547 671 LINE",
"488 671 LINE",
"409 547 LINE",
"373 569 OFFCURVE",
"328 580 OFFCURVE",
"274 580 CURVE SMOOTH",
"96 580 OFFCURVE",
"40 469 OFFCURVE",
"40 285 CURVE SMOOTH",
"40 187 OFFCURVE",
"56 111 OFFCURVE",
"96 60 CURVE",
"3 -86 LINE",
"62 -86 LINE"
);
}
);
width = 547;
}
);
note = oslash;
unicode = 00F8;
},
{
glyphname = oe;
lastChange = "2017-12-19 05:25:34 +0000";
layers = (
{
layerId = "0B1DFD06-3317-40CA-B510-4969A0718C16";
paths = (
{
closed = 1;
nodes = (
"105 441 OFFCURVE",
"154 528 OFFCURVE",
"269 528 CURVE SMOOTH",
"374 528 OFFCURVE",
"426 441 OFFCURVE",
"426 285 CURVE SMOOTH",
"426 130 OFFCURVE",
"374 42 OFFCURVE",
"269 42 CURVE SMOOTH",
"154 42 OFFCURVE",
"105 130 OFFCURVE",
"105 285 CURVE SMOOTH"
);
},
{
closed = 1;
nodes = (
"865 282 LINE",
"865 459 OFFCURVE",
"796 580 OFFCURVE",
"645 580 CURVE SMOOTH",
"539 580 OFFCURVE",
"480 516 OFFCURVE",
"456 456 CURVE",
"428 527 OFFCURVE",
"369 580 OFFCURVE",
"269 580 CURVE SMOOTH",
"96 580 OFFCURVE",
"40 439 OFFCURVE",
"40 285 CURVE SMOOTH",
"40 130 OFFCURVE",
"96 -12 OFFCURVE",
"269 -12 CURVE SMOOTH",
"372 -12 OFFCURVE",
"425 43 OFFCURVE",
"455 114 CURVE",
"495 32 OFFCURVE",
"554 -12 OFFCURVE",
"647 -12 CURVE SMOOTH",
"755 -12 OFFCURVE",
"811 29 OFFCURVE",
"873 128 CURVE",
"818 156 LINE",
"762 69 OFFCURVE",
"726 42 OFFCURVE",
"652 42 CURVE SMOOTH",
"531 42 OFFCURVE",
"492 153 OFFCURVE",
"492 282 CURVE"
);
},
{
closed = 1;
nodes = (
"492 336 LINE",
"500 441 OFFCURVE",
"539 528 OFFCURVE",
"644 528 CURVE SMOOTH",
"742 528 OFFCURVE",
"785 452 OFFCURVE",
"801 336 CURVE"
);
}
);
width = 912;
}
);
note = oe;
unicode = 0153;
},
{
glyphname = thorn;
lastChange = "2017-12-19 05:25:34 +0000";
layers = (
{
layerId = "0B1DFD06-3317-40CA-B510-4969A0718C16";
paths = (
{
closed = 1;
nodes = (
"101 -202 LINE",
"167 -202 LINE",
"167 73 LINE",
"223 14 OFFCURVE",
"268 -12 OFFCURVE",
"344 -12 CURVE SMOOTH",
"478 -12 OFFCURVE",
"569 82 OFFCURVE",
"569 282 CURVE SMOOTH",
"569 438 OFFCURVE",
"487 580 OFFCURVE",
"341 580 CURVE SMOOTH",
"266 580 OFFCURVE",
"213 549 OFFCURVE",
"168 481 CURVE",
"167 481 LINE",
"167 791 LINE",
"101 791 LINE"
);
},
{
closed = 1;
nodes = (
"167 425 LINE",
"223 482 OFFCURVE",
"264 528 OFFCURVE",
"337 528 CURVE SMOOTH",
"452 528 OFFCURVE",
"504 412 OFFCURVE",
"504 292 CURVE SMOOTH",
"504 135 OFFCURVE",
"448 42 OFFCURVE",
"327 42 CURVE SMOOTH",
"261 42 OFFCURVE",
"190 105 OFFCURVE",
"167 144 CURVE"
);
}
);
width = 609;
}
);
note = thorn;
unicode = 00FE;
},
{
glyphname = germandbls;
lastChange = "2017-12-19 05:25:42 +0000";
layers = (
{
layerId = "0B1DFD06-3317-40CA-B510-4969A0718C16";
paths = (
{
closed = 1;
nodes = (
"150 0 LINE",
"150 588 LINE SMOOTH",
"150 661 OFFCURVE",
"173 737 OFFCURVE",
"265 737 CURVE SMOOTH",
"356 737 OFFCURVE",
"397 685 OFFCURVE",
"397 598 CURVE SMOOTH",
"397 488 OFFCURVE",
"343 451 OFFCURVE",
"249 446 CURVE",
"249 395 LINE",
"380 395 OFFCURVE",
"448 344 OFFCURVE",
"448 212 CURVE SMOOTH",
"448 107 OFFCURVE",
"405 42 OFFCURVE",
"330 42 CURVE SMOOTH",
"302 42 OFFCURVE",
"271 52 OFFCURVE",
"249 63 CURVE",
"226 14 LINE",
"253 -1 OFFCURVE",
"295 -12 OFFCURVE",
"325 -12 CURVE SMOOTH",
"446 -12 OFFCURVE",
"513 78 OFFCURVE",
"513 220 CURVE SMOOTH",
"513 324 OFFCURVE",
"462 400 OFFCURVE",
"364 431 CURVE",
"429 464 OFFCURVE",
"464 521 OFFCURVE",
"464 595 CURVE SMOOTH",
"464 706 OFFCURVE",
"387 791 OFFCURVE",
"276 791 CURVE SMOOTH",
"145 791 OFFCURVE",
"84 708 OFFCURVE",
"84 583 CURVE SMOOTH",
"84 0 LINE"
);
}
);
width = 547;
}
);
note = germandbls;
unicode = 00DF;
},
{
glyphname = tbar;
lastChange = "2017-12-19 05:21:12 +0000";
layers = (
{
components = (
{
name = t;
}
);
layerId = "0B1DFD06-3317-40CA-B510-4969A0718C16";
paths = (
{
closed = 1;
nodes = (
"321 260 LINE",
"321 297 LINE",
"33 297 LINE",
"33 260 LINE"
);
}
);
width = 397;
}
);
leftKerningGroup = t;
note = tbar;
rightKerningGroup = t;
unicode = 0167;
},
{
glyphname = uhorn;
lastChange = "2017-12-19 05:26:01 +0000";
layers = (
{
layerId = "0B1DFD06-3317-40CA-B510-4969A0718C16";
paths = (
{
closed = 1;
nodes = (
"452 569 LINE",
"452 151 LINE",
"379 86 OFFCURVE",
"344 42 OFFCURVE",
"271 42 CURVE SMOOTH",
"183 42 OFFCURVE",
"156 94 OFFCURVE",
"156 187 CURVE SMOOTH",
"156 569 LINE",
"91 569 LINE",
"91 180 LINE SMOOTH",
"91 58 OFFCURVE",
"138 -12 OFFCURVE",
"259 -12 CURVE SMOOTH",
"344 -12 OFFCURVE",
"390 26 OFFCURVE",
"452 91 CURVE",
"452 0 LINE",
"518 0 LINE",
"518 438 LINE",
"611 459 OFFCURVE",
"645 534 OFFCURVE",
"638 626 CURVE",
"577 612 LINE",
"585 562 OFFCURVE",
"576 507 OFFCURVE",
"518 488 CURVE",
"518 569 LINE"
);
}
);
width = 609;
}
);
note = uhorn;
unicode = 01B0;
},
{
glyphname = fi;
lastChange = "2017-12-19 05:26:43 +0000";
layers = (
{
layerId = "0B1DFD06-3317-40CA-B510-4969A0718C16";
paths = (
{
closed = 1;
nodes = (
"288 517 LINE",
"288 569 LINE",
"171 569 LINE",
"171 658 LINE SMOOTH",
"171 726 OFFCURVE",
"197 749 OFFCURVE",
"249 749 CURVE SMOOTH",
"272 749 OFFCURVE",
"292 744 OFFCURVE",
"314 737 CURVE",
"314 792 LINE",
"287 796 OFFCURVE",
"265 802 OFFCURVE",
"242 802 CURVE SMOOTH",
"144 802 OFFCURVE",
"105 749 OFFCURVE",
"105 649 CURVE SMOOTH",
"105 569 LINE",
"12 569 LINE",
"12 517 LINE",
"105 517 LINE",
"105 0 LINE",
"171 0 LINE",
"171 517 LINE"
);
},
{
closed = 1;
nodes = (
"458 569 LINE",
"393 569 LINE",
"393 0 LINE",
"458 0 LINE"
);
},
{
closed = 1;
nodes = (
"458 694 LINE",
"458 791 LINE",
"393 791 LINE",
"393 694 LINE"
);
}
);
width = 547;
}
);
note = fi;
unicode = FB01;
},
{
glyphname = fl;
lastChange = "2017-12-19 05:26:43 +0000";
layers = (
{
layerId = "0B1DFD06-3317-40CA-B510-4969A0718C16";
paths = (
{
closed = 1;
nodes = (
"288 517 LINE",
"288 569 LINE",
"171 569 LINE",
"171 658 LINE SMOOTH",
"171 726 OFFCURVE",
"197 749 OFFCURVE",
"249 749 CURVE SMOOTH",
"272 749 OFFCURVE",
"292 744 OFFCURVE",
"314 737 CURVE",
"314 792 LINE",
"287 796 OFFCURVE",
"265 802 OFFCURVE",
"242 802 CURVE SMOOTH",
"144 802 OFFCURVE",
"105 749 OFFCURVE",
"105 649 CURVE SMOOTH",
"105 569 LINE",
"12 569 LINE",
"12 517 LINE",
"105 517 LINE",
"105 0 LINE",
"171 0 LINE",
"171 517 LINE"
);
},
{
closed = 1;
nodes = (
"393 0 LINE",
"458 0 LINE",
"458 791 LINE",
"393 791 LINE"
);
}
);
width = 547;
}
);
note = fl;
unicode = FB02;
},
{
glyphname = ordfeminine;
lastChange = "2017-12-19 05:26:43 +0000";
layers = (
{
layerId = "0B1DFD06-3317-40CA-B510-4969A0718C16";
paths = (
{
closed = 1;
nodes = (
"65 703 LINE",
"92 742 OFFCURVE",
"120 757 OFFCURVE",
"167 757 CURVE SMOOTH",
"220 757 OFFCURVE",
"236 737 OFFCURVE",
"236 708 CURVE SMOOTH",
"236 681 LINE",
"166 661 OFFCURVE",
"14 652 OFFCURVE",
"14 537 CURVE SMOOTH",
"14 481 OFFCURVE",
"58 449 OFFCURVE",
"117 449 CURVE SMOOTH",
"173 449 OFFCURVE",
"204 464 OFFCURVE",
"243 497 CURVE",
"249 455 LINE",
"298 455 LINE",
"292 480 OFFCURVE",
"291 492 OFFCURVE",
"291 526 CURVE SMOOTH",
"291 697 LINE SMOOTH",
"291 770 OFFCURVE",
"255 802 OFFCURVE",
"173 802 CURVE SMOOTH",
"104 802 OFFCURVE",
"63 782 OFFCURVE",
"30 726 CURVE"
);
},
{
closed = 1;
nodes = (
"236 543 LINE",
"212 513 OFFCURVE",
"163 492 OFFCURVE",
"124 492 CURVE SMOOTH",
"89 492 OFFCURVE",
"69 511 OFFCURVE",
"69 539 CURVE SMOOTH",
"69 605 OFFCURVE",
"189 619 OFFCURVE",
"236 635 CURVE"
);
}
);
width = 328;
}
);
note = ordfeminine;
unicode = 00AA;
},
{
glyphname = ordmasculine;
lastChange = "2017-12-19 05:26:43 +0000";
layers = (
{
layerId = "0B1DFD06-3317-40CA-B510-4969A0718C16";
paths = (
{
closed = 1;
nodes = (
"68 626 OFFCURVE",
"88 665 OFFCURVE",
"150 665 CURVE SMOOTH",
"212 665 OFFCURVE",
"230 626 OFFCURVE",
"230 553 CURVE SMOOTH",
"230 480 OFFCURVE",
"212 442 OFFCURVE",
"150 442 CURVE SMOOTH",
"88 442 OFFCURVE",
"68 480 OFFCURVE",
"68 553 CURVE SMOOTH"
);
},
{
closed = 1;
nodes = (
"46 710 OFFCURVE",
"14 635 OFFCURVE",
"14 553 CURVE SMOOTH",
"14 472 OFFCURVE",
"46 397 OFFCURVE",
"150 397 CURVE SMOOTH",
"252 397 OFFCURVE",
"284 472 OFFCURVE",
"284 553 CURVE SMOOTH",
"284 635 OFFCURVE",
"252 710 OFFCURVE",
"150 710 CURVE SMOOTH"
);
}
);
width = 298;
}
);
note = ordmasculine;
unicode = 00BA;
},
{
color = 0;
glyphname = nmod;
lastChange = "2017-12-19 05:26:45 +0000";
layers = (
{
layerId = "0B1DFD06-3317-40CA-B510-4969A0718C16";
paths = (
{
closed = 1;
nodes = (
"410 378 LINE",
"410 397 LINE",
"392 397 LINE SMOOTH",
"368 397 OFFCURVE",
"350 405 OFFCURVE",
"350 424 CURVE SMOOTH",
"350 599 LINE SMOOTH",
"350 660 OFFCURVE",
"323 708 OFFCURVE",
"240 708 CURVE SMOOTH",
"168 708 OFFCURVE",
"128 658 OFFCURVE",
"116 601 CURVE",
"116 548 LINE",
"135 548 LINE",
"135 628 OFFCURVE",
"173 677 OFFCURVE",
"221 677 CURVE SMOOTH",
"266 677 OFFCURVE",
"281 652 OFFCURVE",
"281 595 CURVE SMOOTH",
"281 424 LINE SMOOTH",
"281 405 OFFCURVE",
"264 397 OFFCURVE",
"239 397 CURVE SMOOTH",
"229 397 LINE",
"229 378 LINE"
);
},
{
closed = 1;
nodes = (
"187 378 LINE",
"187 397 LINE",
"177 397 LINE SMOOTH",
"152 397 OFFCURVE",
"135 405 OFFCURVE",
"135 424 CURVE SMOOTH",
"135 706 LINE",
"114 706 LINE",
"17 670 LINE",
"22 652 LINE",
"30 655 OFFCURVE",
"42 659 OFFCURVE",
"50 659 CURVE SMOOTH",
"58 659 OFFCURVE",
"66 656 OFFCURVE",
"66 643 CURVE SMOOTH",
"66 424 LINE SMOOTH",
"66 405 OFFCURVE",
"48 397 OFFCURVE",
"23 397 CURVE SMOOTH",
"6 397 LINE",
"6 378 LINE"
);
}
);
width = 416;
}
);
note = uni207F;
unicode = 207F;
},
{
glyphname = Delta;
lastChange = "2017-12-19 05:38:17 +0000";
layers = (
{
layerId = "0B1DFD06-3317-40CA-B510-4969A0718C16";
paths = (
{
closed = 1;
nodes = (
"317 700 LINE",
"230 700 LINE",
"0 0 LINE",
"547 0 LINE"
);
},
{
closed = 1;
nodes = (
"79 58 LINE",
"274 635 LINE",
"468 58 LINE"
);
}
);
width = 547;
}
);
note = Delta;
unicode = 0394;
},
{
glyphname = Omega;
lastChange = "2017-12-19 05:38:27 +0000";
layers = (
{
layerId = "0B1DFD06-3317-40CA-B510-4969A0718C16";
paths = (
{
closed = 1;
nodes = (
"626 58 LINE",
"456 58 LINE",
"456 147 LINE",
"556 177 OFFCURVE",
"626 289 OFFCURVE",
"626 410 CURVE SMOOTH",
"626 577 OFFCURVE",
"526 713 OFFCURVE",
"338 713 CURVE SMOOTH",
"151 713 OFFCURVE",
"50 577 OFFCURVE",
"50 410 CURVE SMOOTH",
"50 288 OFFCURVE",
"122 179 OFFCURVE",
"220 147 CURVE",
"220 58 LINE",
"50 58 LINE",
"50 0 LINE",
"281 0 LINE",
"281 187 LINE",
"192 206 OFFCURVE",
"115 292 OFFCURVE",
"115 410 CURVE SMOOTH",
"115 547 OFFCURVE",
"194 654 OFFCURVE",
"338 654 CURVE SMOOTH",
"482 654 OFFCURVE",
"562 547 OFFCURVE",
"562 410 CURVE SMOOTH",
"562 292 OFFCURVE",
"485 206 OFFCURVE",
"396 187 CURVE",
"396 0 LINE",
"626 0 LINE"
);
}
);
width = 676;
}
);
note = Omega;
unicode = 03A9;
},
{
glyphname = mu;
lastChange = "2017-12-19 05:38:46 +0000";
layers = (
{
layerId = "0B1DFD06-3317-40CA-B510-4969A0718C16";
paths = (
{
closed = 1;
nodes = (
"424 569 LINE",
"424 151 LINE",
"351 86 OFFCURVE",
"316 42 OFFCURVE",
"243 42 CURVE SMOOTH",
"155 42 OFFCURVE",
"128 94 OFFCURVE",
"128 187 CURVE SMOOTH",
"128 569 LINE",
"63 569 LINE",
"63 -202 LINE",
"128 -202 LINE",
"128 14 LINE",
"152 -3 OFFCURVE",
"187 -12 OFFCURVE",
"231 -12 CURVE SMOOTH",
"316 -12 OFFCURVE",
"362 26 OFFCURVE",
"424 91 CURVE",
"424 0 LINE",
"490 0 LINE",
"490 569 LINE"
);
}
);
width = 553;
}
);
note = mu;
unicode = 03BC;
},
{
color = 0;
glyphname = pi;
lastChange = "2017-12-19 05:38:58 +0000";
layers = (
{
layerId = "0B1DFD06-3317-40CA-B510-4969A0718C16";
paths = (
{
closed = 1;
nodes = (
"577 -10 OFFCURVE",
"603 -4 OFFCURVE",
"633 13 CURVE",
"633 54 LINE",
"618 44 OFFCURVE",
"598 36 OFFCURVE",
"581 36 CURVE SMOOTH",
"555 36 OFFCURVE",
"528 49 OFFCURVE",
"528 100 CURVE SMOOTH",
"528 431 LINE",
"647 431 LINE",
"647 470 LINE",
"19 470 LINE",
"19 431 LINE",
"136 431 LINE",
"136 0 LINE",
"231 0 LINE",
"231 431 LINE",
"433 431 LINE",
"433 96 LINE SMOOTH",
"433 32 OFFCURVE",
"466 -10 OFFCURVE",
"540 -10 CURVE SMOOTH"
);
}
);
width = 664;
}
);
note = pi;
unicode = 03C0;
},
{
glyphname = "koKai-thai";
lastChange = "2017-12-19 05:27:16 +0000";
layers = (
{
layerId = "0B1DFD06-3317-40CA-B510-4969A0718C16";
paths = (
{
closed = 1;
nodes = (
"166 585 OFFCURVE",
"65 495 OFFCURVE",
"65 459 CURVE SMOOTH",
"65 436 OFFCURVE",
"127 393 OFFCURVE",
"141 386 CURVE",
"108 353 OFFCURVE",
"95 330 OFFCURVE",
"95 256 CURVE SMOOTH",
"95 0 LINE",
"153 0 LINE",
"153 256 LINE SMOOTH",
"153 366 OFFCURVE",
"187 383 OFFCURVE",
"243 383 CURVE SMOOTH",
"259 383 OFFCURVE",
"235 429 OFFCURVE",
"223 429 CURVE SMOOTH",
"206 429 OFFCURVE",
"189 410 OFFCURVE",
"173 410 CURVE SMOOTH",
"161 410 OFFCURVE",
"121 451 OFFCURVE",
"121 462 CURVE SMOOTH",
"121 480 OFFCURVE",
"207 534 OFFCURVE",
"304 534 CURVE SMOOTH",
"410 534 OFFCURVE",
"468 507 OFFCURVE",
"468 359 CURVE SMOOTH",
"468 0 LINE",
"526 0 LINE",
"526 359 LINE SMOOTH",
"526 537 OFFCURVE",
"435 585 OFFCURVE",
"304 585 CURVE SMOOTH"
);
}
);
width = 605;
}
);
note = uni0E01;
unicode = 0E01;
},
{
glyphname = "thoThung-thai";
lastChange = "2017-12-19 05:27:16 +0000";
layers = (
{
layerId = "0B1DFD06-3317-40CA-B510-4969A0718C16";
paths = (
{
closed = 1;
nodes = (
"204 147 LINE SMOOTH",
"233 147 OFFCURVE",
"251 124 OFFCURVE",
"251 95 CURVE SMOOTH",
"251 66 OFFCURVE",
"233 42 OFFCURVE",
"200 42 CURVE SMOOTH",
"171 42 OFFCURVE",
"153 66 OFFCURVE",
"153 111 CURVE SMOOTH",
"153 256 LINE SMOOTH",
"153 366 OFFCURVE",
"187 383 OFFCURVE",
"243 383 CURVE SMOOTH",
"259 383 OFFCURVE",
"235 429 OFFCURVE",
"223 429 CURVE SMOOTH",
"206 429 OFFCURVE",
"189 410 OFFCURVE",
"173 410 CURVE SMOOTH",
"161 410 OFFCURVE",
"121 451 OFFCURVE",
"121 462 CURVE SMOOTH",
"121 480 OFFCURVE",
"207 534 OFFCURVE",
"304 534 CURVE SMOOTH",
"410 534 OFFCURVE",
"468 507 OFFCURVE",
"468 359 CURVE SMOOTH",
"468 0 LINE",
"526 0 LINE",
"526 359 LINE SMOOTH",
"526 537 OFFCURVE",
"435 585 OFFCURVE",
"304 585 CURVE SMOOTH",
"166 585 OFFCURVE",
"65 495 OFFCURVE",
"65 459 CURVE SMOOTH",
"65 436 OFFCURVE",
"127 393 OFFCURVE",
"141 386 CURVE",
"108 353 OFFCURVE",
"95 330 OFFCURVE",
"95 256 CURVE SMOOTH",
"95 130 LINE SMOOTH",
"95 36 OFFCURVE",
"135 -9 OFFCURVE",
"200 -9 CURVE SMOOTH",
"258 -9 OFFCURVE",
"302 37 OFFCURVE",
"302 95 CURVE SMOOTH",
"302 153 OFFCURVE",
"261 197 OFFCURVE",
"204 197 CURVE",
"164 170 LINE",
"164 147 LINE"
);
}
);
width = 605;
}
);
note = uni0E16;
unicode = 0E16;
},
{
glyphname = "phoSamphao-thai";
lastChange = "2017-12-19 05:27:16 +0000";
layers = (
{
layerId = "0B1DFD06-3317-40CA-B510-4969A0718C16";
paths = (
{
closed = 1;
nodes = (
"160 144 LINE",
"160 167 LINE",
"127 192 LINE",
"73 192 OFFCURVE",
"36 150 OFFCURVE",
"36 92 CURVE SMOOTH",
"36 35 OFFCURVE",
"79 -9 OFFCURVE",
"137 -9 CURVE SMOOTH",
"204 -9 OFFCURVE",
"243 30 OFFCURVE",
"243 104 CURVE SMOOTH",
"243 145 OFFCURVE",
"213 228 OFFCURVE",
"213 292 CURVE SMOOTH",
"213 366 OFFCURVE",
"233 383 OFFCURVE",
"289 383 CURVE SMOOTH",
"305 383 OFFCURVE",
"281 429 OFFCURVE",
"269 429 CURVE SMOOTH",
"252 429 OFFCURVE",
"235 410 OFFCURVE",
"219 410 CURVE SMOOTH",
"207 410 OFFCURVE",
"167 451 OFFCURVE",
"167 462 CURVE SMOOTH",
"167 480 OFFCURVE",
"253 534 OFFCURVE",
"350 534 CURVE SMOOTH",
"456 534 OFFCURVE",
"514 507 OFFCURVE",
"514 359 CURVE SMOOTH",
"514 0 LINE",
"572 0 LINE",
"572 359 LINE SMOOTH",
"572 537 OFFCURVE",
"481 585 OFFCURVE",
"350 585 CURVE SMOOTH",
"212 585 OFFCURVE",
"111 495 OFFCURVE",
"111 459 CURVE SMOOTH",
"111 438 OFFCURVE",
"174 392 OFFCURVE",
"190 384 CURVE",
"168 361 OFFCURVE",
"156 340 OFFCURVE",
"156 294 CURVE SMOOTH",
"156 236 OFFCURVE",
"187 171 OFFCURVE",
"187 104 CURVE SMOOTH",
"187 59 OFFCURVE",
"166 42 OFFCURVE",
"137 42 CURVE SMOOTH",
"104 42 OFFCURVE",
"86 63 OFFCURVE",
"86 92 CURVE SMOOTH",
"86 121 OFFCURVE",
"98 144 OFFCURVE",
"127 144 CURVE SMOOTH"
);
}
);
width = 651;
}
);
note = uni0E20;
unicode = 0E20;
},
{
glyphname = "ru-thai";
lastChange = "2017-12-19 05:27:16 +0000";
layers = (
{
layerId = "0B1DFD06-3317-40CA-B510-4969A0718C16";
paths = (
{
closed = 1;
nodes = (
"204 147 LINE SMOOTH",
"233 147 OFFCURVE",
"251 124 OFFCURVE",
"251 95 CURVE SMOOTH",
"251 66 OFFCURVE",
"233 42 OFFCURVE",
"200 42 CURVE SMOOTH",
"171 42 OFFCURVE",
"153 66 OFFCURVE",
"153 111 CURVE SMOOTH",
"153 256 LINE SMOOTH",
"153 366 OFFCURVE",
"187 383 OFFCURVE",
"243 383 CURVE SMOOTH",
"259 383 OFFCURVE",
"235 429 OFFCURVE",
"223 429 CURVE SMOOTH",
"206 429 OFFCURVE",
"189 410 OFFCURVE",
"173 410 CURVE SMOOTH",
"161 410 OFFCURVE",
"128 451 OFFCURVE",
"128 462 CURVE SMOOTH",
"128 480 OFFCURVE",
"209 534 OFFCURVE",
"304 534 CURVE SMOOTH",
"410 534 OFFCURVE",
"468 507 OFFCURVE",
"468 359 CURVE SMOOTH",
"468 -216 LINE",
"526 -216 LINE",
"526 359 LINE SMOOTH",
"526 537 OFFCURVE",
"435 585 OFFCURVE",
"304 585 CURVE SMOOTH",
"166 585 OFFCURVE",
"72 495 OFFCURVE",
"72 459 CURVE SMOOTH",
"72 436 OFFCURVE",
"125 393 OFFCURVE",
"141 386 CURVE",
"108 353 OFFCURVE",
"95 330 OFFCURVE",
"95 256 CURVE SMOOTH",
"95 130 LINE SMOOTH",
"95 36 OFFCURVE",
"135 -9 OFFCURVE",
"200 -9 CURVE SMOOTH",
"258 -9 OFFCURVE",
"302 37 OFFCURVE",
"302 95 CURVE SMOOTH",
"302 153 OFFCURVE",
"261 197 OFFCURVE",
"204 197 CURVE",
"164 170 LINE",
"164 147 LINE"
);
}
);
width = 605;
}
);
note = uni0E24;
unicode = 0E24;
},
{
color = 0;
glyphname = "ru-thai.short";
lastChange = "2017-12-19 05:26:58 +0000";
layers = (
{
layerId = "0B1DFD06-3317-40CA-B510-4969A0718C16";
paths = (
{
closed = 1;
nodes = (
"524 -140 LINE",
"524 379 LINE SMOOTH",
"524 505 OFFCURVE",
"416 563 OFFCURVE",
"285 563 CURVE SMOOTH",
"171 563 OFFCURVE",
"50 499 OFFCURVE",
"38 348 CURVE",
"145 348 LINE",
"81 321 OFFCURVE",
"59 268 OFFCURVE",
"59 215 CURVE SMOOTH",
"59 117 LINE SMOOTH",
"59 38 OFFCURVE",
"94 -10 OFFCURVE",
"181 -10 CURVE SMOOTH",
"239 -10 OFFCURVE",
"285 27 OFFCURVE",
"285 87 CURVE SMOOTH",
"285 155 OFFCURVE",
"229 179 OFFCURVE",
"196 179 CURVE SMOOTH",
"181 179 OFFCURVE",
"165 177 OFFCURVE",
"154 169 CURVE",
"154 222 LINE SMOOTH",
"154 288 OFFCURVE",
"176 319 OFFCURVE",
"232 346 CURVE",
"232 381 LINE",
"92 381 LINE",
"107 472 OFFCURVE",
"191 520 OFFCURVE",
"270 520 CURVE SMOOTH",
"373 520 OFFCURVE",
"429 461 OFFCURVE",
"429 396 CURVE SMOOTH",
"429 -140 LINE"
);
},
{
closed = 1;
nodes = (
"146 23 OFFCURVE",
"125 52 OFFCURVE",
"125 87 CURVE SMOOTH",
"125 122 OFFCURVE",
"152 149 OFFCURVE",
"188 149 CURVE SMOOTH",
"223 149 OFFCURVE",
"249 122 OFFCURVE",
"249 87 CURVE SMOOTH",
"249 52 OFFCURVE",
"226 23 OFFCURVE",
"188 23 CURVE SMOOTH"
);
}
);
width = 585;
}
);
note = "ru-thai.short";
},
{
glyphname = "lu-thai";
lastChange = "2017-12-19 05:27:16 +0000";
layers = (
{
layerId = "0B1DFD06-3317-40CA-B510-4969A0718C16";
paths = (
{
closed = 1;
nodes = (
"160 144 LINE",
"160 167 LINE",
"127 192 LINE",
"73 192 OFFCURVE",
"36 150 OFFCURVE",
"36 92 CURVE SMOOTH",
"36 35 OFFCURVE",
"79 -9 OFFCURVE",
"137 -9 CURVE SMOOTH",
"204 -9 OFFCURVE",
"243 30 OFFCURVE",
"243 104 CURVE SMOOTH",
"243 145 OFFCURVE",
"213 228 OFFCURVE",
"213 292 CURVE SMOOTH",
"213 366 OFFCURVE",
"233 383 OFFCURVE",
"289 383 CURVE SMOOTH",
"305 383 OFFCURVE",
"281 429 OFFCURVE",
"269 429 CURVE SMOOTH",
"252 429 OFFCURVE",
"235 410 OFFCURVE",
"219 410 CURVE SMOOTH",
"207 410 OFFCURVE",
"174 451 OFFCURVE",
"174 462 CURVE SMOOTH",
"174 480 OFFCURVE",
"255 534 OFFCURVE",
"350 534 CURVE SMOOTH",
"456 534 OFFCURVE",
"514 507 OFFCURVE",
"514 359 CURVE SMOOTH",
"514 -216 LINE",
"572 -216 LINE",
"572 359 LINE SMOOTH",
"572 537 OFFCURVE",
"481 585 OFFCURVE",
"350 585 CURVE SMOOTH",
"212 585 OFFCURVE",
"118 495 OFFCURVE",
"118 459 CURVE SMOOTH",
"118 436 OFFCURVE",
"171 393 OFFCURVE",
"187 386 CURVE",
"164 363 OFFCURVE",
"156 340 OFFCURVE",
"156 294 CURVE SMOOTH",
"156 236 OFFCURVE",
"187 171 OFFCURVE",
"187 104 CURVE SMOOTH",
"187 59 OFFCURVE",
"166 42 OFFCURVE",
"137 42 CURVE SMOOTH",
"104 42 OFFCURVE",
"86 63 OFFCURVE",
"86 92 CURVE SMOOTH",
"86 121 OFFCURVE",
"98 144 OFFCURVE",
"127 144 CURVE SMOOTH"
);
}
);
width = 651;
}
);
note = uni0E26;
unicode = 0E26;
},
{
color = 0;
glyphname = "lu-thai.short";
lastChange = "2017-12-19 05:26:58 +0000";
layers = (
{
layerId = "0B1DFD06-3317-40CA-B510-4969A0718C16";
paths = (
{
closed = 1;
nodes = (
"567 -140 LINE",
"567 379 LINE SMOOTH",
"567 505 OFFCURVE",
"459 563 OFFCURVE",
"329 563 CURVE SMOOTH",
"214 563 OFFCURVE",
"94 499 OFFCURVE",
"81 348 CURVE",
"211 348 LINE",
"152 323 OFFCURVE",
"132 275 OFFCURVE",
"132 223 CURVE SMOOTH",
"132 169 LINE",
"120 177 OFFCURVE",
"105 179 OFFCURVE",
"90 179 CURVE SMOOTH",
"56 179 OFFCURVE",
"0 155 OFFCURVE",
"0 87 CURVE SMOOTH",
"0 27 OFFCURVE",
"47 -10 OFFCURVE",
"105 -10 CURVE SMOOTH",
"185 -10 OFFCURVE",
"227 32 OFFCURVE",
"227 103 CURVE SMOOTH",
"227 206 LINE SMOOTH",
"227 277 OFFCURVE",
"241 318 OFFCURVE",
"297 346 CURVE",
"297 381 LINE",
"134 381 LINE",
"149 472 OFFCURVE",
"234 520 OFFCURVE",
"313 520 CURVE SMOOTH",
"416 520 OFFCURVE",
"472 461 OFFCURVE",
"472 396 CURVE SMOOTH",
"472 -140 LINE"
);
},
{
closed = 1;
nodes = (
"60 23 OFFCURVE",
"37 52 OFFCURVE",
"37 87 CURVE SMOOTH",
"37 122 OFFCURVE",
"63 149 OFFCURVE",
"98 149 CURVE SMOOTH",
"134 149 OFFCURVE",
"161 122 OFFCURVE",
"161 87 CURVE SMOOTH",
"161 52 OFFCURVE",
"139 23 OFFCURVE",
"98 23 CURVE SMOOTH"
);
}
);
width = 628;
}
);
note = "lu-thai.short";
},
{
glyphname = "doChada-thai";
lastChange = "2017-12-19 05:27:16 +0000";
layers = (
{
layerId = "0B1DFD06-3317-40CA-B510-4969A0718C16";
paths = (
{
closed = 1;
nodes = (
"160 144 LINE",
"160 167 LINE",
"127 192 LINE",
"73 192 OFFCURVE",
"36 150 OFFCURVE",
"36 92 CURVE SMOOTH",
"36 35 OFFCURVE",
"79 -9 OFFCURVE",
"137 -9 CURVE SMOOTH",
"204 -9 OFFCURVE",
"243 30 OFFCURVE",
"243 104 CURVE SMOOTH",
"243 145 OFFCURVE",
"213 228 OFFCURVE",
"213 292 CURVE SMOOTH",
"213 366 OFFCURVE",
"233 383 OFFCURVE",
"289 383 CURVE SMOOTH",
"305 383 OFFCURVE",
"281 429 OFFCURVE",
"269 429 CURVE SMOOTH",
"252 429 OFFCURVE",
"235 410 OFFCURVE",
"219 410 CURVE SMOOTH",
"207 410 OFFCURVE",
"167 451 OFFCURVE",
"167 462 CURVE SMOOTH",
"167 480 OFFCURVE",
"253 534 OFFCURVE",
"350 534 CURVE SMOOTH",
"456 534 OFFCURVE",
"514 507 OFFCURVE",
"514 359 CURVE SMOOTH",
"514 -36 OFFCURVE",
"516 -141 OFFCURVE",
"516 -189 CURVE",
"498 -167 OFFCURVE",
"471 -143 OFFCURVE",
"435 -121 CURVE",
"441 -108 OFFCURVE",
"444 -96 OFFCURVE",
"448 -89 CURVE",
"449 -84 OFFCURVE",
"451 -76 OFFCURVE",
"446 -72 CURVE",
"439 -66 OFFCURVE",
"429 -63 OFFCURVE",
"419 -59 CURVE",
"403 -53 LINE",
"400 -68 LINE",
"399 -78 OFFCURVE",
"396 -88 OFFCURVE",
"390 -101 CURVE",
"361 -89 OFFCURVE",
"325 -81 OFFCURVE",
"289 -81 CURVE SMOOTH",
"226 -81 OFFCURVE",
"179 -115 OFFCURVE",
"179 -166 CURVE SMOOTH",
"179 -210 OFFCURVE",
"209 -248 OFFCURVE",
"265 -248 CURVE SMOOTH",
"338 -248 OFFCURVE",
"384 -202 OFFCURVE",
"413 -157 CURVE",
"461 -184 OFFCURVE",
"497 -220 OFFCURVE",
"513 -245 CURVE",
"572 -245 LINE",
"572 359 LINE SMOOTH",
"572 537 OFFCURVE",
"481 585 OFFCURVE",
"350 585 CURVE SMOOTH",
"212 585 OFFCURVE",
"111 495 OFFCURVE",
"111 459 CURVE SMOOTH",
"111 438 OFFCURVE",
"174 392 OFFCURVE",
"190 384 CURVE",
"168 360 OFFCURVE",
"156 340 OFFCURVE",
"156 294 CURVE SMOOTH",
"156 236 OFFCURVE",
"187 171 OFFCURVE",
"187 104 CURVE SMOOTH",
"187 59 OFFCURVE",
"166 42 OFFCURVE",
"137 42 CURVE SMOOTH",
"104 42 OFFCURVE",
"86 63 OFFCURVE",
"86 92 CURVE SMOOTH",
"86 121 OFFCURVE",
"98 144 OFFCURVE",
"127 144 CURVE SMOOTH"
);
},
{
closed = 1;
nodes = (
"236 -203 OFFCURVE",
"223 -192 OFFCURVE",
"223 -168 CURVE SMOOTH",
"223 -138 OFFCURVE",
"248 -124 OFFCURVE",
"295 -124 CURVE SMOOTH",
"320 -124 OFFCURVE",
"344 -128 OFFCURVE",
"372 -138 CURVE",
"350 -173 OFFCURVE",
"315 -203 OFFCURVE",
"264 -203 CURVE SMOOTH"
);
}
);
width = 658;
}
);
note = uni0E0E;
unicode = 0E0E;
},
{
glyphname = "doChada-thai.short";
lastChange = "2017-12-19 05:27:50 +0000";
layers = (
{
layerId = "0B1DFD06-3317-40CA-B510-4969A0718C16";
paths = (
{
closed = 1;
nodes = (
"160 144 LINE",
"160 167 LINE",
"127 192 LINE",
"73 192 OFFCURVE",
"36 150 OFFCURVE",
"36 92 CURVE SMOOTH",
"36 35 OFFCURVE",
"79 -9 OFFCURVE",
"137 -9 CURVE SMOOTH",
"204 -9 OFFCURVE",
"243 30 OFFCURVE",
"243 104 CURVE SMOOTH",
"243 145 OFFCURVE",
"213 228 OFFCURVE",
"213 292 CURVE SMOOTH",
"213 366 OFFCURVE",
"233 383 OFFCURVE",
"289 383 CURVE SMOOTH",
"305 383 OFFCURVE",
"281 429 OFFCURVE",
"269 429 CURVE SMOOTH",
"252 429 OFFCURVE",
"235 410 OFFCURVE",
"219 410 CURVE SMOOTH",
"207 410 OFFCURVE",
"167 451 OFFCURVE",
"167 462 CURVE SMOOTH",
"167 480 OFFCURVE",
"253 534 OFFCURVE",
"350 534 CURVE SMOOTH",
"456 534 OFFCURVE",
"514 507 OFFCURVE",
"514 359 CURVE SMOOTH",
"514 -36 OFFCURVE",
"516 -99 OFFCURVE",
"516 -145 CURVE",
"498 -124 OFFCURVE",
"471 -99 OFFCURVE",
"435 -78 CURVE",
"441 -65 OFFCURVE",
"444 -53 OFFCURVE",
"448 -46 CURVE",
"449 -40 OFFCURVE",
"451 -33 OFFCURVE",
"446 -29 CURVE",
"439 -23 OFFCURVE",
"429 -20 OFFCURVE",
"419 -16 CURVE",
"403 -10 LINE",
"403 -14 OFFCURVE",
"402 -19 OFFCURVE",
"400 -23 CURVE",
"396 -33 OFFCURVE",
"395 -43 OFFCURVE",
"389 -56 CURVE",
"359 -43 OFFCURVE",
"325 -37 OFFCURVE",
"289 -37 CURVE SMOOTH",
"226 -37 OFFCURVE",
"179 -72 OFFCURVE",
"179 -122 CURVE SMOOTH",
"179 -167 OFFCURVE",
"209 -204 OFFCURVE",
"265 -204 CURVE SMOOTH",
"338 -204 OFFCURVE",
"384 -158 OFFCURVE",
"413 -114 CURVE",
"461 -141 OFFCURVE",
"497 -177 OFFCURVE",
"513 -202 CURVE",
"572 -202 LINE",
"572 359 LINE SMOOTH",
"572 537 OFFCURVE",
"481 585 OFFCURVE",
"350 585 CURVE SMOOTH",
"212 585 OFFCURVE",
"111 495 OFFCURVE",
"111 459 CURVE SMOOTH",
"111 436 OFFCURVE",
"173 393 OFFCURVE",
"187 386 CURVE",
"164 363 OFFCURVE",
"156 340 OFFCURVE",
"156 294 CURVE SMOOTH",
"156 236 OFFCURVE",
"187 171 OFFCURVE",
"187 104 CURVE SMOOTH",
"187 59 OFFCURVE",
"166 42 OFFCURVE",
"137 42 CURVE SMOOTH",
"104 42 OFFCURVE",
"86 63 OFFCURVE",
"86 92 CURVE SMOOTH",
"86 121 OFFCURVE",
"98 144 OFFCURVE",
"127 144 CURVE SMOOTH"
);
},
{
closed = 1;
nodes = (
"236 -160 OFFCURVE",
"223 -148 OFFCURVE",
"223 -125 CURVE SMOOTH",
"223 -95 OFFCURVE",
"248 -81 OFFCURVE",
"295 -81 CURVE SMOOTH",
"321 -81 OFFCURVE",
"346 -85 OFFCURVE",
"370 -94 CURVE",
"348 -128 OFFCURVE",
"315 -160 OFFCURVE",
"264 -160 CURVE SMOOTH"
);
}
);
width = 658;
}
);
note = "doChada-thai.short";
},
{
glyphname = "toPatak-thai";
lastChange = "2017-12-19 05:27:16 +0000";
layers = (
{
layerId = "0B1DFD06-3317-40CA-B510-4969A0718C16";
paths = (
{
closed = 1;
nodes = (
"160 167 LINE",
"127 192 LINE",
"73 192 OFFCURVE",
"36 150 OFFCURVE",
"36 92 CURVE SMOOTH",
"36 35 OFFCURVE",
"79 -9 OFFCURVE",
"137 -9 CURVE SMOOTH",
"204 -9 OFFCURVE",
"243 30 OFFCURVE",
"243 104 CURVE SMOOTH",
"243 145 OFFCURVE",
"213 228 OFFCURVE",
"213 292 CURVE SMOOTH",
"213 366 OFFCURVE",
"233 383 OFFCURVE",
"289 383 CURVE SMOOTH",
"305 383 OFFCURVE",
"281 429 OFFCURVE",
"269 429 CURVE SMOOTH",
"252 429 OFFCURVE",
"235 410 OFFCURVE",
"219 410 CURVE SMOOTH",
"207 410 OFFCURVE",
"167 451 OFFCURVE",
"167 462 CURVE SMOOTH",
"167 480 OFFCURVE",
"253 534 OFFCURVE",
"350 534 CURVE SMOOTH",
"456 534 OFFCURVE",
"514 507 OFFCURVE",
"514 359 CURVE SMOOTH",
"514 -36 OFFCURVE",
"516 -161 OFFCURVE",
"516 -207 CURVE",
"436 -150 LINE",
"376 -197 LINE",
"337 -157 LINE",
"340 -150 OFFCURVE",
"343 -141 OFFCURVE",
"347 -134 CURVE",
"353 -121 OFFCURVE",
"359 -105 OFFCURVE",
"360 -92 CURVE SMOOTH",
"361 -82 OFFCURVE",
"363 -76 OFFCURVE",
"356 -72 CURVE SMOOTH",
"348 -68 OFFCURVE",
"338 -65 OFFCURVE",
"331 -63 CURVE",
"327 -62 OFFCURVE",
"323 -62 OFFCURVE",
"318 -62 CURVE",
"318 -78 OFFCURVE",
"314 -109 OFFCURVE",
"307 -127 CURVE",
"289 -109 OFFCURVE",
"259 -84 OFFCURVE",
"220 -84 CURVE SMOOTH",
"176 -84 OFFCURVE",
"141 -117 OFFCURVE",
"141 -173 CURVE SMOOTH",
"141 -212 OFFCURVE",
"170 -253 OFFCURVE",
"220 -253 CURVE SMOOTH",
"259 -253 OFFCURVE",
"288 -240 OFFCURVE",
"318 -202 CURVE",
"370 -256 LINE",
"438 -202 LINE",
"508 -259 LINE",
"570 -259 LINE",
"572 359 LINE SMOOTH",
"572 537 OFFCURVE",
"481 585 OFFCURVE",
"350 585 CURVE SMOOTH",
"212 585 OFFCURVE",
"111 495 OFFCURVE",
"111 459 CURVE SMOOTH",
"111 438 OFFCURVE",
"174 392 OFFCURVE",
"190 384 CURVE",
"168 360 OFFCURVE",
"156 340 OFFCURVE",
"156 294 CURVE SMOOTH",
"156 236 OFFCURVE",
"187 171 OFFCURVE",
"187 104 CURVE SMOOTH",
"187 59 OFFCURVE",
"166 42 OFFCURVE",
"137 42 CURVE SMOOTH",
"104 42 OFFCURVE",
"86 63 OFFCURVE",
"86 92 CURVE SMOOTH",
"86 121 OFFCURVE",
"98 144 OFFCURVE",
"127 144 CURVE SMOOTH",
"160 144 LINE"
);
},
{
closed = 1;
nodes = (
"272 -204 OFFCURVE",
"248 -209 OFFCURVE",
"225 -209 CURVE SMOOTH",
"199 -209 OFFCURVE",
"186 -196 OFFCURVE",
"186 -171 CURVE SMOOTH",
"186 -143 OFFCURVE",
"199 -128 OFFCURVE",
"223 -128 CURVE SMOOTH",
"246 -128 OFFCURVE",
"266 -143 OFFCURVE",
"291 -170 CURVE"
);
}
);
width = 658;
}
);
note = uni0E0F;
unicode = 0E0F;
},
{
glyphname = "toPatak-thai.short";
lastChange = "2017-12-19 05:28:04 +0000";
layers = (
{
layerId = "0B1DFD06-3317-40CA-B510-4969A0718C16";
paths = (
{
closed = 1;
nodes = (
"160 167 LINE",
"127 192 LINE",
"73 192 OFFCURVE",
"36 150 OFFCURVE",
"36 92 CURVE SMOOTH",
"36 35 OFFCURVE",
"79 -9 OFFCURVE",
"137 -9 CURVE SMOOTH",
"204 -9 OFFCURVE",
"243 30 OFFCURVE",
"243 104 CURVE SMOOTH",
"243 145 OFFCURVE",
"213 228 OFFCURVE",
"213 292 CURVE SMOOTH",
"213 366 OFFCURVE",
"233 383 OFFCURVE",
"289 383 CURVE SMOOTH",
"305 383 OFFCURVE",
"281 429 OFFCURVE",
"269 429 CURVE SMOOTH",
"252 429 OFFCURVE",
"235 410 OFFCURVE",
"219 410 CURVE SMOOTH",
"207 410 OFFCURVE",
"167 451 OFFCURVE",
"167 462 CURVE SMOOTH",
"167 480 OFFCURVE",
"253 534 OFFCURVE",
"350 534 CURVE SMOOTH",
"456 534 OFFCURVE",
"514 507 OFFCURVE",
"514 359 CURVE SMOOTH",
"514 -36 OFFCURVE",
"516 -118 OFFCURVE",
"516 -164 CURVE",
"451 -107 LINE",
"405 -154 LINE",
"366 -114 LINE",
"369 -107 OFFCURVE",
"372 -98 OFFCURVE",
"376 -91 CURVE",
"382 -78 OFFCURVE",
"387 -62 OFFCURVE",
"389 -49 CURVE SMOOTH",
"390 -39 OFFCURVE",
"392 -33 OFFCURVE",
"384 -29 CURVE SMOOTH",
"377 -24 OFFCURVE",
"367 -22 OFFCURVE",
"360 -20 CURVE",
"356 -19 OFFCURVE",
"351 -19 OFFCURVE",
"347 -19 CURVE",
"347 -35 OFFCURVE",
"343 -66 OFFCURVE",
"336 -84 CURVE",
"318 -66 OFFCURVE",
"288 -40 OFFCURVE",
"249 -40 CURVE SMOOTH",
"204 -40 OFFCURVE",
"170 -73 OFFCURVE",
"170 -130 CURVE SMOOTH",
"170 -168 OFFCURVE",
"199 -210 OFFCURVE",
"249 -210 CURVE SMOOTH",
"288 -210 OFFCURVE",
"317 -197 OFFCURVE",
"347 -158 CURVE",
"399 -213 LINE",
"452 -158 LINE",
"508 -216 LINE",
"570 -216 LINE",
"572 359 LINE SMOOTH",
"572 537 OFFCURVE",
"481 585 OFFCURVE",
"350 585 CURVE SMOOTH",
"212 585 OFFCURVE",
"111 495 OFFCURVE",
"111 459 CURVE SMOOTH",
"111 436 OFFCURVE",
"173 393 OFFCURVE",
"187 386 CURVE",
"164 363 OFFCURVE",
"156 340 OFFCURVE",
"156 294 CURVE SMOOTH",
"156 236 OFFCURVE",
"187 171 OFFCURVE",
"187 104 CURVE SMOOTH",
"187 59 OFFCURVE",
"166 42 OFFCURVE",
"137 42 CURVE SMOOTH",
"104 42 OFFCURVE",
"86 63 OFFCURVE",
"86 92 CURVE SMOOTH",
"86 121 OFFCURVE",
"98 144 OFFCURVE",
"127 144 CURVE SMOOTH",
"160 144 LINE"
);
},
{
closed = 1;
nodes = (
"301 -161 OFFCURVE",
"276 -166 OFFCURVE",
"253 -166 CURVE SMOOTH",
"228 -166 OFFCURVE",
"215 -153 OFFCURVE",
"215 -128 CURVE SMOOTH",
"215 -99 OFFCURVE",
"228 -85 OFFCURVE",
"252 -85 CURVE SMOOTH",
"275 -85 OFFCURVE",
"295 -99 OFFCURVE",
"320 -127 CURVE"
);
}
);
width = 658;
}
);
note = "toPatak-thai.short";
},
{
glyphname = "ru_lakkhangyao-thai";
lastChange = "2017-12-19 05:29:01 +0000";
layers = (
{
layerId = "0B1DFD06-3317-40CA-B510-4969A0718C16";
paths = (
{
closed = 1;
nodes = (
"563 498 OFFCURVE",
"609 534 OFFCURVE",
"677 534 CURVE SMOOTH",
"700 534 OFFCURVE",
"805 526 OFFCURVE",
"805 400 CURVE SMOOTH",
"805 333 OFFCURVE",
"802 282 OFFCURVE",
"802 220 CURVE SMOOTH",
"802 190 OFFCURVE",
"805 78 OFFCURVE",
"805 -22 CURVE SMOOTH",
"806 -81 OFFCURVE",
"806 -145 OFFCURVE",
"806 -216 CURVE",
"858 -216 LINE SMOOTH",
"865 -216 OFFCURVE",
"873 -215 OFFCURVE",
"868 -196 CURVE",
"863 -166 OFFCURVE",
"861 184 OFFCURVE",
"861 228 CURVE SMOOTH",
"861 287 OFFCURVE",
"863 338 OFFCURVE",
"863 400 CURVE SMOOTH",
"863 534 OFFCURVE",
"776 585 OFFCURVE",
"668 585 CURVE SMOOTH",
"613 585 OFFCURVE",
"536 547 OFFCURVE",
"491 505 CURVE",
"452 564 OFFCURVE",
"386 585 OFFCURVE",
"304 585 CURVE SMOOTH",
"166 585 OFFCURVE",
"72 495 OFFCURVE",
"72 459 CURVE SMOOTH",
"72 436 OFFCURVE",
"125 393 OFFCURVE",
"141 386 CURVE",
"108 353 OFFCURVE",
"95 330 OFFCURVE",
"95 256 CURVE SMOOTH",
"95 130 LINE SMOOTH",
"95 36 OFFCURVE",
"135 -9 OFFCURVE",
"200 -9 CURVE SMOOTH",
"258 -9 OFFCURVE",
"302 37 OFFCURVE",
"302 95 CURVE SMOOTH",
"302 153 OFFCURVE",
"261 197 OFFCURVE",
"204 197 CURVE",
"164 170 LINE",
"164 147 LINE",
"204 147 LINE SMOOTH",
"233 147 OFFCURVE",
"251 124 OFFCURVE",
"251 95 CURVE SMOOTH",
"251 66 OFFCURVE",
"233 42 OFFCURVE",
"200 42 CURVE SMOOTH",
"171 42 OFFCURVE",
"153 66 OFFCURVE",
"153 111 CURVE SMOOTH",
"153 256 LINE SMOOTH",
"153 366 OFFCURVE",
"187 383 OFFCURVE",
"243 383 CURVE SMOOTH",
"259 383 OFFCURVE",
"235 429 OFFCURVE",
"223 429 CURVE SMOOTH",
"206 429 OFFCURVE",
"189 410 OFFCURVE",
"173 410 CURVE SMOOTH",
"161 410 OFFCURVE",
"128 451 OFFCURVE",
"128 462 CURVE SMOOTH",
"128 480 OFFCURVE",
"209 534 OFFCURVE",
"304 534 CURVE SMOOTH",
"410 534 OFFCURVE",
"468 507 OFFCURVE",
"468 359 CURVE SMOOTH",
"468 -216 LINE",
"526 -216 LINE",
"526 359 LINE SMOOTH",
"526 392 OFFCURVE",
"521 420 OFFCURVE",
"516 445 CURVE"
);
}
);
width = 949;
}
);
note = "ru_lakkhangyao-thai";
},
{
glyphname = "lu_lakkhangyao-thai";
lastChange = "2017-12-19 05:29:05 +0000";
layers = (
{
layerId = "0B1DFD06-3317-40CA-B510-4969A0718C16";
paths = (
{
closed = 1;
nodes = (
"456 534 OFFCURVE",
"514 507 OFFCURVE",
"514 359 CURVE SMOOTH",
"514 -216 LINE",
"572 -216 LINE",
"572 359 LINE SMOOTH",
"572 392 OFFCURVE",
"567 423 OFFCURVE",
"560 451 CURVE",
"606 501 OFFCURVE",
"654 534 OFFCURVE",
"717 534 CURVE SMOOTH",
"740 534 OFFCURVE",
"845 526 OFFCURVE",
"845 400 CURVE SMOOTH",
"845 333 OFFCURVE",
"842 282 OFFCURVE",
"842 220 CURVE SMOOTH",
"842 190 OFFCURVE",
"845 78 OFFCURVE",
"845 -22 CURVE SMOOTH",
"847 -81 OFFCURVE",
"847 -145 OFFCURVE",
"847 -216 CURVE",
"899 -216 LINE SMOOTH",
"906 -216 OFFCURVE",
"913 -215 OFFCURVE",
"909 -196 CURVE",
"903 -166 OFFCURVE",
"901 184 OFFCURVE",
"901 228 CURVE SMOOTH",
"901 287 OFFCURVE",
"903 338 OFFCURVE",
"903 400 CURVE SMOOTH",
"903 534 OFFCURVE",
"816 585 OFFCURVE",
"708 585 CURVE SMOOTH",
"652 585 OFFCURVE",
"583 547 OFFCURVE",
"536 508 CURVE",
"497 566 OFFCURVE",
"431 585 OFFCURVE",
"350 585 CURVE SMOOTH",
"212 585 OFFCURVE",
"118 495 OFFCURVE",
"118 459 CURVE SMOOTH",
"118 436 OFFCURVE",
"171 393 OFFCURVE",
"187 386 CURVE",
"164 363 OFFCURVE",
"156 340 OFFCURVE",
"156 294 CURVE SMOOTH",
"156 236 OFFCURVE",
"187 171 OFFCURVE",
"187 104 CURVE SMOOTH",
"187 59 OFFCURVE",
"166 42 OFFCURVE",
"137 42 CURVE SMOOTH",
"104 42 OFFCURVE",
"86 63 OFFCURVE",
"86 92 CURVE SMOOTH",
"86 121 OFFCURVE",
"98 144 OFFCURVE",
"127 144 CURVE SMOOTH",
"160 144 LINE",
"160 167 LINE",
"127 192 LINE",
"73 192 OFFCURVE",
"36 150 OFFCURVE",
"36 92 CURVE SMOOTH",
"36 35 OFFCURVE",
"79 -9 OFFCURVE",
"137 -9 CURVE SMOOTH",
"204 -9 OFFCURVE",
"243 30 OFFCURVE",
"243 104 CURVE SMOOTH",
"243 145 OFFCURVE",
"213 228 OFFCURVE",
"213 292 CURVE SMOOTH",
"213 366 OFFCURVE",
"233 383 OFFCURVE",
"289 383 CURVE SMOOTH",
"305 383 OFFCURVE",
"281 429 OFFCURVE",
"269 429 CURVE SMOOTH",
"252 429 OFFCURVE",
"235 410 OFFCURVE",
"219 410 CURVE SMOOTH",
"207 410 OFFCURVE",
"174 451 OFFCURVE",
"174 462 CURVE SMOOTH",
"174 480 OFFCURVE",
"255 534 OFFCURVE",
"350 534 CURVE SMOOTH"
);
}
);
width = 989;
}
);
note = "lu_lakkhangyao-thai";
},
{
glyphname = "yoYing-thai";
lastChange = "2017-12-19 05:27:16 +0000";
layers = (
{
layerId = "0B1DFD06-3317-40CA-B510-4969A0718C16";
paths = (
{
closed = 1;
nodes = (
"204 147 LINE SMOOTH",
"233 147 OFFCURVE",
"251 124 OFFCURVE",
"251 95 CURVE SMOOTH",
"251 66 OFFCURVE",
"233 42 OFFCURVE",
"200 42 CURVE SMOOTH",
"171 42 OFFCURVE",
"153 66 OFFCURVE",
"153 111 CURVE SMOOTH",
"153 256 LINE SMOOTH",
"153 366 OFFCURVE",
"187 383 OFFCURVE",
"243 383 CURVE SMOOTH",
"259 383 OFFCURVE",
"235 429 OFFCURVE",
"223 429 CURVE SMOOTH",
"206 429 OFFCURVE",
"189 410 OFFCURVE",
"173 410 CURVE SMOOTH",
"161 410 OFFCURVE",
"121 451 OFFCURVE",
"121 462 CURVE SMOOTH",
"121 480 OFFCURVE",
"207 534 OFFCURVE",
"304 534 CURVE SMOOTH",
"410 534 OFFCURVE",
"468 507 OFFCURVE",
"468 359 CURVE SMOOTH",
"468 190 LINE SMOOTH",
"468 128 OFFCURVE",
"472 79 OFFCURVE",
"497 50 CURVE SMOOTH",
"543 -1 OFFCURVE",
"609 -9 OFFCURVE",
"661 -9 CURVE SMOOTH",
"713 -9 OFFCURVE",
"779 -1 OFFCURVE",
"825 50 CURVE SMOOTH",
"852 81 OFFCURVE",
"857 117 OFFCURVE",
"857 190 CURVE SMOOTH",
"857 576 LINE",
"799 576 LINE",
"799 312 LINE SMOOTH",
"799 265 OFFCURVE",
"802 199 OFFCURVE",
"802 166 CURVE SMOOTH",
"802 127 OFFCURVE",
"798 99 OFFCURVE",
"782 81 CURVE SMOOTH",
"759 55 OFFCURVE",
"719 42 OFFCURVE",
"661 42 CURVE SMOOTH",
"603 42 OFFCURVE",
"563 55 OFFCURVE",
"540 81 CURVE SMOOTH",
"524 99 OFFCURVE",
"521 137 OFFCURVE",
"521 183 CURVE SMOOTH",
"521 222 OFFCURVE",
"526 311 OFFCURVE",
"526 359 CURVE SMOOTH",
"526 537 OFFCURVE",
"435 585 OFFCURVE",
"304 585 CURVE SMOOTH",
"166 585 OFFCURVE",
"65 495 OFFCURVE",
"65 459 CURVE SMOOTH",
"65 436 OFFCURVE",
"127 393 OFFCURVE",
"141 386 CURVE",
"108 353 OFFCURVE",
"95 330 OFFCURVE",
"95 256 CURVE SMOOTH",
"95 130 LINE SMOOTH",
"95 36 OFFCURVE",
"135 -9 OFFCURVE",
"200 -9 CURVE SMOOTH",
"258 -9 OFFCURVE",
"302 37 OFFCURVE",
"302 95 CURVE SMOOTH",
"302 153 OFFCURVE",
"261 197 OFFCURVE",
"204 197 CURVE",
"164 170 LINE",
"164 147 LINE"
);
},
{
closed = 1;
nodes = (
"791 -69 LINE",
"791 -181 OFFCURVE",
"749 -213 OFFCURVE",
"649 -213 CURVE SMOOTH",
"569 -213 OFFCURVE",
"539 -193 OFFCURVE",
"539 -145 CURVE SMOOTH",
"539 -120 OFFCURVE",
"550 -107 OFFCURVE",
"573 -107 CURVE SMOOTH",
"589 -107 OFFCURVE",
"603 -115 OFFCURVE",
"603 -143 CURVE SMOOTH",
"603 -184 LINE",
"626 -184 LINE",
"649 -143 LINE",
"649 -86 OFFCURVE",
"618 -59 OFFCURVE",
"573 -59 CURVE SMOOTH",
"531 -59 OFFCURVE",
"491 -88 OFFCURVE",
"491 -145 CURVE SMOOTH",
"491 -213 OFFCURVE",
"546 -256 OFFCURVE",
"654 -256 CURVE SMOOTH",
"808 -256 OFFCURVE",
"847 -180 OFFCURVE",
"847 -69 CURVE"
);
}
);
width = 936;
}
);
note = uni0E0D;
unicode = 0E0D;
},
{
glyphname = "yoYing-thai.less";
lastChange = "2017-12-19 05:28:24 +0000";
layers = (
{
layerId = "0B1DFD06-3317-40CA-B510-4969A0718C16";
paths = (
{
closed = 1;
nodes = (
"176 148 LINE SMOOTH",
"204 148 OFFCURVE",
"222 124 OFFCURVE",
"222 95 CURVE SMOOTH",
"222 66 OFFCURVE",
"203 42 OFFCURVE",
"170 42 CURVE SMOOTH",
"141 42 OFFCURVE",
"124 71 OFFCURVE",
"124 115 CURVE SMOOTH",
"124 256 LINE SMOOTH",
"124 366 OFFCURVE",
"158 383 OFFCURVE",
"215 383 CURVE SMOOTH",
"230 383 OFFCURVE",
"206 429 OFFCURVE",
"194 429 CURVE SMOOTH",
"177 429 OFFCURVE",
"160 410 OFFCURVE",
"144 410 CURVE SMOOTH",
"132 410 OFFCURVE",
"99 451 OFFCURVE",
"99 462 CURVE SMOOTH",
"99 480 OFFCURVE",
"180 534 OFFCURVE",
"275 534 CURVE SMOOTH",
"382 534 OFFCURVE",
"439 507 OFFCURVE",
"439 359 CURVE SMOOTH",
"439 190 LINE SMOOTH",
"439 128 OFFCURVE",
"444 79 OFFCURVE",
"468 50 CURVE SMOOTH",
"514 -1 OFFCURVE",
"589 -9 OFFCURVE",
"641 -9 CURVE SMOOTH",
"693 -9 OFFCURVE",
"768 -1 OFFCURVE",
"814 50 CURVE SMOOTH",
"841 81 OFFCURVE",
"845 117 OFFCURVE",
"845 190 CURVE SMOOTH",
"845 567 LINE",
"788 567 LINE",
"788 312 LINE SMOOTH",
"788 265 OFFCURVE",
"791 199 OFFCURVE",
"791 166 CURVE SMOOTH",
"791 127 OFFCURVE",
"786 99 OFFCURVE",
"770 81 CURVE SMOOTH",
"746 53 OFFCURVE",
"700 42 OFFCURVE",
"641 42 CURVE SMOOTH",
"582 42 OFFCURVE",
"536 53 OFFCURVE",
"511 81 CURVE SMOOTH",
"495 99 OFFCURVE",
"492 137 OFFCURVE",
"492 183 CURVE SMOOTH",
"492 222 OFFCURVE",
"497 311 OFFCURVE",
"497 359 CURVE SMOOTH",
"497 537 OFFCURVE",
"406 585 OFFCURVE",
"275 585 CURVE SMOOTH",
"137 585 OFFCURVE",
"43 495 OFFCURVE",
"43 459 CURVE SMOOTH",
"43 436 OFFCURVE",
"96 393 OFFCURVE",
"112 386 CURVE",
"79 353 OFFCURVE",
"66 330 OFFCURVE",
"66 256 CURVE SMOOTH",
"66 115 LINE SMOOTH",
"66 35 OFFCURVE",
"96 -9 OFFCURVE",
"170 -9 CURVE SMOOTH",
"228 -9 OFFCURVE",
"274 37 OFFCURVE",
"274 95 CURVE SMOOTH",
"274 153 OFFCURVE",
"232 199 OFFCURVE",
"176 199 CURVE",
"135 171 LINE",
"135 148 LINE"
);
}
);
width = 924;
}
);
note = "yoYing-thai.less";
},
{
glyphname = "khoKhai-thai";
lastChange = "2017-12-19 05:27:16 +0000";
layers = (
{
layerId = "0B1DFD06-3317-40CA-B510-4969A0718C16";
paths = (
{
closed = 1;
nodes = (
"259 531 OFFCURVE",
"289 504 OFFCURVE",
"289 448 CURVE SMOOTH",
"289 321 OFFCURVE",
"132 331 OFFCURVE",
"132 209 CURVE SMOOTH",
"132 138 LINE SMOOTH",
"132 30 OFFCURVE",
"207 -9 OFFCURVE",
"311 -9 CURVE SMOOTH",
"432 -9 OFFCURVE",
"495 36 OFFCURVE",
"495 163 CURVE SMOOTH",
"495 576 LINE",
"436 576 LINE",
"436 284 LINE SMOOTH",
"436 236 OFFCURVE",
"439 174 OFFCURVE",
"439 141 CURVE SMOOTH",
"439 56 OFFCURVE",
"400 42 OFFCURVE",
"312 42 CURVE SMOOTH",
"239 42 OFFCURVE",
"190 60 OFFCURVE",
"190 134 CURVE SMOOTH",
"190 209 LINE SMOOTH",
"190 307 OFFCURVE",
"341 285 OFFCURVE",
"341 452 CURVE SMOOTH",
"341 533 OFFCURVE",
"282 579 OFFCURVE",
"206 579 CURVE SMOOTH",
"131 579 OFFCURVE",
"72 533 OFFCURVE",
"72 471 CURVE SMOOTH",
"72 415 OFFCURVE",
"104 373 OFFCURVE",
"161 373 CURVE SMOOTH",
"219 373 OFFCURVE",
"255 412 OFFCURVE",
"255 469 CURVE",
"229 511 LINE",
"204 511 LINE",
"204 469 LINE SMOOTH",
"204 439 OFFCURVE",
"183 425 OFFCURVE",
"161 425 CURVE SMOOTH",
"134 425 OFFCURVE",
"124 446 OFFCURVE",
"124 471 CURVE SMOOTH",
"124 526 OFFCURVE",
"173 531 OFFCURVE",
"200 531 CURVE SMOOTH"
);
}
);
width = 575;
}
);
note = uni0E02;
unicode = 0E02;
},
{
glyphname = "khoKhuat-thai";
lastChange = "2017-12-19 05:27:16 +0000";
layers = (
{
layerId = "0B1DFD06-3317-40CA-B510-4969A0718C16";
paths = (
{
closed = 1;
nodes = (
"282 527 LINE",
"292 517 OFFCURVE",
"308 491 OFFCURVE",
"308 455 CURVE SMOOTH",
"308 325 OFFCURVE",
"140 348 OFFCURVE",
"140 209 CURVE SMOOTH",
"140 131 LINE SMOOTH",
"140 23 OFFCURVE",
"219 -9 OFFCURVE",
"323 -9 CURVE SMOOTH",
"444 -9 OFFCURVE",
"516 43 OFFCURVE",
"516 170 CURVE SMOOTH",
"516 576 LINE",
"456 576 LINE",
"456 284 LINE SMOOTH",
"456 236 OFFCURVE",
"459 181 OFFCURVE",
"459 148 CURVE SMOOTH",
"459 63 OFFCURVE",
"412 42 OFFCURVE",
"324 42 CURVE SMOOTH",
"251 42 OFFCURVE",
"197 53 OFFCURVE",
"197 127 CURVE SMOOTH",
"197 209 LINE SMOOTH",
"197 321 OFFCURVE",
"354 292 OFFCURVE",
"354 458 CURVE SMOOTH",
"354 511 OFFCURVE",
"323 569 OFFCURVE",
"284 586 CURVE",
"226 514 LINE",
"219 526 OFFCURVE",
"212 537 OFFCURVE",
"202 547 CURVE",
"186 564 OFFCURVE",
"164 580 OFFCURVE",
"140 580 CURVE SMOOTH",
"95 580 OFFCURVE",
"52 549 OFFCURVE",
"50 481 CURVE SMOOTH",
"50 425 OFFCURVE",
"84 382 OFFCURVE",
"140 382 CURVE SMOOTH",
"158 382 OFFCURVE",
"177 392 OFFCURVE",
"194 412 CURVE",
"203 445 LINE",
"189 462 LINE",
"167 439 OFFCURVE",
"153 432 OFFCURVE",
"141 432 CURVE SMOOTH",
"112 432 OFFCURVE",
"99 454 OFFCURVE",
"99 482 CURVE SMOOTH",
"99 510 OFFCURVE",
"115 530 OFFCURVE",
"140 530 CURVE SMOOTH",
"170 530 OFFCURVE",
"176 505 OFFCURVE",
"223 458 CURVE"
);
}
);
width = 595;
}
);
note = uni0E03;
unicode = 0E03;
},
{
glyphname = "choChang-thai";
lastChange = "2017-12-19 05:27:16 +0000";
layers = (
{
layerId = "0B1DFD06-3317-40CA-B510-4969A0718C16";
paths = (
{
closed = 1;
nodes = (
"485 596 OFFCURVE",
"481 582 OFFCURVE",
"474 569 CURVE",
"462 546 OFFCURVE",
"446 517 OFFCURVE",
"422 495 CURVE SMOOTH",
"403 478 OFFCURVE",
"386 471 OFFCURVE",
"353 464 CURVE",
"343 461 OFFCURVE",
"364 426 OFFCURVE",
"376 426 CURVE SMOOTH",
"389 426 OFFCURVE",
"390 433 OFFCURVE",
"402 433 CURVE SMOOTH",
"419 433 OFFCURVE",
"452 405 OFFCURVE",
"452 343 CURVE SMOOTH",
"452 220 OFFCURVE",
"454 176 OFFCURVE",
"454 141 CURVE SMOOTH",
"454 56 OFFCURVE",
"408 42 OFFCURVE",
"320 42 CURVE SMOOTH",
"246 42 OFFCURVE",
"190 60 OFFCURVE",
"190 134 CURVE SMOOTH",
"190 209 LINE SMOOTH",
"190 307 OFFCURVE",
"327 285 OFFCURVE",
"327 452 CURVE SMOOTH",
"327 526 OFFCURVE",
"279 579 OFFCURVE",
"187 579 CURVE SMOOTH",
"99 579 OFFCURVE",
"48 533 OFFCURVE",
"48 471 CURVE SMOOTH",
"48 415 OFFCURVE",
"84 370 OFFCURVE",
"141 370 CURVE SMOOTH",
"199 370 OFFCURVE",
"230 409 OFFCURVE",
"230 467 CURVE",
"204 508 LINE",
"180 508 LINE",
"180 467 LINE SMOOTH",
"180 436 OFFCURVE",
"163 422 OFFCURVE",
"141 422 CURVE SMOOTH",
"114 422 OFFCURVE",
"99 446 OFFCURVE",
"99 471 CURVE SMOOTH",
"99 526 OFFCURVE",
"138 531 OFFCURVE",
"181 531 CURVE SMOOTH",
"255 531 OFFCURVE",
"275 504 OFFCURVE",
"275 448 CURVE SMOOTH",
"275 321 OFFCURVE",
"132 331 OFFCURVE",
"132 209 CURVE SMOOTH",
"132 138 LINE SMOOTH",
"132 30 OFFCURVE",
"215 -9 OFFCURVE",
"318 -9 CURVE SMOOTH",
"439 -9 OFFCURVE",
"510 36 OFFCURVE",
"510 163 CURVE SMOOTH",
"510 346 LINE SMOOTH",
"510 416 OFFCURVE",
"465 441 OFFCURVE",
"444 455 CURVE",
"480 480 OFFCURVE",
"511 520 OFFCURVE",
"539 562 CURVE",
"540 566 OFFCURVE",
"543 567 OFFCURVE",
"543 572 CURVE SMOOTH",
"543 575 OFFCURVE",
"541 577 OFFCURVE",
"539 580 CURVE SMOOTH",
"528 590 OFFCURVE",
"518 596 OFFCURVE",
"508 602 CURVE",
"503 606 OFFCURVE",
"497 609 OFFCURVE",
"490 611 CURVE"
);
}
);
width = 575;
}
);
note = uni0E0A;
unicode = 0E0A;
},
{
glyphname = "soSo-thai";
lastChange = "2017-12-19 05:27:16 +0000";
layers = (
{
layerId = "0B1DFD06-3317-40CA-B510-4969A0718C16";
paths = (
{
closed = 1;
nodes = (
"181 462 LINE",
"160 439 OFFCURVE",
"145 432 OFFCURVE",
"134 432 CURVE SMOOTH",
"105 432 OFFCURVE",
"92 454 OFFCURVE",
"92 482 CURVE SMOOTH",
"92 510 OFFCURVE",
"108 530 OFFCURVE",
"132 530 CURVE SMOOTH",
"163 530 OFFCURVE",
"168 505 OFFCURVE",
"216 458 CURVE",
"279 527 LINE",
"289 517 OFFCURVE",
"301 491 OFFCURVE",
"301 455 CURVE SMOOTH",
"301 325 OFFCURVE",
"140 348 OFFCURVE",
"140 209 CURVE SMOOTH",
"140 131 LINE SMOOTH",
"140 23 OFFCURVE",
"226 -9 OFFCURVE",
"330 -9 CURVE SMOOTH",
"451 -9 OFFCURVE",
"530 36 OFFCURVE",
"530 163 CURVE SMOOTH",
"530 346 LINE SMOOTH",
"530 416 OFFCURVE",
"485 441 OFFCURVE",
"464 455 CURVE",
"500 480 OFFCURVE",
"531 520 OFFCURVE",
"559 562 CURVE",
"560 566 OFFCURVE",
"563 567 OFFCURVE",
"563 572 CURVE SMOOTH",
"563 575 OFFCURVE",
"562 577 OFFCURVE",
"559 580 CURVE SMOOTH",
"549 590 OFFCURVE",
"539 596 OFFCURVE",
"528 602 CURVE",
"523 606 OFFCURVE",
"517 609 OFFCURVE",
"510 611 CURVE",
"505 596 OFFCURVE",
"501 582 OFFCURVE",
"494 569 CURVE",
"482 546 OFFCURVE",
"467 517 OFFCURVE",
"442 495 CURVE SMOOTH",
"423 478 OFFCURVE",
"406 471 OFFCURVE",
"373 464 CURVE",
"363 461 OFFCURVE",
"384 426 OFFCURVE",
"396 426 CURVE SMOOTH",
"409 426 OFFCURVE",
"410 433 OFFCURVE",
"422 433 CURVE SMOOTH",
"439 433 OFFCURVE",
"472 405 OFFCURVE",
"472 343 CURVE SMOOTH",
"472 220 OFFCURVE",
"474 176 OFFCURVE",
"474 141 CURVE SMOOTH",
"474 56 OFFCURVE",
"419 42 OFFCURVE",
"331 42 CURVE SMOOTH",
"258 42 OFFCURVE",
"197 53 OFFCURVE",
"197 127 CURVE SMOOTH",
"197 209 LINE SMOOTH",
"197 321 OFFCURVE",
"347 292 OFFCURVE",
"347 458 CURVE SMOOTH",
"347 511 OFFCURVE",
"320 569 OFFCURVE",
"281 586 CURVE",
"219 514 LINE",
"212 526 OFFCURVE",
"204 537 OFFCURVE",
"194 547 CURVE",
"179 564 OFFCURVE",
"157 580 OFFCURVE",
"132 580 CURVE SMOOTH",
"88 580 OFFCURVE",
"45 549 OFFCURVE",
"43 481 CURVE SMOOTH",
"43 425 OFFCURVE",
"76 382 OFFCURVE",
"132 382 CURVE SMOOTH",
"151 382 OFFCURVE",
"170 392 OFFCURVE",
"187 412 CURVE",
"196 445 LINE"
);
}
);
width = 595;
}
);
note = uni0E0B;
unicode = 0E0B;
},
{
glyphname = "khoKhwai-thai";
lastChange = "2017-12-19 05:27:16 +0000";
layers = (
{
layerId = "0B1DFD06-3317-40CA-B510-4969A0718C16";
paths = (
{
closed = 1;
nodes = (
"475 0 LINE",
"533 0 LINE",
"533 340 LINE SMOOTH",
"533 508 OFFCURVE",
"487 585 OFFCURVE",
"302 585 CURVE SMOOTH",
"166 585 OFFCURVE",
"72 498 OFFCURVE",
"72 348 CURVE SMOOTH",
"72 274 OFFCURVE",
"96 222 OFFCURVE",
"125 186 CURVE SMOOTH",
"131 179 OFFCURVE",
"131 168 OFFCURVE",
"125 153 CURVE SMOOTH",
"112 118 OFFCURVE",
"98 55 OFFCURVE",
"98 20 CURVE SMOOTH",
"98 1 OFFCURVE",
"101 0 OFFCURVE",
"108 0 CURVE SMOOTH",
"164 0 LINE",
"168 202 OFFCURVE",
"248 347 OFFCURVE",
"320 347 CURVE SMOOTH",
"353 347 OFFCURVE",
"373 327 OFFCURVE",
"373 300 CURVE SMOOTH",
"373 271 OFFCURVE",
"350 248 OFFCURVE",
"321 248 CURVE SMOOTH",
"308 248 OFFCURVE",
"298 252 OFFCURVE",
"289 262 CURVE",
"262 288 LINE",
"248 271 LINE",
"253 226 LINE",
"272 207 OFFCURVE",
"295 197 OFFCURVE",
"323 197 CURVE SMOOTH",
"379 197 OFFCURVE",
"423 242 OFFCURVE",
"423 298 CURVE SMOOTH",
"423 363 OFFCURVE",
"370 397 OFFCURVE",
"327 397 CURVE SMOOTH",
"230 397 OFFCURVE",
"187 305 OFFCURVE",
"153 220 CURVE",
"141 249 OFFCURVE",
"130 308 OFFCURVE",
"130 348 CURVE SMOOTH",
"130 475 OFFCURVE",
"200 534 OFFCURVE",
"302 534 CURVE SMOOTH",
"459 534 OFFCURVE",
"475 477 OFFCURVE",
"475 325 CURVE SMOOTH"
);
}
);
width = 612;
}
);
note = uni0E04;
unicode = 0E04;
},
{
glyphname = "khoKhon-thai";
lastChange = "2017-12-19 05:27:16 +0000";
layers = (
{
layerId = "0B1DFD06-3317-40CA-B510-4969A0718C16";
paths = (
{
closed = 1;
nodes = (
"130 446 OFFCURVE",
"157 511 OFFCURVE",
"222 533 CURVE",
"317 474 LINE",
"406 534 LINE",
"487 516 OFFCURVE",
"490 458 OFFCURVE",
"490 357 CURVE SMOOTH",
"490 0 LINE",
"547 0 LINE",
"547 340 LINE SMOOTH",
"547 481 OFFCURVE",
"528 569 OFFCURVE",
"409 588 CURVE",
"317 524 LINE",
"216 585 LINE",
"112 546 OFFCURVE",
"72 471 OFFCURVE",
"72 348 CURVE SMOOTH",
"72 274 OFFCURVE",
"96 222 OFFCURVE",
"125 186 CURVE SMOOTH",
"131 179 OFFCURVE",
"131 168 OFFCURVE",
"125 153 CURVE SMOOTH",
"112 118 OFFCURVE",
"98 55 OFFCURVE",
"98 20 CURVE SMOOTH",
"98 1 OFFCURVE",
"101 0 OFFCURVE",
"108 0 CURVE SMOOTH",
"164 0 LINE",
"168 202 OFFCURVE",
"248 347 OFFCURVE",
"320 347 CURVE SMOOTH",
"353 347 OFFCURVE",
"373 327 OFFCURVE",
"373 300 CURVE SMOOTH",
"373 271 OFFCURVE",
"350 248 OFFCURVE",
"321 248 CURVE SMOOTH",
"308 248 OFFCURVE",
"298 252 OFFCURVE",
"289 262 CURVE",
"262 288 LINE",
"248 271 LINE",
"253 226 LINE",
"272 207 OFFCURVE",
"295 197 OFFCURVE",
"323 197 CURVE SMOOTH",
"379 197 OFFCURVE",
"423 242 OFFCURVE",
"423 298 CURVE SMOOTH",
"423 363 OFFCURVE",
"370 397 OFFCURVE",
"327 397 CURVE SMOOTH",
"230 397 OFFCURVE",
"187 305 OFFCURVE",
"153 220 CURVE",
"141 249 OFFCURVE",
"130 308 OFFCURVE",
"130 348 CURVE SMOOTH"
);
}
);
width = 626;
}
);
note = uni0E05;
unicode = 0E05;
},
{
glyphname = "soSala-thai";
lastChange = "2017-12-19 05:27:16 +0000";
layers = (
{
layerId = "0B1DFD06-3317-40CA-B510-4969A0718C16";
paths = (
{
closed = 1;
nodes = (
"520 534 OFFCURVE",
"560 560 OFFCURVE",
"583 583 CURVE SMOOTH",
"586 586 OFFCURVE",
"588 589 OFFCURVE",
"588 593 CURVE SMOOTH",
"588 596 OFFCURVE",
"586 599 OFFCURVE",
"583 602 CURVE SMOOTH",
"576 609 OFFCURVE",
"566 615 OFFCURVE",
"556 619 CURVE",
"552 622 OFFCURVE",
"546 624 OFFCURVE",
"541 625 CURVE",
"511 598 OFFCURVE",
"472 570 OFFCURVE",
"445 557 CURVE",
"412 576 OFFCURVE",
"364 585 OFFCURVE",
"302 585 CURVE SMOOTH",
"166 585 OFFCURVE",
"72 498 OFFCURVE",
"72 348 CURVE SMOOTH",
"72 274 OFFCURVE",
"96 226 OFFCURVE",
"125 190 CURVE SMOOTH",
"131 183 OFFCURVE",
"131 173 OFFCURVE",
"125 157 CURVE SMOOTH",
"114 122 OFFCURVE",
"98 55 OFFCURVE",
"98 20 CURVE SMOOTH",
"98 1 OFFCURVE",
"101 0 OFFCURVE",
"108 0 CURVE SMOOTH",
"164 0 LINE",
"168 202 OFFCURVE",
"248 347 OFFCURVE",
"320 347 CURVE SMOOTH",
"353 347 OFFCURVE",
"373 327 OFFCURVE",
"373 300 CURVE SMOOTH",
"373 271 OFFCURVE",
"350 248 OFFCURVE",
"321 248 CURVE SMOOTH",
"308 248 OFFCURVE",
"298 252 OFFCURVE",
"289 262 CURVE",
"262 288 LINE",
"248 271 LINE",
"253 226 LINE",
"272 207 OFFCURVE",
"295 197 OFFCURVE",
"323 197 CURVE SMOOTH",
"379 197 OFFCURVE",
"423 242 OFFCURVE",
"423 298 CURVE SMOOTH",
"423 363 OFFCURVE",
"370 397 OFFCURVE",
"327 397 CURVE SMOOTH",
"230 397 OFFCURVE",
"187 305 OFFCURVE",
"153 220 CURVE",
"141 249 OFFCURVE",
"130 308 OFFCURVE",
"130 348 CURVE SMOOTH",
"130 475 OFFCURVE",
"200 534 OFFCURVE",
"302 534 CURVE SMOOTH",
"459 534 OFFCURVE",
"475 477 OFFCURVE",
"475 325 CURVE SMOOTH",
"475 0 LINE",
"533 0 LINE",
"533 340 LINE SMOOTH",
"533 425 OFFCURVE",
"521 484 OFFCURVE",
"487 524 CURVE"
);
}
);
width = 609;
}
);
note = uni0E28;
unicode = 0E28;
},
{
glyphname = "doDek-thai";
lastChange = "2017-12-19 05:27:16 +0000";
layers = (
{
layerId = "0B1DFD06-3317-40CA-B510-4969A0718C16";
paths = (
{
closed = 1;
nodes = (
"72 194 OFFCURVE",
"125 163 OFFCURVE",
"156 132 CURVE SMOOTH",
"160 128 OFFCURVE",
"158 121 OFFCURVE",
"153 112 CURVE SMOOTH",
"134 85 OFFCURVE",
"118 50 OFFCURVE",
"112 20 CURVE",
"108 1 OFFCURVE",
"115 0 OFFCURVE",
"122 0 CURVE SMOOTH",
"179 0 LINE",
"179 102 OFFCURVE",
"271 154 OFFCURVE",
"353 216 CURVE SMOOTH",
"395 246 OFFCURVE",
"412 269 OFFCURVE",
"412 321 CURVE SMOOTH",
"412 364 OFFCURVE",
"377 418 OFFCURVE",
"312 418 CURVE SMOOTH",
"256 418 OFFCURVE",
"212 373 OFFCURVE",
"212 317 CURVE SMOOTH",
"212 289 OFFCURVE",
"222 266 OFFCURVE",
"240 248 CURVE",
"285 242 LINE",
"302 256 LINE",
"276 284 LINE",
"266 292 OFFCURVE",
"262 302 OFFCURVE",
"262 315 CURVE SMOOTH",
"262 344 OFFCURVE",
"285 367 OFFCURVE",
"314 367 CURVE SMOOTH",
"341 367 OFFCURVE",
"361 347 OFFCURVE",
"361 314 CURVE SMOOTH",
"361 295 OFFCURVE",
"354 275 OFFCURVE",
"325 253 CURVE",
"304 239 OFFCURVE",
"209 170 OFFCURVE",
"194 148 CURVE",
"171 181 OFFCURVE",
"130 207 OFFCURVE",
"130 348 CURVE SMOOTH",
"130 475 OFFCURVE",
"200 534 OFFCURVE",
"302 534 CURVE SMOOTH",
"459 534 OFFCURVE",
"475 477 OFFCURVE",
"475 325 CURVE SMOOTH",
"475 -1 LINE",
"533 -1 LINE",
"533 340 LINE SMOOTH",
"533 508 OFFCURVE",
"487 585 OFFCURVE",
"302 585 CURVE SMOOTH",
"166 585 OFFCURVE",
"72 498 OFFCURVE",
"72 348 CURVE SMOOTH"
);
}
);
width = 612;
}
);
note = uni0E14;
unicode = 0E14;
},
{
glyphname = "toTao-thai";
lastChange = "2017-12-19 05:27:16 +0000";
layers = (
{
layerId = "0B1DFD06-3317-40CA-B510-4969A0718C16";
paths = (
{
closed = 1;
nodes = (
"406 534 LINE",
"487 516 OFFCURVE",
"490 458 OFFCURVE",
"490 357 CURVE SMOOTH",
"490 0 LINE",
"547 0 LINE",
"547 340 LINE SMOOTH",
"547 481 OFFCURVE",
"528 569 OFFCURVE",
"409 588 CURVE",
"317 524 LINE",
"216 585 LINE",
"112 546 OFFCURVE",
"72 471 OFFCURVE",
"72 348 CURVE SMOOTH",
"72 194 OFFCURVE",
"125 163 OFFCURVE",
"156 132 CURVE SMOOTH",
"160 128 OFFCURVE",
"158 121 OFFCURVE",
"153 112 CURVE SMOOTH",
"134 85 OFFCURVE",
"118 50 OFFCURVE",
"112 20 CURVE",
"108 1 OFFCURVE",
"115 0 OFFCURVE",
"122 0 CURVE SMOOTH",
"179 0 LINE",
"179 102 OFFCURVE",
"271 154 OFFCURVE",
"353 216 CURVE SMOOTH",
"395 246 OFFCURVE",
"412 269 OFFCURVE",
"412 321 CURVE SMOOTH",
"412 364 OFFCURVE",
"377 418 OFFCURVE",
"312 418 CURVE SMOOTH",
"256 418 OFFCURVE",
"212 373 OFFCURVE",
"212 317 CURVE SMOOTH",
"212 289 OFFCURVE",
"222 266 OFFCURVE",
"240 248 CURVE",
"285 242 LINE",
"302 256 LINE",
"276 284 LINE",
"266 292 OFFCURVE",
"262 302 OFFCURVE",
"262 315 CURVE SMOOTH",
"262 344 OFFCURVE",
"285 367 OFFCURVE",
"314 367 CURVE SMOOTH",
"341 367 OFFCURVE",
"361 347 OFFCURVE",
"361 314 CURVE SMOOTH",
"361 295 OFFCURVE",
"354 275 OFFCURVE",
"325 253 CURVE",
"304 239 OFFCURVE",
"209 170 OFFCURVE",
"194 148 CURVE",
"171 181 OFFCURVE",
"130 207 OFFCURVE",
"130 348 CURVE SMOOTH",
"130 446 OFFCURVE",
"157 511 OFFCURVE",
"222 533 CURVE",
"317 474 LINE"
);
}
);
width = 626;
}
);
note = uni0E15;
unicode = 0E15;
},
{
glyphname = "thoThahan-thai";
lastChange = "2017-12-19 05:27:16 +0000";
layers = (
{
layerId = "0B1DFD06-3317-40CA-B510-4969A0718C16";
paths = (
{
closed = 1;
nodes = (
"144 429 LINE SMOOTH",
"115 429 OFFCURVE",
"102 454 OFFCURVE",
"102 482 CURVE SMOOTH",
"102 511 OFFCURVE",
"122 536 OFFCURVE",
"156 536 CURVE SMOOTH",
"184 536 OFFCURVE",
"203 514 OFFCURVE",
"203 469 CURVE SMOOTH",
"203 428 OFFCURVE",
"176 393 OFFCURVE",
"176 320 CURVE SMOOTH",
"176 192 OFFCURVE",
"176 50 OFFCURVE",
"168 20 CURVE SMOOTH",
"164 1 OFFCURVE",
"171 0 OFFCURVE",
"179 0 CURVE SMOOTH",
"228 0 LINE",
"229 22 LINE SMOOTH",
"240 217 OFFCURVE",
"392 530 OFFCURVE",
"498 530 CURVE SMOOTH",
"528 530 OFFCURVE",
"552 505 OFFCURVE",
"552 459 CURVE SMOOTH",
"552 0 LINE",
"609 0 LINE",
"609 459 LINE SMOOTH",
"609 552 OFFCURVE",
"560 580 OFFCURVE",
"492 580 CURVE SMOOTH",
"372 580 OFFCURVE",
"269 377 OFFCURVE",
"223 181 CURVE",
"230 315 LINE SMOOTH",
"235 396 OFFCURVE",
"261 431 OFFCURVE",
"261 472 CURVE SMOOTH",
"261 546 OFFCURVE",
"223 586 OFFCURVE",
"156 586 CURVE SMOOTH",
"98 586 OFFCURVE",
"50 540 OFFCURVE",
"50 482 CURVE SMOOTH",
"50 425 OFFCURVE",
"85 380 OFFCURVE",
"141 380 CURVE",
"176 406 LINE",
"176 429 LINE"
);
}
);
width = 688;
}
);
note = uni0E17;
unicode = 0E17;
},
{
glyphname = "thoNangmontho-thai";
lastChange = "2017-12-19 05:27:16 +0000";
layers = (
{
layerId = "0B1DFD06-3317-40CA-B510-4969A0718C16";
paths = (
{
closed = 1;
nodes = (
"153 468 LINE",
"131 445 OFFCURVE",
"120 439 OFFCURVE",
"108 439 CURVE SMOOTH",
"84 439 OFFCURVE",
"68 458 OFFCURVE",
"68 482 CURVE SMOOTH",
"68 510 OFFCURVE",
"82 533 OFFCURVE",
"107 533 CURVE SMOOTH",
"130 533 OFFCURVE",
"141 521 OFFCURVE",
"174 475 CURVE",
"229 534 LINE",
"238 521 LINE",
"242 511 OFFCURVE",
"246 500 OFFCURVE",
"246 484 CURVE SMOOTH",
"246 405 OFFCURVE",
"151 389 OFFCURVE",
"151 262 CURVE SMOOTH",
"151 134 OFFCURVE",
"150 50 OFFCURVE",
"144 20 CURVE",
"140 1 OFFCURVE",
"147 0 OFFCURVE",
"154 0 CURVE SMOOTH",
"203 0 LINE",
"204 63 LINE",
"262 220 OFFCURVE",
"395 521 OFFCURVE",
"484 521 CURVE SMOOTH",
"501 521 OFFCURVE",
"527 524 OFFCURVE",
"527 456 CURVE SMOOTH",
"527 0 LINE",
"585 0 LINE",
"585 456 LINE SMOOTH",
"585 543 OFFCURVE",
"564 580 OFFCURVE",
"484 580 CURVE SMOOTH",
"376 580 OFFCURVE",
"252 308 OFFCURVE",
"199 164 CURVE",
"203 265 LINE",
"203 387 OFFCURVE",
"289 380 OFFCURVE",
"289 490 CURVE SMOOTH",
"289 540 OFFCURVE",
"264 564 OFFCURVE",
"230 586 CURVE",
"177 528 LINE",
"171 539 OFFCURVE",
"164 547 OFFCURVE",
"157 554 CURVE SMOOTH",
"144 567 OFFCURVE",
"125 580 OFFCURVE",
"101 580 CURVE SMOOTH",
"65 580 OFFCURVE",
"22 549 OFFCURVE",
"22 481 CURVE SMOOTH",
"22 429 OFFCURVE",
"56 392 OFFCURVE",
"104 392 CURVE SMOOTH",
"124 392 OFFCURVE",
"143 402 OFFCURVE",
"158 420 CURVE",
"167 451 LINE"
);
}
);
width = 664;
}
);
note = uni0E11;
unicode = 0E11;
},
{
glyphname = "noNu-thai";
lastChange = "2017-12-19 05:27:16 +0000";
layers = (
{
layerId = "0B1DFD06-3317-40CA-B510-4969A0718C16";
paths = (
{
closed = 1;
nodes = (
"176 429 LINE",
"144 429 LINE SMOOTH",
"115 429 OFFCURVE",
"102 454 OFFCURVE",
"102 482 CURVE SMOOTH",
"102 511 OFFCURVE",
"122 536 OFFCURVE",
"156 536 CURVE SMOOTH",
"184 536 OFFCURVE",
"203 514 OFFCURVE",
"203 469 CURVE SMOOTH",
"203 428 OFFCURVE",
"176 393 OFFCURVE",
"176 320 CURVE SMOOTH",
"176 192 OFFCURVE",
"180 50 OFFCURVE",
"173 20 CURVE SMOOTH",
"168 1 OFFCURVE",
"176 0 OFFCURVE",
"183 0 CURVE SMOOTH",
"232 0 LINE",
"232 98 OFFCURVE",
"340 196 OFFCURVE",
"433 196 CURVE SMOOTH",
"448 196 OFFCURVE",
"458 194 OFFCURVE",
"465 192 CURVE",
"441 174 OFFCURVE",
"412 145 OFFCURVE",
"412 101 CURVE SMOOTH",
"412 32 OFFCURVE",
"455 -4 OFFCURVE",
"513 -4 CURVE SMOOTH",
"570 -4 OFFCURVE",
"619 26 OFFCURVE",
"619 105 CURVE SMOOTH",
"619 156 OFFCURVE",
"593 193 OFFCURVE",
"554 215 CURVE",
"570 232 OFFCURVE",
"577 249 OFFCURVE",
"577 266 CURVE SMOOTH",
"577 576 LINE",
"520 576 LINE",
"520 266 LINE SMOOTH",
"520 251 OFFCURVE",
"518 239 OFFCURVE",
"516 230 CURVE",
"490 239 OFFCURVE",
"464 243 OFFCURVE",
"436 243 CURVE SMOOTH",
"374 243 OFFCURVE",
"276 203 OFFCURVE",
"230 131 CURVE",
"230 315 LINE SMOOTH",
"230 396 OFFCURVE",
"261 431 OFFCURVE",
"261 472 CURVE SMOOTH",
"261 546 OFFCURVE",
"223 586 OFFCURVE",
"156 586 CURVE SMOOTH",
"98 586 OFFCURVE",
"50 540 OFFCURVE",
"50 482 CURVE SMOOTH",
"50 425 OFFCURVE",
"85 380 OFFCURVE",
"141 380 CURVE",
"176 406 LINE"
);
},
{
closed = 1;
nodes = (
"567 66 OFFCURVE",
"546 48 OFFCURVE",
"513 48 CURVE SMOOTH",
"480 48 OFFCURVE",
"462 68 OFFCURVE",
"462 108 CURVE SMOOTH",
"462 130 OFFCURVE",
"474 158 OFFCURVE",
"507 180 CURVE",
"547 164 OFFCURVE",
"567 141 OFFCURVE",
"567 108 CURVE SMOOTH"
);
}
);
width = 657;
}
);
note = uni0E19;
unicode = 0E19;
},
